<svg xmlns="http://www.w3.org/2000/svg" width="57.883" height="50.392" viewBox="0 0 57.883 50.392"><g transform="translate(-1824.402 -554.944)"><g transform="translate(1824.402 554.944)" fill="none"><path d="M43.412,0,57.883,25.2l-14.471,25.2H14.471L0,25.2,14.471,0Z" stroke="none"/><path d="M 15.04949188232422 0.9999961853027344 L 1.153186798095703 25.1959171295166 L 15.04949188232422 49.39183807373047 L 42.8330192565918 49.39183807373047 L 56.72931671142578 25.1959171295166 L 42.8330192565918 0.9999961853027344 L 15.04949188232422 0.9999961853027344 M 14.47062683105469 -3.814697265625e-06 L 43.41188430786133 -3.814697265625e-06 L 57.88250732421875 25.1959171295166 L 43.41188430786133 50.39183807373047 L 14.47062683105469 50.39183807373047 L -3.814697265625e-06 25.1959171295166 L 14.47062683105469 -3.814697265625e-06 Z" stroke="none" fill="#f7f6f5"/></g><path d="M24.421,10.665a.293.293,0,0,1,.472.229v9.942a2.334,2.334,0,0,1-2.334,2.334H2.334A2.334,2.334,0,0,1,0,20.836V10.9a.291.291,0,0,1,.472-.229c1.089.846,2.533,1.92,7.492,5.523,1.026.749,2.757,2.324,4.483,2.314,1.736.015,3.5-1.595,4.487-2.314C21.893,12.59,23.332,11.511,24.421,10.665ZM12.446,16.946c1.128.019,2.752-1.42,3.569-2.013,6.452-4.682,6.943-5.09,8.43-6.257a1.163,1.163,0,0,0,.447-.919V6.834A2.334,2.334,0,0,0,22.559,4.5H2.334A2.334,2.334,0,0,0,0,6.834v.924a1.171,1.171,0,0,0,.447.919c1.488,1.162,1.979,1.575,8.43,6.257C9.695,15.527,11.318,16.966,12.446,16.946Z" transform="translate(1841.131 567.908)" fill="#f7f6f5"/></g></svg>