<svg xmlns="http://www.w3.org/2000/svg" width="32.659" height="28.432" viewBox="0 0 32.659 28.432">
  <g id="Group_143" data-name="Group 143" transform="translate(-82.679)">
    <g id="Polygon_7" data-name="Polygon 7" transform="translate(82.679)" fill="none">
      <path d="M24.494,0l8.165,14.216L24.494,28.432H8.165L0,14.216,8.165,0Z" stroke="none"/>
      <path d="M 8.743545532226562 0.9999980926513672 L 1.153190612792969 14.21614837646484 L 8.743545532226562 27.43229866027832 L 23.9151725769043 27.43229866027832 L 31.50552749633789 14.21614837646484 L 23.9151725769043 0.9999980926513672 L 8.743545532226562 0.9999980926513672 M 8.164678573608398 -1.9073486328125e-06 L 24.49403762817383 -1.9073486328125e-06 L 32.65871810913086 14.21614837646484 L 24.49403762817383 28.43229866027832 L 8.164678573608398 28.43229866027832 L 0 14.21614837646484 L 8.164678573608398 -1.9073486328125e-06 Z" stroke="none" fill="#001333"/>
    </g>
    <path id="Icon_awesome-envelope" data-name="Icon awesome-envelope" d="M13.779,7.978a.165.165,0,0,1,.266.129v5.61a1.317,1.317,0,0,1-1.317,1.317H1.317A1.317,1.317,0,0,1,0,13.717V8.11a.164.164,0,0,1,.266-.129C.881,8.458,1.7,9.065,4.493,11.1A4.908,4.908,0,0,0,7.023,12.4,4.91,4.91,0,0,0,9.554,11.1C12.353,9.065,13.164,8.456,13.779,7.978ZM7.023,11.523c.636.011,1.553-.8,2.013-1.136,3.64-2.642,3.917-2.872,4.757-3.53a.656.656,0,0,0,.252-.518V5.817A1.317,1.317,0,0,0,12.728,4.5H1.317A1.317,1.317,0,0,0,0,5.817v.521a.66.66,0,0,0,.252.518c.839.656,1.116.889,4.757,3.53C5.47,10.722,6.386,11.533,7.023,11.523Z" transform="translate(92.118 5.354)" fill="#001333"/>
  </g>
</svg>
