<svg id="Group_141" data-name="Group 141" xmlns="http://www.w3.org/2000/svg" width="32.659" height="28.432" viewBox="0 0 32.659 28.432">
  <g id="Polygon_5" data-name="Polygon 5" fill="none">
    <path d="M24.494,0l8.165,14.216L24.494,28.432H8.165L0,14.216,8.165,0Z" stroke="none"/>
    <path d="M 8.743545532226562 0.9999980926513672 L 1.153190612792969 14.21614837646484 L 8.743545532226562 27.43229866027832 L 23.9151725769043 27.43229866027832 L 31.50552749633789 14.21614837646484 L 23.9151725769043 0.9999980926513672 L 8.743545532226562 0.9999980926513672 M 8.164678573608398 -1.9073486328125e-06 L 24.49403762817383 -1.9073486328125e-06 L 32.65871810913086 14.21614837646484 L 24.49403762817383 28.43229866027832 L 8.164678573608398 28.43229866027832 L 0 14.21614837646484 L 8.164678573608398 -1.9073486328125e-06 Z" stroke="none" fill="#001333"/>
  </g>
  <path id="Icon_simple-github" data-name="Icon simple-github" d="M7.745.445A7.745,7.745,0,0,0,5.3,15.538c.387.073.529-.167.529-.372,0-.184-.006-.671-.01-1.317-2.154.467-2.609-1.039-2.609-1.039a2.053,2.053,0,0,0-.862-1.133c-.7-.48.054-.47.054-.47a1.624,1.624,0,0,1,1.186.8,1.65,1.65,0,0,0,2.256.644,1.651,1.651,0,0,1,.49-1.036c-1.72-.194-3.528-.86-3.528-3.827a2.988,2.988,0,0,1,.8-2.078,2.754,2.754,0,0,1,.068-2.05s.649-.208,2.13.794a7.3,7.3,0,0,1,3.872,0c1.471-1,2.12-.794,2.12-.794a2.83,2.83,0,0,1,.077,2.05,3,3,0,0,1,.794,2.078c0,2.975-1.81,3.63-3.533,3.821a1.854,1.854,0,0,1,.523,1.433c0,1.036-.01,1.869-.01,2.121,0,.2.136.445.532.368A7.735,7.735,0,0,0,7.745.445" transform="translate(8.812 7.062)" fill="#001333"/>
</svg>
