<svg xmlns="http://www.w3.org/2000/svg" width="57.882" height="50.392" viewBox="0 0 57.882 50.392"><g transform="translate(-5408 -4452.714)"><g transform="translate(5408 4452.714)" fill="none"><path d="M43.412,0,57.883,25.2l-14.471,25.2H14.471L0,25.2,14.471,0Z" stroke="none"/><path d="M 15.04949188232422 0.9999961853027344 L 1.153186798095703 25.1959171295166 L 15.04949188232422 49.39183807373047 L 42.8330192565918 49.39183807373047 L 56.72931671142578 25.1959171295166 L 42.8330192565918 0.9999961853027344 L 15.04949188232422 0.9999961853027344 M 14.47062683105469 -3.814697265625e-06 L 43.41188430786133 -3.814697265625e-06 L 57.88250732421875 25.1959171295166 L 43.41188430786133 50.39183807373047 L 14.47062683105469 50.39183807373047 L -3.814697265625e-06 25.1959171295166 L 14.47062683105469 -3.814697265625e-06 Z" stroke="none" fill="#f7f6f5"/></g><path d="M13.726.445A13.727,13.727,0,0,0,9.385,27.194c.686.129.938-.3.938-.66,0-.326-.011-1.19-.017-2.333-3.818.828-4.623-1.842-4.623-1.842a3.638,3.638,0,0,0-1.527-2.007c-1.243-.851.1-.834.1-.834a2.878,2.878,0,0,1,2.1,1.414,2.925,2.925,0,0,0,4,1.142,2.926,2.926,0,0,1,.869-1.836c-3.048-.343-6.252-1.524-6.252-6.783A5.3,5.3,0,0,1,6.381,9.771,4.88,4.88,0,0,1,6.5,6.138s1.15-.368,3.775,1.407a12.941,12.941,0,0,1,6.863,0C19.747,5.77,20.9,6.138,20.9,6.138a5.015,5.015,0,0,1,.137,3.633,5.317,5.317,0,0,1,1.407,3.683c0,5.273-3.208,6.434-6.263,6.772a3.286,3.286,0,0,1,.927,2.539c0,1.837-.017,3.313-.017,3.759,0,.36.24.789.944.652A13.709,13.709,0,0,0,13.726.445" transform="translate(5423.617 4465.573)" fill="#f7f6f5"/></g></svg>