<svg xmlns="http://www.w3.org/2000/svg" width="60.43" height="52.876" viewBox="0 0 60.43 52.876"><g transform="translate(-69.177)"><path d="M22.5,4.5h8.283v8.283" transform="translate(82.113 9.514)" fill="none" stroke="#f7f6f5" stroke-width="2"/><path d="M15,19.685,30.185,4.5" transform="translate(82.711 9.514)" fill="none" stroke="#f7f6f5" stroke-width="2"/><path d="M25.207,18.663v8.283a2.761,2.761,0,0,1-2.761,2.761H7.261A2.761,2.761,0,0,1,4.5,26.946V11.761A2.761,2.761,0,0,1,7.261,9h8.283" transform="translate(81.388 9.156)" fill="none" stroke="#f7f6f5" stroke-width="2"/><g transform="translate(69.177)" fill="none"><path d="M45.323,0,60.43,26.438,45.323,52.876H15.108L0,26.438,15.108,0Z" stroke="none"/><path d="M 15.6878662109375 0.9999923706054688 L 1.151744842529297 26.43819427490234 L 15.6878547668457 51.87638473510742 L 44.74229431152344 51.87638473510742 L 59.27840805053711 26.43819427490234 L 44.74229431152344 0.9999923706054688 L 15.6878662109375 0.9999923706054688 M 15.10754776000977 -7.62939453125e-06 L 45.32261657714844 -7.62939453125e-06 L 60.43015670776367 26.43819427490234 L 45.32261657714844 52.87638473510742 L 15.10753631591797 52.87638473510742 L -3.814697265625e-06 26.43819427490234 L 15.10754776000977 -7.62939453125e-06 Z" stroke="none" fill="#f7f6f5"/></g></g></svg>