<svg xmlns="http://www.w3.org/2000/svg" width="57.883" height="50.392" viewBox="0 0 57.883 50.392"><g transform="translate(-1824 -480.406)"><g transform="translate(1824 480.406)" fill="none"><path d="M43.412,0,57.883,25.2l-14.471,25.2H14.471L0,25.2,14.471,0Z" stroke="none"/><path d="M 15.04949188232422 0.9999961853027344 L 1.153186798095703 25.1959171295166 L 15.04949188232422 49.39183807373047 L 42.8330192565918 49.39183807373047 L 56.72931671142578 25.1959171295166 L 42.8330192565918 0.9999961853027344 L 15.04949188232422 0.9999961853027344 M 14.47062683105469 -3.814697265625e-06 L 43.41188430786133 -3.814697265625e-06 L 57.88250732421875 25.1959171295166 L 43.41188430786133 50.39183807373047 L 14.47062683105469 50.39183807373047 L -3.814697265625e-06 25.1959171295166 L 14.47062683105469 -3.814697265625e-06 Z" stroke="none" fill="#f7f6f5"/></g><path d="M21.262,1.928H6.344A3.784,3.784,0,0,0,2.571,5.7V20.619a3.784,3.784,0,0,0,3.773,3.773H21.262a3.784,3.784,0,0,0,3.773-3.773V5.7a3.784,3.784,0,0,0-3.773-3.773ZM10.995,20.18H8.187V10.352h2.808ZM9.591,8.948a1.4,1.4,0,1,1,1.4-1.4A1.4,1.4,0,0,1,9.591,8.948ZM20.823,20.18H18.015V14.564a1.4,1.4,0,1,0-2.808,0V20.18H12.4V10.352h2.808V12.1c.579-.8,1.464-1.743,2.457-1.743a3.348,3.348,0,0,1,3.159,3.51Z" transform="translate(1839.138 493.937)" fill="#f7f6f5"/></g></svg>