<svg xmlns="http://www.w3.org/2000/svg" width="32.659" height="28.432" viewBox="0 0 32.659 28.432">
  <g id="Group_142" data-name="Group 142" transform="translate(-42.317 0)">
    <g id="Polygon_6" data-name="Polygon 6" transform="translate(42.317 0)" fill="none">
      <path d="M24.494,0l8.165,14.216L24.494,28.432H8.165L0,14.216,8.165,0Z" stroke="none"/>
      <path d="M 8.743545532226562 0.9999980926513672 L 1.153190612792969 14.21614837646484 L 8.743545532226562 27.43229866027832 L 23.9151725769043 27.43229866027832 L 31.50552749633789 14.21614837646484 L 23.9151725769043 0.9999980926513672 L 8.743545532226562 0.9999980926513672 M 8.164678573608398 -1.9073486328125e-06 L 24.49403762817383 -1.9073486328125e-06 L 32.65871810913086 14.21614837646484 L 24.49403762817383 28.43229866027832 L 8.164678573608398 28.43229866027832 L 0 14.21614837646484 L 8.164678573608398 -1.9073486328125e-06 Z" stroke="none" fill="#001333"/>
    </g>
    <path id="Icon_metro-linkedin" data-name="Icon metro-linkedin" d="M13.117,1.928H4.7A2.135,2.135,0,0,0,2.571,4.057v8.417A2.135,2.135,0,0,0,4.7,14.6h8.417a2.135,2.135,0,0,0,2.129-2.129V4.057a2.135,2.135,0,0,0-2.129-2.129Zm-5.793,10.3H5.739V6.681H7.324ZM6.532,5.889A.792.792,0,1,1,7.324,5.1.792.792,0,0,1,6.532,5.889Zm6.338,6.338H11.285V9.058a.792.792,0,1,0-1.584,0v3.169H8.116V6.681H9.7v.984c.327-.449.826-.984,1.386-.984a1.889,1.889,0,0,1,1.782,1.98Z" transform="translate(49.418 6.794)" fill="#001333"/>
  </g>
</svg>
