<svg xmlns="http://www.w3.org/2000/svg" xmlns:xlink="http://www.w3.org/1999/xlink" width="3828" height="575.99" viewBox="0 0 3828 575.99">
  <defs>
    <clipPath id="clip-path">
      <rect width="3828" height="575.99" fill="none"/>
    </clipPath>
  </defs>
  <g id="Repeat_Grid_15" data-name="Repeat Grid 15" clip-path="url(#clip-path)">
    <g id="Group_146" data-name="Group 146">
      <g id="Group_94" data-name="Group 94" transform="translate(0 0)">
        <g id="Group_94-2" data-name="Group 94" transform="translate(0 0)">
          <g id="Polygon_15" data-name="Polygon 15" transform="translate(61.144 96.442)" fill="none">
            <path d="M155.306,0l51.769,93.906-51.769,93.906H51.769L0,93.906,51.769,0Z" stroke="none"/>
            <path d="M 52.35928344726562 0.9999847412109375 L 1.141876220703125 93.90596008300781 L 52.35928344726562 186.8119049072266 L 154.7153778076172 186.8119049072266 L 205.9327545166016 93.90596008300781 L 154.7153778076172 0.9999847412109375 L 52.35928344726562 0.9999847412109375 M 51.7686767578125 -1.52587890625e-05 L 155.3059844970703 -1.52587890625e-05 L 207.0746459960938 93.90596008300781 L 155.3059844970703 187.8119049072266 L 51.7686767578125 187.8119049072266 L -1.52587890625e-05 93.90596008300781 L 51.7686767578125 -1.52587890625e-05 Z" stroke="none" fill="#012b66"/>
          </g>
          <g id="Polygon_17" data-name="Polygon 17" transform="translate(61.144 289.325)" fill="none">
            <path d="M155.306,0l51.769,93.906-51.769,93.906H51.769L0,93.906,51.769,0Z" stroke="none"/>
            <path d="M 52.35928344726562 0.9999847412109375 L 1.141876220703125 93.90596008300781 L 52.35928344726562 186.8119049072266 L 154.7153778076172 186.8119049072266 L 205.9327545166016 93.90596008300781 L 154.7153778076172 0.9999847412109375 L 52.35928344726562 0.9999847412109375 M 51.7686767578125 -1.52587890625e-05 L 155.3059844970703 -1.52587890625e-05 L 207.0746459960938 93.90596008300781 L 155.3059844970703 187.8119049072266 L 51.7686767578125 187.8119049072266 L -1.52587890625e-05 93.90596008300781 L 51.7686767578125 -1.52587890625e-05 Z" stroke="none" fill="#00347b"/>
          </g>
          <g id="Path_20" data-name="Path 20" transform="translate(-20.303 385.77)" fill="#00214e">
            <path d="M 77.53989410400391 187.3119049072266 L 24.5601806640625 187.3119049072266 L 24.5601806640625 96.41962432861328 L 24.5601806640625 0.500007688999176 L 77.53989410400391 0.500007688999176 L 129.0328979492188 93.90596008300781 L 77.53989410400391 187.3119049072266 Z" stroke="none"/>
            <path d="M 25.0601806640625 1.000015258789062 L 25.0601806640625 186.8119049072266 L 77.24459838867188 186.8119049072266 L 128.4619598388672 93.90596008300781 L 77.24459838867188 1.000015258789062 L 25.0601806640625 1.000015258789062 M 24.0601806640625 1.52587890625e-05 L 77.835205078125 1.52587890625e-05 L 129.6038513183594 93.90596008300781 L 77.835205078125 187.8119049072266 L 20.30322265625 187.8119049072266 L 24.0601806640625 187.8119049072266 L 24.0601806640625 1.52587890625e-05 Z" stroke="none" fill="#00214e"/>
          </g>
          <g id="Path_21" data-name="Path 21" transform="translate(-20.303 192.883)" fill="#012d69">
            <path d="M 77.53989410400391 187.3119049072266 L 24.5601806640625 187.3119049072266 L 24.5601806640625 96.41962432861328 L 24.5601806640625 0.500007688999176 L 77.53989410400391 0.500007688999176 L 129.0328979492188 93.90596008300781 L 77.53989410400391 187.3119049072266 Z" stroke="none"/>
            <path d="M 25.0601806640625 1.000015258789062 L 25.0601806640625 186.8119049072266 L 77.24459838867188 186.8119049072266 L 128.4619598388672 93.90596008300781 L 77.24459838867188 1.000015258789062 L 25.0601806640625 1.000015258789062 M 24.0601806640625 1.52587890625e-05 L 77.835205078125 1.52587890625e-05 L 129.6038513183594 93.90596008300781 L 77.835205078125 187.8119049072266 L 20.30322265625 187.8119049072266 L 24.0601806640625 187.8119049072266 L 24.0601806640625 1.52587890625e-05 Z" stroke="none" fill="#012d69"/>
          </g>
          <g id="Polygon_19" data-name="Polygon 19" transform="translate(220.061 385.77)" fill="#00214e">
            <path d="M 155.0106811523438 187.3119354248047 L 52.06394958496094 187.3119354248047 L 0.5709598064422607 93.90596008300781 L 52.0639762878418 0.5000126957893372 L 155.0106811523438 0.5000126957893372 L 206.5037231445312 93.90596008300781 L 155.0106811523438 187.3119354248047 Z" stroke="none"/>
            <path d="M 52.35928344726562 0.9999847412109375 L 1.141876220703125 93.90596008300781 L 52.35928344726562 186.8119049072266 L 154.7153778076172 186.8119049072266 L 205.9327545166016 93.90596008300781 L 154.7153778076172 0.9999847412109375 L 52.35928344726562 0.9999847412109375 M 51.7686767578125 -1.52587890625e-05 L 155.3059844970703 -1.52587890625e-05 L 207.0746459960938 93.90596008300781 L 155.3059844970703 187.8119049072266 L 51.7686767578125 187.8119049072266 L -1.52587890625e-05 93.90596008300781 L 51.7686767578125 -1.52587890625e-05 Z" stroke="none" fill="#00214e"/>
          </g>
          <g id="Path_12" data-name="Path 12" transform="translate(61.144 479.676)" fill="#00347b">
            <path d="M 206.2280883789062 93.40595245361328 L 0.8466008305549622 93.40595245361328 L 52.0639762878418 0.500006377696991 L 155.0106811523438 0.500006377696991 L 206.2280883789062 93.40595245361328 Z" stroke="none"/>
            <path d="M 52.35928344726562 1.000007629394531 L 1.693161010742188 92.90595245361328 L 205.3814697265625 92.90595245361328 L 154.7153778076172 1.000007629394531 L 52.35928344726562 1.000007629394531 M 51.7686767578125 7.62939453125e-06 L 155.3059844970703 7.62939453125e-06 L 207.0746459960938 93.90595245361328 L -1.52587890625e-05 93.90595245361328 L 51.7686767578125 7.62939453125e-06 Z" stroke="none" fill="#00347b"/>
          </g>
          <g id="Path_13" data-name="Path 13" transform="translate(378.979 479.676)" fill="none">
            <path d="M155.306,0l51.769,93.906H0L51.769,0Z" stroke="none"/>
            <path d="M 52.35928344726562 1.000007629394531 L 1.693161010742188 92.90595245361328 L 205.3814697265625 92.90595245361328 L 154.7153778076172 1.000007629394531 L 52.35928344726562 1.000007629394531 M 51.7686767578125 7.62939453125e-06 L 155.3059844970703 7.62939453125e-06 L 207.0746459960938 93.90595245361328 L -1.52587890625e-05 93.90595245361328 L 51.7686767578125 7.62939453125e-06 Z" stroke="none" fill="#00347b"/>
          </g>
          <g id="Path_14" data-name="Path 14" transform="translate(696.815 479.676)" fill="#012d69">
            <path d="M 206.2280883789062 93.40595245361328 L 0.8466008305549622 93.40595245361328 L 52.0639762878418 0.500006377696991 L 155.0106811523438 0.500006377696991 L 206.2280883789062 93.40595245361328 Z" stroke="none"/>
            <path d="M 52.35928344726562 1.000007629394531 L 1.693161010742188 92.90595245361328 L 205.3814697265625 92.90595245361328 L 154.7153778076172 1.000007629394531 L 52.35928344726562 1.000007629394531 M 51.7686767578125 7.62939453125e-06 L 155.3059844970703 7.62939453125e-06 L 207.0746459960938 93.90595245361328 L -1.52587890625e-05 93.90595245361328 L 51.7686767578125 7.62939453125e-06 Z" stroke="none" fill="#01204a"/>
          </g>
          <g id="Path_15" data-name="Path 15" transform="translate(1014.65 479.676)" fill="#00214e">
            <path d="M 206.2280883789062 93.40595245361328 L 0.8466008305549622 93.40595245361328 L 52.0639762878418 0.500006377696991 L 155.0106811523438 0.500006377696991 L 206.2280883789062 93.40595245361328 Z" stroke="none"/>
            <path d="M 52.35928344726562 1.000007629394531 L 1.693161010742188 92.90595245361328 L 205.3814697265625 92.90595245361328 L 154.7153778076172 1.000007629394531 L 52.35928344726562 1.000007629394531 M 51.7686767578125 7.62939453125e-06 L 155.3059844970703 7.62939453125e-06 L 207.0746459960938 93.90595245361328 L -1.52587890625e-05 93.90595245361328 L 51.7686767578125 7.62939453125e-06 Z" stroke="none" fill="#00347b"/>
          </g>
          <g id="Path_16" data-name="Path 16" transform="translate(1332.486 479.676)" fill="#012d69">
            <path d="M 206.2280883789062 93.40595245361328 L 0.8466008305549622 93.40595245361328 L 52.0639762878418 0.500006377696991 L 155.0106811523438 0.500006377696991 L 206.2280883789062 93.40595245361328 Z" stroke="none"/>
            <path d="M 52.35928344726562 1.000007629394531 L 1.693161010742188 92.90595245361328 L 205.3814697265625 92.90595245361328 L 154.7153778076172 1.000007629394531 L 52.35928344726562 1.000007629394531 M 51.7686767578125 7.62939453125e-06 L 155.3059844970703 7.62939453125e-06 L 207.0746459960938 93.90595245361328 L -1.52587890625e-05 93.90595245361328 L 51.7686767578125 7.62939453125e-06 Z" stroke="none" fill="#012d69"/>
          </g>
          <g id="Path_19" data-name="Path 19" transform="translate(1650.321 482.084)" fill="none">
            <path d="M155.306,0l51.769,93.906H0L51.769,0Z" stroke="none"/>
            <path d="M 52.35928344726562 1.000007629394531 L 1.693161010742188 92.90595245361328 L 205.3814697265625 92.90595245361328 L 154.7153778076172 1.000007629394531 L 52.35928344726562 1.000007629394531 M 51.7686767578125 7.62939453125e-06 L 155.3059844970703 7.62939453125e-06 L 207.0746459960938 93.90595245361328 L -1.52587890625e-05 93.90595245361328 L 51.7686767578125 7.62939453125e-06 Z" stroke="none" fill="#00347b"/>
          </g>
          <g id="Polygon_21" data-name="Polygon 21" transform="translate(378.979 289.325)" fill="#00214e">
            <path d="M 155.0106811523438 187.3119354248047 L 52.06394958496094 187.3119354248047 L 0.5709598064422607 93.90596008300781 L 52.0639762878418 0.5000126957893372 L 155.0106811523438 0.5000126957893372 L 206.5037231445312 93.90596008300781 L 155.0106811523438 187.3119354248047 Z" stroke="none"/>
            <path d="M 52.35928344726562 0.9999847412109375 L 1.141876220703125 93.90596008300781 L 52.35928344726562 186.8119049072266 L 154.7153778076172 186.8119049072266 L 205.9327545166016 93.90596008300781 L 154.7153778076172 0.9999847412109375 L 52.35928344726562 0.9999847412109375 M 51.7686767578125 -1.52587890625e-05 L 155.3059844970703 -1.52587890625e-05 L 207.0746459960938 93.90596008300781 L 155.3059844970703 187.8119049072266 L 51.7686767578125 187.8119049072266 L -1.52587890625e-05 93.90596008300781 L 51.7686767578125 -1.52587890625e-05 Z" stroke="none" fill="#01204a"/>
          </g>
          <g id="Polygon_23" data-name="Polygon 23" transform="translate(537.897 385.77)" fill="rgba(2,83,196,0.18)">
            <path d="M 155.0106811523438 187.3119354248047 L 52.06394958496094 187.3119354248047 L 0.5709598064422607 93.90596008300781 L 52.0639762878418 0.5000126957893372 L 155.0106811523438 0.5000126957893372 L 206.5037231445312 93.90596008300781 L 155.0106811523438 187.3119354248047 Z" stroke="none"/>
            <path d="M 52.35928344726562 0.9999847412109375 L 1.141876220703125 93.90596008300781 L 52.35928344726562 186.8119049072266 L 154.7153778076172 186.8119049072266 L 205.9327545166016 93.90596008300781 L 154.7153778076172 0.9999847412109375 L 52.35928344726562 0.9999847412109375 M 51.7686767578125 -1.52587890625e-05 L 155.3059844970703 -1.52587890625e-05 L 207.0746459960938 93.90596008300781 L 155.3059844970703 187.8119049072266 L 51.7686767578125 187.8119049072266 L -1.52587890625e-05 93.90596008300781 L 51.7686767578125 -1.52587890625e-05 Z" stroke="none" fill="#012d69"/>
          </g>
          <g id="Polygon_24" data-name="Polygon 24" transform="translate(537.897 192.883)" fill="none">
            <path d="M155.306,0l51.769,93.906-51.769,93.906H51.769L0,93.906,51.769,0Z" stroke="none"/>
            <path d="M 52.35928344726562 0.9999847412109375 L 1.141876220703125 93.90596008300781 L 52.35928344726562 186.8119049072266 L 154.7153778076172 186.8119049072266 L 205.9327545166016 93.90596008300781 L 154.7153778076172 0.9999847412109375 L 52.35928344726562 0.9999847412109375 M 51.7686767578125 -1.52587890625e-05 L 155.3059844970703 -1.52587890625e-05 L 207.0746459960938 93.90596008300781 L 155.3059844970703 187.8119049072266 L 51.7686767578125 187.8119049072266 L -1.52587890625e-05 93.90596008300781 L 51.7686767578125 -1.52587890625e-05 Z" stroke="none" fill="#00347b"/>
          </g>
          <g id="Polygon_25" data-name="Polygon 25" transform="translate(696.815 289.325)" fill="#012d69">
            <path d="M 155.0106811523438 187.3119354248047 L 52.06394958496094 187.3119354248047 L 0.5709598064422607 93.90596008300781 L 52.0639762878418 0.5000126957893372 L 155.0106811523438 0.5000126957893372 L 206.5037231445312 93.90596008300781 L 155.0106811523438 187.3119354248047 Z" stroke="none"/>
            <path d="M 52.35928344726562 0.9999847412109375 L 1.141876220703125 93.90596008300781 L 52.35928344726562 186.8119049072266 L 154.7153778076172 186.8119049072266 L 205.9327545166016 93.90596008300781 L 154.7153778076172 0.9999847412109375 L 52.35928344726562 0.9999847412109375 M 51.7686767578125 -1.52587890625e-05 L 155.3059844970703 -1.52587890625e-05 L 207.0746459960938 93.90596008300781 L 155.3059844970703 187.8119049072266 L 51.7686767578125 187.8119049072266 L -1.52587890625e-05 93.90596008300781 L 51.7686767578125 -1.52587890625e-05 Z" stroke="none" fill="#01204a"/>
          </g>
          <g id="Polygon_27" data-name="Polygon 27" transform="translate(855.733 385.77)" fill="#00347b">
            <path d="M 155.0106811523438 187.3119354248047 L 52.06394958496094 187.3119354248047 L 0.5709598064422607 93.90596008300781 L 52.0639762878418 0.5000126957893372 L 155.0106811523438 0.5000126957893372 L 206.5037231445312 93.90596008300781 L 155.0106811523438 187.3119354248047 Z" stroke="none"/>
            <path d="M 52.35928344726562 0.9999847412109375 L 1.141876220703125 93.90596008300781 L 52.35928344726562 186.8119049072266 L 154.7153778076172 186.8119049072266 L 205.9327545166016 93.90596008300781 L 154.7153778076172 0.9999847412109375 L 52.35928344726562 0.9999847412109375 M 51.7686767578125 -1.52587890625e-05 L 155.3059844970703 -1.52587890625e-05 L 207.0746459960938 93.90596008300781 L 155.3059844970703 187.8119049072266 L 51.7686767578125 187.8119049072266 L -1.52587890625e-05 93.90596008300781 L 51.7686767578125 -1.52587890625e-05 Z" stroke="none" fill="#00347b"/>
          </g>
          <g id="Polygon_28" data-name="Polygon 28" transform="translate(1014.65 289.325)" fill="#00347b">
            <path d="M 155.0106811523438 187.3119354248047 L 52.06394958496094 187.3119354248047 L 0.5709598064422607 93.90596008300781 L 52.0639762878418 0.5000126957893372 L 155.0106811523438 0.5000126957893372 L 206.5037231445312 93.90596008300781 L 155.0106811523438 187.3119354248047 Z" stroke="none"/>
            <path d="M 52.35928344726562 0.9999847412109375 L 1.141876220703125 93.90596008300781 L 52.35928344726562 186.8119049072266 L 154.7153778076172 186.8119049072266 L 205.9327545166016 93.90596008300781 L 154.7153778076172 0.9999847412109375 L 52.35928344726562 0.9999847412109375 M 51.7686767578125 -1.52587890625e-05 L 155.3059844970703 -1.52587890625e-05 L 207.0746459960938 93.90596008300781 L 155.3059844970703 187.8119049072266 L 51.7686767578125 187.8119049072266 L -1.52587890625e-05 93.90596008300781 L 51.7686767578125 -1.52587890625e-05 Z" stroke="none" fill="#00347b"/>
          </g>
          <g id="Polygon_30" data-name="Polygon 30" transform="translate(1173.568 385.77)" fill="none">
            <path d="M155.306,0l51.769,93.906-51.769,93.906H51.769L0,93.906,51.769,0Z" stroke="none"/>
            <path d="M 52.35928344726562 0.9999847412109375 L 1.141876220703125 93.90596008300781 L 52.35928344726562 186.8119049072266 L 154.7153778076172 186.8119049072266 L 205.9327545166016 93.90596008300781 L 154.7153778076172 0.9999847412109375 L 52.35928344726562 0.9999847412109375 M 51.7686767578125 -1.52587890625e-05 L 155.3059844970703 -1.52587890625e-05 L 207.0746459960938 93.90596008300781 L 155.3059844970703 187.8119049072266 L 51.7686767578125 187.8119049072266 L -1.52587890625e-05 93.90596008300781 L 51.7686767578125 -1.52587890625e-05 Z" stroke="none" fill="#00347b"/>
          </g>
          <g id="Polygon_33" data-name="Polygon 33" transform="translate(1491.404 385.77)" fill="#012d69">
            <path d="M 155.0106811523438 187.3119354248047 L 52.06394958496094 187.3119354248047 L 0.5709598064422607 93.90596008300781 L 52.0639762878418 0.5000126957893372 L 155.0106811523438 0.5000126957893372 L 206.5037231445312 93.90596008300781 L 155.0106811523438 187.3119354248047 Z" stroke="none"/>
            <path d="M 52.35928344726562 0.9999847412109375 L 1.141876220703125 93.90596008300781 L 52.35928344726562 186.8119049072266 L 154.7153778076172 186.8119049072266 L 205.9327545166016 93.90596008300781 L 154.7153778076172 0.9999847412109375 L 52.35928344726562 0.9999847412109375 M 51.7686767578125 -1.52587890625e-05 L 155.3059844970703 -1.52587890625e-05 L 207.0746459960938 93.90596008300781 L 155.3059844970703 187.8119049072266 L 51.7686767578125 187.8119049072266 L -1.52587890625e-05 93.90596008300781 L 51.7686767578125 -1.52587890625e-05 Z" stroke="none" fill="#012d69"/>
          </g>
          <g id="Polygon_35" data-name="Polygon 35" transform="translate(1650.321 289.325)" fill="none">
            <path d="M155.306,0l51.769,93.906-51.769,93.906H51.769L0,93.906,51.769,0Z" stroke="none"/>
            <path d="M 52.35928344726562 0.9999847412109375 L 1.141876220703125 93.90596008300781 L 52.35928344726562 186.8119049072266 L 154.7153778076172 186.8119049072266 L 205.9327545166016 93.90596008300781 L 154.7153778076172 0.9999847412109375 L 52.35928344726562 0.9999847412109375 M 51.7686767578125 -1.52587890625e-05 L 155.3059844970703 -1.52587890625e-05 L 207.0746459960938 93.90596008300781 L 155.3059844970703 187.8119049072266 L 51.7686767578125 187.8119049072266 L -1.52587890625e-05 93.90596008300781 L 51.7686767578125 -1.52587890625e-05 Z" stroke="none" fill="#00347b"/>
          </g>
          <g id="Polygon_32" data-name="Polygon 32" transform="translate(1332.486 289.325)" fill="none">
            <path d="M155.306,0l51.769,93.906-51.769,93.906H51.769L0,93.906,51.769,0Z" stroke="none"/>
            <path d="M 52.35928344726562 0.9999847412109375 L 1.141876220703125 93.90596008300781 L 52.35928344726562 186.8119049072266 L 154.7153778076172 186.8119049072266 L 205.9327545166016 93.90596008300781 L 154.7153778076172 0.9999847412109375 L 52.35928344726562 0.9999847412109375 M 51.7686767578125 -1.52587890625e-05 L 155.3059844970703 -1.52587890625e-05 L 207.0746459960938 93.90596008300781 L 155.3059844970703 187.8119049072266 L 51.7686767578125 187.8119049072266 L -1.52587890625e-05 93.90596008300781 L 51.7686767578125 -1.52587890625e-05 Z" stroke="none" fill="#00347b"/>
          </g>
          <g id="Polygon_18" data-name="Polygon 18" transform="translate(220.061 192.883)" fill="none">
            <path d="M155.306,0l51.769,93.906-51.769,93.906H51.769L0,93.906,51.769,0Z" stroke="none"/>
            <path d="M 52.35928344726562 0.9999847412109375 L 1.141876220703125 93.90596008300781 L 52.35928344726562 186.8119049072266 L 154.7153778076172 186.8119049072266 L 205.9327545166016 93.90596008300781 L 154.7153778076172 0.9999847412109375 L 52.35928344726562 0.9999847412109375 M 51.7686767578125 -1.52587890625e-05 L 155.3059844970703 -1.52587890625e-05 L 207.0746459960938 93.90596008300781 L 155.3059844970703 187.8119049072266 L 51.7686767578125 187.8119049072266 L -1.52587890625e-05 93.90596008300781 L 51.7686767578125 -1.52587890625e-05 Z" stroke="none" fill="#00347b"/>
          </g>
          <g id="Polygon_34" data-name="Polygon 34" transform="translate(220.061)" fill="none">
            <path d="M155.306,0l51.769,93.906-51.769,93.906H51.769L0,93.906,51.769,0Z" stroke="none"/>
            <path d="M 52.35928344726562 0.9999847412109375 L 1.141876220703125 93.90596008300781 L 52.35928344726562 186.8119049072266 L 154.7153778076172 186.8119049072266 L 205.9327545166016 93.90596008300781 L 154.7153778076172 0.9999847412109375 L 52.35928344726562 0.9999847412109375 M 51.7686767578125 -1.52587890625e-05 L 155.3059844970703 -1.52587890625e-05 L 207.0746459960938 93.90596008300781 L 155.3059844970703 187.8119049072266 L 51.7686767578125 187.8119049072266 L -1.52587890625e-05 93.90596008300781 L 51.7686767578125 -1.52587890625e-05 Z" stroke="none" fill="#012b66"/>
          </g>
        </g>
      </g>
      <g id="Path_22" data-name="Path 22" transform="translate(1920 573.57) rotate(-180)" fill="#00214e">
        <path d="M 57.23667144775391 187.2939453125 L 4.256957054138184 187.2939453125 L 4.256957054138184 96.41037750244141 L 4.256957054138184 0.4999964535236359 L 57.23667144775391 0.4999964535236359 L 108.7296752929688 93.89697265625 L 57.23667144775391 187.2939453125 Z" stroke="none"/>
        <path d="M 4.7569580078125 1 L 4.7569580078125 186.7939453125 L 56.94138717651367 186.7939453125 L 108.1587219238281 93.89697265625 L 56.94138717651367 1 L 4.7569580078125 1 M 3.7569580078125 0 L 57.53195571899414 0 L 109.3006210327148 93.89697265625 L 57.53195571899414 187.7939453125 L 7.62939453125e-06 187.7939453125 L 3.7569580078125 187.7939453125 L 3.7569580078125 0 Z" stroke="none" fill="#00347b"/>
      </g>
      <g id="Path_23" data-name="Path 23" transform="translate(1920 380.652) rotate(-180)" fill="#012d69">
        <path d="M 57.23667144775391 187.2934722900391 L 4.256957054138184 187.2934722900391 L 4.256957054138184 96.41013336181641 L 4.256957054138184 0.5000142455101013 L 57.23667144775391 0.5000142455101013 L 108.7296752929688 93.896728515625 L 57.23667144775391 187.2934722900391 Z" stroke="none"/>
        <path d="M 4.7569580078125 0.9999847412109375 L 4.7569580078125 186.7934417724609 L 56.94138717651367 186.7934417724609 L 108.1587219238281 93.896728515625 L 56.94138717651367 0.9999847412109375 L 4.7569580078125 0.9999847412109375 M 3.7569580078125 -1.52587890625e-05 L 57.53195571899414 -1.52587890625e-05 L 109.3006210327148 93.896728515625 L 57.53195571899414 187.7934417724609 L 7.62939453125e-06 187.7934417724609 L 3.7569580078125 187.7934417724609 L 3.7569580078125 -1.52587890625e-05 Z" stroke="none" fill="#00214e"/>
      </g>
    </g>
    <g id="Group_146-2" data-name="Group 146" transform="translate(1912)">
      <g id="Group_94-3" data-name="Group 94" transform="translate(0 0)">
        <g id="Group_94-4" data-name="Group 94" transform="translate(0 0)">
          <g id="Polygon_15-2" data-name="Polygon 15" transform="translate(61.144 96.442)" fill="none">
            <path d="M155.306,0l51.769,93.906-51.769,93.906H51.769L0,93.906,51.769,0Z" stroke="none"/>
            <path d="M 52.35928344726562 0.9999847412109375 L 1.141876220703125 93.90596008300781 L 52.35928344726562 186.8119049072266 L 154.7153778076172 186.8119049072266 L 205.9327545166016 93.90596008300781 L 154.7153778076172 0.9999847412109375 L 52.35928344726562 0.9999847412109375 M 51.7686767578125 -1.52587890625e-05 L 155.3059844970703 -1.52587890625e-05 L 207.0746459960938 93.90596008300781 L 155.3059844970703 187.8119049072266 L 51.7686767578125 187.8119049072266 L -1.52587890625e-05 93.90596008300781 L 51.7686767578125 -1.52587890625e-05 Z" stroke="none" fill="#012b66"/>
          </g>
          <g id="Polygon_17-2" data-name="Polygon 17" transform="translate(61.144 289.325)" fill="none">
            <path d="M155.306,0l51.769,93.906-51.769,93.906H51.769L0,93.906,51.769,0Z" stroke="none"/>
            <path d="M 52.35928344726562 0.9999847412109375 L 1.141876220703125 93.90596008300781 L 52.35928344726562 186.8119049072266 L 154.7153778076172 186.8119049072266 L 205.9327545166016 93.90596008300781 L 154.7153778076172 0.9999847412109375 L 52.35928344726562 0.9999847412109375 M 51.7686767578125 -1.52587890625e-05 L 155.3059844970703 -1.52587890625e-05 L 207.0746459960938 93.90596008300781 L 155.3059844970703 187.8119049072266 L 51.7686767578125 187.8119049072266 L -1.52587890625e-05 93.90596008300781 L 51.7686767578125 -1.52587890625e-05 Z" stroke="none" fill="#00347b"/>
          </g>
          <g id="Path_20-2" data-name="Path 20" transform="translate(-20.303 385.77)" fill="#00214e">
            <path d="M 77.53989410400391 187.3119049072266 L 24.5601806640625 187.3119049072266 L 24.5601806640625 96.41962432861328 L 24.5601806640625 0.500007688999176 L 77.53989410400391 0.500007688999176 L 129.0328979492188 93.90596008300781 L 77.53989410400391 187.3119049072266 Z" stroke="none"/>
            <path d="M 25.0601806640625 1.000015258789062 L 25.0601806640625 186.8119049072266 L 77.24459838867188 186.8119049072266 L 128.4619598388672 93.90596008300781 L 77.24459838867188 1.000015258789062 L 25.0601806640625 1.000015258789062 M 24.0601806640625 1.52587890625e-05 L 77.835205078125 1.52587890625e-05 L 129.6038513183594 93.90596008300781 L 77.835205078125 187.8119049072266 L 20.30322265625 187.8119049072266 L 24.0601806640625 187.8119049072266 L 24.0601806640625 1.52587890625e-05 Z" stroke="none" fill="#00214e"/>
          </g>
          <g id="Path_21-2" data-name="Path 21" transform="translate(-20.303 192.883)" fill="#012d69">
            <path d="M 77.53989410400391 187.3119049072266 L 24.5601806640625 187.3119049072266 L 24.5601806640625 96.41962432861328 L 24.5601806640625 0.500007688999176 L 77.53989410400391 0.500007688999176 L 129.0328979492188 93.90596008300781 L 77.53989410400391 187.3119049072266 Z" stroke="none"/>
            <path d="M 25.0601806640625 1.000015258789062 L 25.0601806640625 186.8119049072266 L 77.24459838867188 186.8119049072266 L 128.4619598388672 93.90596008300781 L 77.24459838867188 1.000015258789062 L 25.0601806640625 1.000015258789062 M 24.0601806640625 1.52587890625e-05 L 77.835205078125 1.52587890625e-05 L 129.6038513183594 93.90596008300781 L 77.835205078125 187.8119049072266 L 20.30322265625 187.8119049072266 L 24.0601806640625 187.8119049072266 L 24.0601806640625 1.52587890625e-05 Z" stroke="none" fill="#012d69"/>
          </g>
          <g id="Polygon_19-2" data-name="Polygon 19" transform="translate(220.061 385.77)" fill="#00214e">
            <path d="M 155.0106811523438 187.3119354248047 L 52.06394958496094 187.3119354248047 L 0.5709598064422607 93.90596008300781 L 52.0639762878418 0.5000126957893372 L 155.0106811523438 0.5000126957893372 L 206.5037231445312 93.90596008300781 L 155.0106811523438 187.3119354248047 Z" stroke="none"/>
            <path d="M 52.35928344726562 0.9999847412109375 L 1.141876220703125 93.90596008300781 L 52.35928344726562 186.8119049072266 L 154.7153778076172 186.8119049072266 L 205.9327545166016 93.90596008300781 L 154.7153778076172 0.9999847412109375 L 52.35928344726562 0.9999847412109375 M 51.7686767578125 -1.52587890625e-05 L 155.3059844970703 -1.52587890625e-05 L 207.0746459960938 93.90596008300781 L 155.3059844970703 187.8119049072266 L 51.7686767578125 187.8119049072266 L -1.52587890625e-05 93.90596008300781 L 51.7686767578125 -1.52587890625e-05 Z" stroke="none" fill="#00214e"/>
          </g>
          <g id="Path_12-2" data-name="Path 12" transform="translate(61.144 479.676)" fill="#00347b">
            <path d="M 206.2280883789062 93.40595245361328 L 0.8466008305549622 93.40595245361328 L 52.0639762878418 0.500006377696991 L 155.0106811523438 0.500006377696991 L 206.2280883789062 93.40595245361328 Z" stroke="none"/>
            <path d="M 52.35928344726562 1.000007629394531 L 1.693161010742188 92.90595245361328 L 205.3814697265625 92.90595245361328 L 154.7153778076172 1.000007629394531 L 52.35928344726562 1.000007629394531 M 51.7686767578125 7.62939453125e-06 L 155.3059844970703 7.62939453125e-06 L 207.0746459960938 93.90595245361328 L -1.52587890625e-05 93.90595245361328 L 51.7686767578125 7.62939453125e-06 Z" stroke="none" fill="#00347b"/>
          </g>
          <g id="Path_13-2" data-name="Path 13" transform="translate(378.979 479.676)" fill="none">
            <path d="M155.306,0l51.769,93.906H0L51.769,0Z" stroke="none"/>
            <path d="M 52.35928344726562 1.000007629394531 L 1.693161010742188 92.90595245361328 L 205.3814697265625 92.90595245361328 L 154.7153778076172 1.000007629394531 L 52.35928344726562 1.000007629394531 M 51.7686767578125 7.62939453125e-06 L 155.3059844970703 7.62939453125e-06 L 207.0746459960938 93.90595245361328 L -1.52587890625e-05 93.90595245361328 L 51.7686767578125 7.62939453125e-06 Z" stroke="none" fill="#00347b"/>
          </g>
          <g id="Path_14-2" data-name="Path 14" transform="translate(696.815 479.676)" fill="#012d69">
            <path d="M 206.2280883789062 93.40595245361328 L 0.8466008305549622 93.40595245361328 L 52.0639762878418 0.500006377696991 L 155.0106811523438 0.500006377696991 L 206.2280883789062 93.40595245361328 Z" stroke="none"/>
            <path d="M 52.35928344726562 1.000007629394531 L 1.693161010742188 92.90595245361328 L 205.3814697265625 92.90595245361328 L 154.7153778076172 1.000007629394531 L 52.35928344726562 1.000007629394531 M 51.7686767578125 7.62939453125e-06 L 155.3059844970703 7.62939453125e-06 L 207.0746459960938 93.90595245361328 L -1.52587890625e-05 93.90595245361328 L 51.7686767578125 7.62939453125e-06 Z" stroke="none" fill="#01204a"/>
          </g>
          <g id="Path_15-2" data-name="Path 15" transform="translate(1014.65 479.676)" fill="#00214e">
            <path d="M 206.2280883789062 93.40595245361328 L 0.8466008305549622 93.40595245361328 L 52.0639762878418 0.500006377696991 L 155.0106811523438 0.500006377696991 L 206.2280883789062 93.40595245361328 Z" stroke="none"/>
            <path d="M 52.35928344726562 1.000007629394531 L 1.693161010742188 92.90595245361328 L 205.3814697265625 92.90595245361328 L 154.7153778076172 1.000007629394531 L 52.35928344726562 1.000007629394531 M 51.7686767578125 7.62939453125e-06 L 155.3059844970703 7.62939453125e-06 L 207.0746459960938 93.90595245361328 L -1.52587890625e-05 93.90595245361328 L 51.7686767578125 7.62939453125e-06 Z" stroke="none" fill="#00347b"/>
          </g>
          <g id="Path_16-2" data-name="Path 16" transform="translate(1332.486 479.676)" fill="#012d69">
            <path d="M 206.2280883789062 93.40595245361328 L 0.8466008305549622 93.40595245361328 L 52.0639762878418 0.500006377696991 L 155.0106811523438 0.500006377696991 L 206.2280883789062 93.40595245361328 Z" stroke="none"/>
            <path d="M 52.35928344726562 1.000007629394531 L 1.693161010742188 92.90595245361328 L 205.3814697265625 92.90595245361328 L 154.7153778076172 1.000007629394531 L 52.35928344726562 1.000007629394531 M 51.7686767578125 7.62939453125e-06 L 155.3059844970703 7.62939453125e-06 L 207.0746459960938 93.90595245361328 L -1.52587890625e-05 93.90595245361328 L 51.7686767578125 7.62939453125e-06 Z" stroke="none" fill="#012d69"/>
          </g>
          <g id="Path_19-2" data-name="Path 19" transform="translate(1650.321 482.084)" fill="none">
            <path d="M155.306,0l51.769,93.906H0L51.769,0Z" stroke="none"/>
            <path d="M 52.35928344726562 1.000007629394531 L 1.693161010742188 92.90595245361328 L 205.3814697265625 92.90595245361328 L 154.7153778076172 1.000007629394531 L 52.35928344726562 1.000007629394531 M 51.7686767578125 7.62939453125e-06 L 155.3059844970703 7.62939453125e-06 L 207.0746459960938 93.90595245361328 L -1.52587890625e-05 93.90595245361328 L 51.7686767578125 7.62939453125e-06 Z" stroke="none" fill="#00347b"/>
          </g>
          <g id="Polygon_21-2" data-name="Polygon 21" transform="translate(378.979 289.325)" fill="#00214e">
            <path d="M 155.0106811523438 187.3119354248047 L 52.06394958496094 187.3119354248047 L 0.5709598064422607 93.90596008300781 L 52.0639762878418 0.5000126957893372 L 155.0106811523438 0.5000126957893372 L 206.5037231445312 93.90596008300781 L 155.0106811523438 187.3119354248047 Z" stroke="none"/>
            <path d="M 52.35928344726562 0.9999847412109375 L 1.141876220703125 93.90596008300781 L 52.35928344726562 186.8119049072266 L 154.7153778076172 186.8119049072266 L 205.9327545166016 93.90596008300781 L 154.7153778076172 0.9999847412109375 L 52.35928344726562 0.9999847412109375 M 51.7686767578125 -1.52587890625e-05 L 155.3059844970703 -1.52587890625e-05 L 207.0746459960938 93.90596008300781 L 155.3059844970703 187.8119049072266 L 51.7686767578125 187.8119049072266 L -1.52587890625e-05 93.90596008300781 L 51.7686767578125 -1.52587890625e-05 Z" stroke="none" fill="#01204a"/>
          </g>
          <g id="Polygon_23-2" data-name="Polygon 23" transform="translate(537.897 385.77)" fill="rgba(2,83,196,0.18)">
            <path d="M 155.0106811523438 187.3119354248047 L 52.06394958496094 187.3119354248047 L 0.5709598064422607 93.90596008300781 L 52.0639762878418 0.5000126957893372 L 155.0106811523438 0.5000126957893372 L 206.5037231445312 93.90596008300781 L 155.0106811523438 187.3119354248047 Z" stroke="none"/>
            <path d="M 52.35928344726562 0.9999847412109375 L 1.141876220703125 93.90596008300781 L 52.35928344726562 186.8119049072266 L 154.7153778076172 186.8119049072266 L 205.9327545166016 93.90596008300781 L 154.7153778076172 0.9999847412109375 L 52.35928344726562 0.9999847412109375 M 51.7686767578125 -1.52587890625e-05 L 155.3059844970703 -1.52587890625e-05 L 207.0746459960938 93.90596008300781 L 155.3059844970703 187.8119049072266 L 51.7686767578125 187.8119049072266 L -1.52587890625e-05 93.90596008300781 L 51.7686767578125 -1.52587890625e-05 Z" stroke="none" fill="#012d69"/>
          </g>
          <g id="Polygon_24-2" data-name="Polygon 24" transform="translate(537.897 192.883)" fill="none">
            <path d="M155.306,0l51.769,93.906-51.769,93.906H51.769L0,93.906,51.769,0Z" stroke="none"/>
            <path d="M 52.35928344726562 0.9999847412109375 L 1.141876220703125 93.90596008300781 L 52.35928344726562 186.8119049072266 L 154.7153778076172 186.8119049072266 L 205.9327545166016 93.90596008300781 L 154.7153778076172 0.9999847412109375 L 52.35928344726562 0.9999847412109375 M 51.7686767578125 -1.52587890625e-05 L 155.3059844970703 -1.52587890625e-05 L 207.0746459960938 93.90596008300781 L 155.3059844970703 187.8119049072266 L 51.7686767578125 187.8119049072266 L -1.52587890625e-05 93.90596008300781 L 51.7686767578125 -1.52587890625e-05 Z" stroke="none" fill="#00347b"/>
          </g>
          <g id="Polygon_25-2" data-name="Polygon 25" transform="translate(696.815 289.325)" fill="#012d69">
            <path d="M 155.0106811523438 187.3119354248047 L 52.06394958496094 187.3119354248047 L 0.5709598064422607 93.90596008300781 L 52.0639762878418 0.5000126957893372 L 155.0106811523438 0.5000126957893372 L 206.5037231445312 93.90596008300781 L 155.0106811523438 187.3119354248047 Z" stroke="none"/>
            <path d="M 52.35928344726562 0.9999847412109375 L 1.141876220703125 93.90596008300781 L 52.35928344726562 186.8119049072266 L 154.7153778076172 186.8119049072266 L 205.9327545166016 93.90596008300781 L 154.7153778076172 0.9999847412109375 L 52.35928344726562 0.9999847412109375 M 51.7686767578125 -1.52587890625e-05 L 155.3059844970703 -1.52587890625e-05 L 207.0746459960938 93.90596008300781 L 155.3059844970703 187.8119049072266 L 51.7686767578125 187.8119049072266 L -1.52587890625e-05 93.90596008300781 L 51.7686767578125 -1.52587890625e-05 Z" stroke="none" fill="#01204a"/>
          </g>
          <g id="Polygon_27-2" data-name="Polygon 27" transform="translate(855.733 385.77)" fill="#00347b">
            <path d="M 155.0106811523438 187.3119354248047 L 52.06394958496094 187.3119354248047 L 0.5709598064422607 93.90596008300781 L 52.0639762878418 0.5000126957893372 L 155.0106811523438 0.5000126957893372 L 206.5037231445312 93.90596008300781 L 155.0106811523438 187.3119354248047 Z" stroke="none"/>
            <path d="M 52.35928344726562 0.9999847412109375 L 1.141876220703125 93.90596008300781 L 52.35928344726562 186.8119049072266 L 154.7153778076172 186.8119049072266 L 205.9327545166016 93.90596008300781 L 154.7153778076172 0.9999847412109375 L 52.35928344726562 0.9999847412109375 M 51.7686767578125 -1.52587890625e-05 L 155.3059844970703 -1.52587890625e-05 L 207.0746459960938 93.90596008300781 L 155.3059844970703 187.8119049072266 L 51.7686767578125 187.8119049072266 L -1.52587890625e-05 93.90596008300781 L 51.7686767578125 -1.52587890625e-05 Z" stroke="none" fill="#00347b"/>
          </g>
          <g id="Polygon_28-2" data-name="Polygon 28" transform="translate(1014.65 289.325)" fill="#00347b">
            <path d="M 155.0106811523438 187.3119354248047 L 52.06394958496094 187.3119354248047 L 0.5709598064422607 93.90596008300781 L 52.0639762878418 0.5000126957893372 L 155.0106811523438 0.5000126957893372 L 206.5037231445312 93.90596008300781 L 155.0106811523438 187.3119354248047 Z" stroke="none"/>
            <path d="M 52.35928344726562 0.9999847412109375 L 1.141876220703125 93.90596008300781 L 52.35928344726562 186.8119049072266 L 154.7153778076172 186.8119049072266 L 205.9327545166016 93.90596008300781 L 154.7153778076172 0.9999847412109375 L 52.35928344726562 0.9999847412109375 M 51.7686767578125 -1.52587890625e-05 L 155.3059844970703 -1.52587890625e-05 L 207.0746459960938 93.90596008300781 L 155.3059844970703 187.8119049072266 L 51.7686767578125 187.8119049072266 L -1.52587890625e-05 93.90596008300781 L 51.7686767578125 -1.52587890625e-05 Z" stroke="none" fill="#00347b"/>
          </g>
          <g id="Polygon_30-2" data-name="Polygon 30" transform="translate(1173.568 385.77)" fill="none">
            <path d="M155.306,0l51.769,93.906-51.769,93.906H51.769L0,93.906,51.769,0Z" stroke="none"/>
            <path d="M 52.35928344726562 0.9999847412109375 L 1.141876220703125 93.90596008300781 L 52.35928344726562 186.8119049072266 L 154.7153778076172 186.8119049072266 L 205.9327545166016 93.90596008300781 L 154.7153778076172 0.9999847412109375 L 52.35928344726562 0.9999847412109375 M 51.7686767578125 -1.52587890625e-05 L 155.3059844970703 -1.52587890625e-05 L 207.0746459960938 93.90596008300781 L 155.3059844970703 187.8119049072266 L 51.7686767578125 187.8119049072266 L -1.52587890625e-05 93.90596008300781 L 51.7686767578125 -1.52587890625e-05 Z" stroke="none" fill="#00347b"/>
          </g>
          <g id="Polygon_33-2" data-name="Polygon 33" transform="translate(1491.404 385.77)" fill="#012d69">
            <path d="M 155.0106811523438 187.3119354248047 L 52.06394958496094 187.3119354248047 L 0.5709598064422607 93.90596008300781 L 52.0639762878418 0.5000126957893372 L 155.0106811523438 0.5000126957893372 L 206.5037231445312 93.90596008300781 L 155.0106811523438 187.3119354248047 Z" stroke="none"/>
            <path d="M 52.35928344726562 0.9999847412109375 L 1.141876220703125 93.90596008300781 L 52.35928344726562 186.8119049072266 L 154.7153778076172 186.8119049072266 L 205.9327545166016 93.90596008300781 L 154.7153778076172 0.9999847412109375 L 52.35928344726562 0.9999847412109375 M 51.7686767578125 -1.52587890625e-05 L 155.3059844970703 -1.52587890625e-05 L 207.0746459960938 93.90596008300781 L 155.3059844970703 187.8119049072266 L 51.7686767578125 187.8119049072266 L -1.52587890625e-05 93.90596008300781 L 51.7686767578125 -1.52587890625e-05 Z" stroke="none" fill="#012d69"/>
          </g>
          <g id="Polygon_35-2" data-name="Polygon 35" transform="translate(1650.321 289.325)" fill="none">
            <path d="M155.306,0l51.769,93.906-51.769,93.906H51.769L0,93.906,51.769,0Z" stroke="none"/>
            <path d="M 52.35928344726562 0.9999847412109375 L 1.141876220703125 93.90596008300781 L 52.35928344726562 186.8119049072266 L 154.7153778076172 186.8119049072266 L 205.9327545166016 93.90596008300781 L 154.7153778076172 0.9999847412109375 L 52.35928344726562 0.9999847412109375 M 51.7686767578125 -1.52587890625e-05 L 155.3059844970703 -1.52587890625e-05 L 207.0746459960938 93.90596008300781 L 155.3059844970703 187.8119049072266 L 51.7686767578125 187.8119049072266 L -1.52587890625e-05 93.90596008300781 L 51.7686767578125 -1.52587890625e-05 Z" stroke="none" fill="#00347b"/>
          </g>
          <g id="Polygon_32-2" data-name="Polygon 32" transform="translate(1332.486 289.325)" fill="none">
            <path d="M155.306,0l51.769,93.906-51.769,93.906H51.769L0,93.906,51.769,0Z" stroke="none"/>
            <path d="M 52.35928344726562 0.9999847412109375 L 1.141876220703125 93.90596008300781 L 52.35928344726562 186.8119049072266 L 154.7153778076172 186.8119049072266 L 205.9327545166016 93.90596008300781 L 154.7153778076172 0.9999847412109375 L 52.35928344726562 0.9999847412109375 M 51.7686767578125 -1.52587890625e-05 L 155.3059844970703 -1.52587890625e-05 L 207.0746459960938 93.90596008300781 L 155.3059844970703 187.8119049072266 L 51.7686767578125 187.8119049072266 L -1.52587890625e-05 93.90596008300781 L 51.7686767578125 -1.52587890625e-05 Z" stroke="none" fill="#00347b"/>
          </g>
          <g id="Polygon_18-2" data-name="Polygon 18" transform="translate(220.061 192.883)" fill="none">
            <path d="M155.306,0l51.769,93.906-51.769,93.906H51.769L0,93.906,51.769,0Z" stroke="none"/>
            <path d="M 52.35928344726562 0.9999847412109375 L 1.141876220703125 93.90596008300781 L 52.35928344726562 186.8119049072266 L 154.7153778076172 186.8119049072266 L 205.9327545166016 93.90596008300781 L 154.7153778076172 0.9999847412109375 L 52.35928344726562 0.9999847412109375 M 51.7686767578125 -1.52587890625e-05 L 155.3059844970703 -1.52587890625e-05 L 207.0746459960938 93.90596008300781 L 155.3059844970703 187.8119049072266 L 51.7686767578125 187.8119049072266 L -1.52587890625e-05 93.90596008300781 L 51.7686767578125 -1.52587890625e-05 Z" stroke="none" fill="#00347b"/>
          </g>
          <g id="Polygon_34-2" data-name="Polygon 34" transform="translate(220.061)" fill="none">
            <path d="M155.306,0l51.769,93.906-51.769,93.906H51.769L0,93.906,51.769,0Z" stroke="none"/>
            <path d="M 52.35928344726562 0.9999847412109375 L 1.141876220703125 93.90596008300781 L 52.35928344726562 186.8119049072266 L 154.7153778076172 186.8119049072266 L 205.9327545166016 93.90596008300781 L 154.7153778076172 0.9999847412109375 L 52.35928344726562 0.9999847412109375 M 51.7686767578125 -1.52587890625e-05 L 155.3059844970703 -1.52587890625e-05 L 207.0746459960938 93.90596008300781 L 155.3059844970703 187.8119049072266 L 51.7686767578125 187.8119049072266 L -1.52587890625e-05 93.90596008300781 L 51.7686767578125 -1.52587890625e-05 Z" stroke="none" fill="#012b66"/>
          </g>
        </g>
      </g>
      <g id="Path_22-2" data-name="Path 22" transform="translate(1920 573.57) rotate(-180)" fill="#00214e">
        <path d="M 57.23667144775391 187.2939453125 L 4.256957054138184 187.2939453125 L 4.256957054138184 96.41037750244141 L 4.256957054138184 0.4999964535236359 L 57.23667144775391 0.4999964535236359 L 108.7296752929688 93.89697265625 L 57.23667144775391 187.2939453125 Z" stroke="none"/>
        <path d="M 4.7569580078125 1 L 4.7569580078125 186.7939453125 L 56.94138717651367 186.7939453125 L 108.1587219238281 93.89697265625 L 56.94138717651367 1 L 4.7569580078125 1 M 3.7569580078125 0 L 57.53195571899414 0 L 109.3006210327148 93.89697265625 L 57.53195571899414 187.7939453125 L 7.62939453125e-06 187.7939453125 L 3.7569580078125 187.7939453125 L 3.7569580078125 0 Z" stroke="none" fill="#00347b"/>
      </g>
      <g id="Path_23-2" data-name="Path 23" transform="translate(1920 380.652) rotate(-180)" fill="#012d69">
        <path d="M 57.23667144775391 187.2934722900391 L 4.256957054138184 187.2934722900391 L 4.256957054138184 96.41013336181641 L 4.256957054138184 0.5000142455101013 L 57.23667144775391 0.5000142455101013 L 108.7296752929688 93.896728515625 L 57.23667144775391 187.2934722900391 Z" stroke="none"/>
        <path d="M 4.7569580078125 0.9999847412109375 L 4.7569580078125 186.7934417724609 L 56.94138717651367 186.7934417724609 L 108.1587219238281 93.896728515625 L 56.94138717651367 0.9999847412109375 L 4.7569580078125 0.9999847412109375 M 3.7569580078125 -1.52587890625e-05 L 57.53195571899414 -1.52587890625e-05 L 109.3006210327148 93.896728515625 L 57.53195571899414 187.7934417724609 L 7.62939453125e-06 187.7934417724609 L 3.7569580078125 187.7934417724609 L 3.7569580078125 -1.52587890625e-05 Z" stroke="none" fill="#00214e"/>
      </g>
    </g>
    <g id="Group_146-3" data-name="Group 146" transform="translate(3824)">
      <g id="Group_94-5" data-name="Group 94" transform="translate(0 0)">
        <g id="Group_94-6" data-name="Group 94" transform="translate(0 0)">
          <g id="Polygon_15-3" data-name="Polygon 15" transform="translate(61.144 96.442)" fill="none">
            <path d="M155.306,0l51.769,93.906-51.769,93.906H51.769L0,93.906,51.769,0Z" stroke="none"/>
            <path d="M 52.35928344726562 0.9999847412109375 L 1.141876220703125 93.90596008300781 L 52.35928344726562 186.8119049072266 L 154.7153778076172 186.8119049072266 L 205.9327545166016 93.90596008300781 L 154.7153778076172 0.9999847412109375 L 52.35928344726562 0.9999847412109375 M 51.7686767578125 -1.52587890625e-05 L 155.3059844970703 -1.52587890625e-05 L 207.0746459960938 93.90596008300781 L 155.3059844970703 187.8119049072266 L 51.7686767578125 187.8119049072266 L -1.52587890625e-05 93.90596008300781 L 51.7686767578125 -1.52587890625e-05 Z" stroke="none" fill="#012b66"/>
          </g>
          <g id="Polygon_17-3" data-name="Polygon 17" transform="translate(61.144 289.325)" fill="none">
            <path d="M155.306,0l51.769,93.906-51.769,93.906H51.769L0,93.906,51.769,0Z" stroke="none"/>
            <path d="M 52.35928344726562 0.9999847412109375 L 1.141876220703125 93.90596008300781 L 52.35928344726562 186.8119049072266 L 154.7153778076172 186.8119049072266 L 205.9327545166016 93.90596008300781 L 154.7153778076172 0.9999847412109375 L 52.35928344726562 0.9999847412109375 M 51.7686767578125 -1.52587890625e-05 L 155.3059844970703 -1.52587890625e-05 L 207.0746459960938 93.90596008300781 L 155.3059844970703 187.8119049072266 L 51.7686767578125 187.8119049072266 L -1.52587890625e-05 93.90596008300781 L 51.7686767578125 -1.52587890625e-05 Z" stroke="none" fill="#00347b"/>
          </g>
          <g id="Path_20-3" data-name="Path 20" transform="translate(-20.303 385.77)" fill="#00214e">
            <path d="M 77.53989410400391 187.3119049072266 L 24.5601806640625 187.3119049072266 L 24.5601806640625 96.41962432861328 L 24.5601806640625 0.500007688999176 L 77.53989410400391 0.500007688999176 L 129.0328979492188 93.90596008300781 L 77.53989410400391 187.3119049072266 Z" stroke="none"/>
            <path d="M 25.0601806640625 1.000015258789062 L 25.0601806640625 186.8119049072266 L 77.24459838867188 186.8119049072266 L 128.4619598388672 93.90596008300781 L 77.24459838867188 1.000015258789062 L 25.0601806640625 1.000015258789062 M 24.0601806640625 1.52587890625e-05 L 77.835205078125 1.52587890625e-05 L 129.6038513183594 93.90596008300781 L 77.835205078125 187.8119049072266 L 20.30322265625 187.8119049072266 L 24.0601806640625 187.8119049072266 L 24.0601806640625 1.52587890625e-05 Z" stroke="none" fill="#00214e"/>
          </g>
          <g id="Path_21-3" data-name="Path 21" transform="translate(-20.303 192.883)" fill="#012d69">
            <path d="M 77.53989410400391 187.3119049072266 L 24.5601806640625 187.3119049072266 L 24.5601806640625 96.41962432861328 L 24.5601806640625 0.500007688999176 L 77.53989410400391 0.500007688999176 L 129.0328979492188 93.90596008300781 L 77.53989410400391 187.3119049072266 Z" stroke="none"/>
            <path d="M 25.0601806640625 1.000015258789062 L 25.0601806640625 186.8119049072266 L 77.24459838867188 186.8119049072266 L 128.4619598388672 93.90596008300781 L 77.24459838867188 1.000015258789062 L 25.0601806640625 1.000015258789062 M 24.0601806640625 1.52587890625e-05 L 77.835205078125 1.52587890625e-05 L 129.6038513183594 93.90596008300781 L 77.835205078125 187.8119049072266 L 20.30322265625 187.8119049072266 L 24.0601806640625 187.8119049072266 L 24.0601806640625 1.52587890625e-05 Z" stroke="none" fill="#012d69"/>
          </g>
          <g id="Polygon_19-3" data-name="Polygon 19" transform="translate(220.061 385.77)" fill="#00214e">
            <path d="M 155.0106811523438 187.3119354248047 L 52.06394958496094 187.3119354248047 L 0.5709598064422607 93.90596008300781 L 52.0639762878418 0.5000126957893372 L 155.0106811523438 0.5000126957893372 L 206.5037231445312 93.90596008300781 L 155.0106811523438 187.3119354248047 Z" stroke="none"/>
            <path d="M 52.35928344726562 0.9999847412109375 L 1.141876220703125 93.90596008300781 L 52.35928344726562 186.8119049072266 L 154.7153778076172 186.8119049072266 L 205.9327545166016 93.90596008300781 L 154.7153778076172 0.9999847412109375 L 52.35928344726562 0.9999847412109375 M 51.7686767578125 -1.52587890625e-05 L 155.3059844970703 -1.52587890625e-05 L 207.0746459960938 93.90596008300781 L 155.3059844970703 187.8119049072266 L 51.7686767578125 187.8119049072266 L -1.52587890625e-05 93.90596008300781 L 51.7686767578125 -1.52587890625e-05 Z" stroke="none" fill="#00214e"/>
          </g>
          <g id="Path_12-3" data-name="Path 12" transform="translate(61.144 479.676)" fill="#00347b">
            <path d="M 206.2280883789062 93.40595245361328 L 0.8466008305549622 93.40595245361328 L 52.0639762878418 0.500006377696991 L 155.0106811523438 0.500006377696991 L 206.2280883789062 93.40595245361328 Z" stroke="none"/>
            <path d="M 52.35928344726562 1.000007629394531 L 1.693161010742188 92.90595245361328 L 205.3814697265625 92.90595245361328 L 154.7153778076172 1.000007629394531 L 52.35928344726562 1.000007629394531 M 51.7686767578125 7.62939453125e-06 L 155.3059844970703 7.62939453125e-06 L 207.0746459960938 93.90595245361328 L -1.52587890625e-05 93.90595245361328 L 51.7686767578125 7.62939453125e-06 Z" stroke="none" fill="#00347b"/>
          </g>
          <g id="Path_13-3" data-name="Path 13" transform="translate(378.979 479.676)" fill="none">
            <path d="M155.306,0l51.769,93.906H0L51.769,0Z" stroke="none"/>
            <path d="M 52.35928344726562 1.000007629394531 L 1.693161010742188 92.90595245361328 L 205.3814697265625 92.90595245361328 L 154.7153778076172 1.000007629394531 L 52.35928344726562 1.000007629394531 M 51.7686767578125 7.62939453125e-06 L 155.3059844970703 7.62939453125e-06 L 207.0746459960938 93.90595245361328 L -1.52587890625e-05 93.90595245361328 L 51.7686767578125 7.62939453125e-06 Z" stroke="none" fill="#00347b"/>
          </g>
          <g id="Path_14-3" data-name="Path 14" transform="translate(696.815 479.676)" fill="#012d69">
            <path d="M 206.2280883789062 93.40595245361328 L 0.8466008305549622 93.40595245361328 L 52.0639762878418 0.500006377696991 L 155.0106811523438 0.500006377696991 L 206.2280883789062 93.40595245361328 Z" stroke="none"/>
            <path d="M 52.35928344726562 1.000007629394531 L 1.693161010742188 92.90595245361328 L 205.3814697265625 92.90595245361328 L 154.7153778076172 1.000007629394531 L 52.35928344726562 1.000007629394531 M 51.7686767578125 7.62939453125e-06 L 155.3059844970703 7.62939453125e-06 L 207.0746459960938 93.90595245361328 L -1.52587890625e-05 93.90595245361328 L 51.7686767578125 7.62939453125e-06 Z" stroke="none" fill="#01204a"/>
          </g>
          <g id="Path_15-3" data-name="Path 15" transform="translate(1014.65 479.676)" fill="#00214e">
            <path d="M 206.2280883789062 93.40595245361328 L 0.8466008305549622 93.40595245361328 L 52.0639762878418 0.500006377696991 L 155.0106811523438 0.500006377696991 L 206.2280883789062 93.40595245361328 Z" stroke="none"/>
            <path d="M 52.35928344726562 1.000007629394531 L 1.693161010742188 92.90595245361328 L 205.3814697265625 92.90595245361328 L 154.7153778076172 1.000007629394531 L 52.35928344726562 1.000007629394531 M 51.7686767578125 7.62939453125e-06 L 155.3059844970703 7.62939453125e-06 L 207.0746459960938 93.90595245361328 L -1.52587890625e-05 93.90595245361328 L 51.7686767578125 7.62939453125e-06 Z" stroke="none" fill="#00347b"/>
          </g>
          <g id="Path_16-3" data-name="Path 16" transform="translate(1332.486 479.676)" fill="#012d69">
            <path d="M 206.2280883789062 93.40595245361328 L 0.8466008305549622 93.40595245361328 L 52.0639762878418 0.500006377696991 L 155.0106811523438 0.500006377696991 L 206.2280883789062 93.40595245361328 Z" stroke="none"/>
            <path d="M 52.35928344726562 1.000007629394531 L 1.693161010742188 92.90595245361328 L 205.3814697265625 92.90595245361328 L 154.7153778076172 1.000007629394531 L 52.35928344726562 1.000007629394531 M 51.7686767578125 7.62939453125e-06 L 155.3059844970703 7.62939453125e-06 L 207.0746459960938 93.90595245361328 L -1.52587890625e-05 93.90595245361328 L 51.7686767578125 7.62939453125e-06 Z" stroke="none" fill="#012d69"/>
          </g>
          <g id="Path_19-3" data-name="Path 19" transform="translate(1650.321 482.084)" fill="none">
            <path d="M155.306,0l51.769,93.906H0L51.769,0Z" stroke="none"/>
            <path d="M 52.35928344726562 1.000007629394531 L 1.693161010742188 92.90595245361328 L 205.3814697265625 92.90595245361328 L 154.7153778076172 1.000007629394531 L 52.35928344726562 1.000007629394531 M 51.7686767578125 7.62939453125e-06 L 155.3059844970703 7.62939453125e-06 L 207.0746459960938 93.90595245361328 L -1.52587890625e-05 93.90595245361328 L 51.7686767578125 7.62939453125e-06 Z" stroke="none" fill="#00347b"/>
          </g>
          <g id="Polygon_21-3" data-name="Polygon 21" transform="translate(378.979 289.325)" fill="#00214e">
            <path d="M 155.0106811523438 187.3119354248047 L 52.06394958496094 187.3119354248047 L 0.5709598064422607 93.90596008300781 L 52.0639762878418 0.5000126957893372 L 155.0106811523438 0.5000126957893372 L 206.5037231445312 93.90596008300781 L 155.0106811523438 187.3119354248047 Z" stroke="none"/>
            <path d="M 52.35928344726562 0.9999847412109375 L 1.141876220703125 93.90596008300781 L 52.35928344726562 186.8119049072266 L 154.7153778076172 186.8119049072266 L 205.9327545166016 93.90596008300781 L 154.7153778076172 0.9999847412109375 L 52.35928344726562 0.9999847412109375 M 51.7686767578125 -1.52587890625e-05 L 155.3059844970703 -1.52587890625e-05 L 207.0746459960938 93.90596008300781 L 155.3059844970703 187.8119049072266 L 51.7686767578125 187.8119049072266 L -1.52587890625e-05 93.90596008300781 L 51.7686767578125 -1.52587890625e-05 Z" stroke="none" fill="#01204a"/>
          </g>
          <g id="Polygon_23-3" data-name="Polygon 23" transform="translate(537.897 385.77)" fill="rgba(2,83,196,0.18)">
            <path d="M 155.0106811523438 187.3119354248047 L 52.06394958496094 187.3119354248047 L 0.5709598064422607 93.90596008300781 L 52.0639762878418 0.5000126957893372 L 155.0106811523438 0.5000126957893372 L 206.5037231445312 93.90596008300781 L 155.0106811523438 187.3119354248047 Z" stroke="none"/>
            <path d="M 52.35928344726562 0.9999847412109375 L 1.141876220703125 93.90596008300781 L 52.35928344726562 186.8119049072266 L 154.7153778076172 186.8119049072266 L 205.9327545166016 93.90596008300781 L 154.7153778076172 0.9999847412109375 L 52.35928344726562 0.9999847412109375 M 51.7686767578125 -1.52587890625e-05 L 155.3059844970703 -1.52587890625e-05 L 207.0746459960938 93.90596008300781 L 155.3059844970703 187.8119049072266 L 51.7686767578125 187.8119049072266 L -1.52587890625e-05 93.90596008300781 L 51.7686767578125 -1.52587890625e-05 Z" stroke="none" fill="#012d69"/>
          </g>
          <g id="Polygon_24-3" data-name="Polygon 24" transform="translate(537.897 192.883)" fill="none">
            <path d="M155.306,0l51.769,93.906-51.769,93.906H51.769L0,93.906,51.769,0Z" stroke="none"/>
            <path d="M 52.35928344726562 0.9999847412109375 L 1.141876220703125 93.90596008300781 L 52.35928344726562 186.8119049072266 L 154.7153778076172 186.8119049072266 L 205.9327545166016 93.90596008300781 L 154.7153778076172 0.9999847412109375 L 52.35928344726562 0.9999847412109375 M 51.7686767578125 -1.52587890625e-05 L 155.3059844970703 -1.52587890625e-05 L 207.0746459960938 93.90596008300781 L 155.3059844970703 187.8119049072266 L 51.7686767578125 187.8119049072266 L -1.52587890625e-05 93.90596008300781 L 51.7686767578125 -1.52587890625e-05 Z" stroke="none" fill="#00347b"/>
          </g>
          <g id="Polygon_25-3" data-name="Polygon 25" transform="translate(696.815 289.325)" fill="#012d69">
            <path d="M 155.0106811523438 187.3119354248047 L 52.06394958496094 187.3119354248047 L 0.5709598064422607 93.90596008300781 L 52.0639762878418 0.5000126957893372 L 155.0106811523438 0.5000126957893372 L 206.5037231445312 93.90596008300781 L 155.0106811523438 187.3119354248047 Z" stroke="none"/>
            <path d="M 52.35928344726562 0.9999847412109375 L 1.141876220703125 93.90596008300781 L 52.35928344726562 186.8119049072266 L 154.7153778076172 186.8119049072266 L 205.9327545166016 93.90596008300781 L 154.7153778076172 0.9999847412109375 L 52.35928344726562 0.9999847412109375 M 51.7686767578125 -1.52587890625e-05 L 155.3059844970703 -1.52587890625e-05 L 207.0746459960938 93.90596008300781 L 155.3059844970703 187.8119049072266 L 51.7686767578125 187.8119049072266 L -1.52587890625e-05 93.90596008300781 L 51.7686767578125 -1.52587890625e-05 Z" stroke="none" fill="#01204a"/>
          </g>
          <g id="Polygon_27-3" data-name="Polygon 27" transform="translate(855.733 385.77)" fill="#00347b">
            <path d="M 155.0106811523438 187.3119354248047 L 52.06394958496094 187.3119354248047 L 0.5709598064422607 93.90596008300781 L 52.0639762878418 0.5000126957893372 L 155.0106811523438 0.5000126957893372 L 206.5037231445312 93.90596008300781 L 155.0106811523438 187.3119354248047 Z" stroke="none"/>
            <path d="M 52.35928344726562 0.9999847412109375 L 1.141876220703125 93.90596008300781 L 52.35928344726562 186.8119049072266 L 154.7153778076172 186.8119049072266 L 205.9327545166016 93.90596008300781 L 154.7153778076172 0.9999847412109375 L 52.35928344726562 0.9999847412109375 M 51.7686767578125 -1.52587890625e-05 L 155.3059844970703 -1.52587890625e-05 L 207.0746459960938 93.90596008300781 L 155.3059844970703 187.8119049072266 L 51.7686767578125 187.8119049072266 L -1.52587890625e-05 93.90596008300781 L 51.7686767578125 -1.52587890625e-05 Z" stroke="none" fill="#00347b"/>
          </g>
          <g id="Polygon_28-3" data-name="Polygon 28" transform="translate(1014.65 289.325)" fill="#00347b">
            <path d="M 155.0106811523438 187.3119354248047 L 52.06394958496094 187.3119354248047 L 0.5709598064422607 93.90596008300781 L 52.0639762878418 0.5000126957893372 L 155.0106811523438 0.5000126957893372 L 206.5037231445312 93.90596008300781 L 155.0106811523438 187.3119354248047 Z" stroke="none"/>
            <path d="M 52.35928344726562 0.9999847412109375 L 1.141876220703125 93.90596008300781 L 52.35928344726562 186.8119049072266 L 154.7153778076172 186.8119049072266 L 205.9327545166016 93.90596008300781 L 154.7153778076172 0.9999847412109375 L 52.35928344726562 0.9999847412109375 M 51.7686767578125 -1.52587890625e-05 L 155.3059844970703 -1.52587890625e-05 L 207.0746459960938 93.90596008300781 L 155.3059844970703 187.8119049072266 L 51.7686767578125 187.8119049072266 L -1.52587890625e-05 93.90596008300781 L 51.7686767578125 -1.52587890625e-05 Z" stroke="none" fill="#00347b"/>
          </g>
          <g id="Polygon_30-3" data-name="Polygon 30" transform="translate(1173.568 385.77)" fill="none">
            <path d="M155.306,0l51.769,93.906-51.769,93.906H51.769L0,93.906,51.769,0Z" stroke="none"/>
            <path d="M 52.35928344726562 0.9999847412109375 L 1.141876220703125 93.90596008300781 L 52.35928344726562 186.8119049072266 L 154.7153778076172 186.8119049072266 L 205.9327545166016 93.90596008300781 L 154.7153778076172 0.9999847412109375 L 52.35928344726562 0.9999847412109375 M 51.7686767578125 -1.52587890625e-05 L 155.3059844970703 -1.52587890625e-05 L 207.0746459960938 93.90596008300781 L 155.3059844970703 187.8119049072266 L 51.7686767578125 187.8119049072266 L -1.52587890625e-05 93.90596008300781 L 51.7686767578125 -1.52587890625e-05 Z" stroke="none" fill="#00347b"/>
          </g>
          <g id="Polygon_33-3" data-name="Polygon 33" transform="translate(1491.404 385.77)" fill="#012d69">
            <path d="M 155.0106811523438 187.3119354248047 L 52.06394958496094 187.3119354248047 L 0.5709598064422607 93.90596008300781 L 52.0639762878418 0.5000126957893372 L 155.0106811523438 0.5000126957893372 L 206.5037231445312 93.90596008300781 L 155.0106811523438 187.3119354248047 Z" stroke="none"/>
            <path d="M 52.35928344726562 0.9999847412109375 L 1.141876220703125 93.90596008300781 L 52.35928344726562 186.8119049072266 L 154.7153778076172 186.8119049072266 L 205.9327545166016 93.90596008300781 L 154.7153778076172 0.9999847412109375 L 52.35928344726562 0.9999847412109375 M 51.7686767578125 -1.52587890625e-05 L 155.3059844970703 -1.52587890625e-05 L 207.0746459960938 93.90596008300781 L 155.3059844970703 187.8119049072266 L 51.7686767578125 187.8119049072266 L -1.52587890625e-05 93.90596008300781 L 51.7686767578125 -1.52587890625e-05 Z" stroke="none" fill="#012d69"/>
          </g>
          <g id="Polygon_35-3" data-name="Polygon 35" transform="translate(1650.321 289.325)" fill="none">
            <path d="M155.306,0l51.769,93.906-51.769,93.906H51.769L0,93.906,51.769,0Z" stroke="none"/>
            <path d="M 52.35928344726562 0.9999847412109375 L 1.141876220703125 93.90596008300781 L 52.35928344726562 186.8119049072266 L 154.7153778076172 186.8119049072266 L 205.9327545166016 93.90596008300781 L 154.7153778076172 0.9999847412109375 L 52.35928344726562 0.9999847412109375 M 51.7686767578125 -1.52587890625e-05 L 155.3059844970703 -1.52587890625e-05 L 207.0746459960938 93.90596008300781 L 155.3059844970703 187.8119049072266 L 51.7686767578125 187.8119049072266 L -1.52587890625e-05 93.90596008300781 L 51.7686767578125 -1.52587890625e-05 Z" stroke="none" fill="#00347b"/>
          </g>
          <g id="Polygon_32-3" data-name="Polygon 32" transform="translate(1332.486 289.325)" fill="none">
            <path d="M155.306,0l51.769,93.906-51.769,93.906H51.769L0,93.906,51.769,0Z" stroke="none"/>
            <path d="M 52.35928344726562 0.9999847412109375 L 1.141876220703125 93.90596008300781 L 52.35928344726562 186.8119049072266 L 154.7153778076172 186.8119049072266 L 205.9327545166016 93.90596008300781 L 154.7153778076172 0.9999847412109375 L 52.35928344726562 0.9999847412109375 M 51.7686767578125 -1.52587890625e-05 L 155.3059844970703 -1.52587890625e-05 L 207.0746459960938 93.90596008300781 L 155.3059844970703 187.8119049072266 L 51.7686767578125 187.8119049072266 L -1.52587890625e-05 93.90596008300781 L 51.7686767578125 -1.52587890625e-05 Z" stroke="none" fill="#00347b"/>
          </g>
          <g id="Polygon_18-3" data-name="Polygon 18" transform="translate(220.061 192.883)" fill="none">
            <path d="M155.306,0l51.769,93.906-51.769,93.906H51.769L0,93.906,51.769,0Z" stroke="none"/>
            <path d="M 52.35928344726562 0.9999847412109375 L 1.141876220703125 93.90596008300781 L 52.35928344726562 186.8119049072266 L 154.7153778076172 186.8119049072266 L 205.9327545166016 93.90596008300781 L 154.7153778076172 0.9999847412109375 L 52.35928344726562 0.9999847412109375 M 51.7686767578125 -1.52587890625e-05 L 155.3059844970703 -1.52587890625e-05 L 207.0746459960938 93.90596008300781 L 155.3059844970703 187.8119049072266 L 51.7686767578125 187.8119049072266 L -1.52587890625e-05 93.90596008300781 L 51.7686767578125 -1.52587890625e-05 Z" stroke="none" fill="#00347b"/>
          </g>
          <g id="Polygon_34-3" data-name="Polygon 34" transform="translate(220.061)" fill="none">
            <path d="M155.306,0l51.769,93.906-51.769,93.906H51.769L0,93.906,51.769,0Z" stroke="none"/>
            <path d="M 52.35928344726562 0.9999847412109375 L 1.141876220703125 93.90596008300781 L 52.35928344726562 186.8119049072266 L 154.7153778076172 186.8119049072266 L 205.9327545166016 93.90596008300781 L 154.7153778076172 0.9999847412109375 L 52.35928344726562 0.9999847412109375 M 51.7686767578125 -1.52587890625e-05 L 155.3059844970703 -1.52587890625e-05 L 207.0746459960938 93.90596008300781 L 155.3059844970703 187.8119049072266 L 51.7686767578125 187.8119049072266 L -1.52587890625e-05 93.90596008300781 L 51.7686767578125 -1.52587890625e-05 Z" stroke="none" fill="#012b66"/>
          </g>
        </g>
      </g>
      <g id="Path_22-3" data-name="Path 22" transform="translate(1920 573.57) rotate(-180)" fill="#00214e">
        <path d="M 57.23667144775391 187.2939453125 L 4.256957054138184 187.2939453125 L 4.256957054138184 96.41037750244141 L 4.256957054138184 0.4999964535236359 L 57.23667144775391 0.4999964535236359 L 108.7296752929688 93.89697265625 L 57.23667144775391 187.2939453125 Z" stroke="none"/>
        <path d="M 4.7569580078125 1 L 4.7569580078125 186.7939453125 L 56.94138717651367 186.7939453125 L 108.1587219238281 93.89697265625 L 56.94138717651367 1 L 4.7569580078125 1 M 3.7569580078125 0 L 57.53195571899414 0 L 109.3006210327148 93.89697265625 L 57.53195571899414 187.7939453125 L 7.62939453125e-06 187.7939453125 L 3.7569580078125 187.7939453125 L 3.7569580078125 0 Z" stroke="none" fill="#00347b"/>
      </g>
      <g id="Path_23-3" data-name="Path 23" transform="translate(1920 380.652) rotate(-180)" fill="#012d69">
        <path d="M 57.23667144775391 187.2934722900391 L 4.256957054138184 187.2934722900391 L 4.256957054138184 96.41013336181641 L 4.256957054138184 0.5000142455101013 L 57.23667144775391 0.5000142455101013 L 108.7296752929688 93.896728515625 L 57.23667144775391 187.2934722900391 Z" stroke="none"/>
        <path d="M 4.7569580078125 0.9999847412109375 L 4.7569580078125 186.7934417724609 L 56.94138717651367 186.7934417724609 L 108.1587219238281 93.896728515625 L 56.94138717651367 0.9999847412109375 L 4.7569580078125 0.9999847412109375 M 3.7569580078125 -1.52587890625e-05 L 57.53195571899414 -1.52587890625e-05 L 109.3006210327148 93.896728515625 L 57.53195571899414 187.7934417724609 L 7.62939453125e-06 187.7934417724609 L 3.7569580078125 187.7934417724609 L 3.7569580078125 -1.52587890625e-05 Z" stroke="none" fill="#00214e"/>
      </g>
    </g>
  </g>
</svg>
