<svg xmlns="http://www.w3.org/2000/svg" width="1920" height="575.99" viewBox="0 0 1920 575.99"><g transform="translate(0 0)"><g transform="translate(0 0)"><g transform="translate(0 0)"><g transform="translate(61.144 96.442)" fill="none"><path d="M155.306,0l51.769,93.906-51.769,93.906H51.769L0,93.906,51.769,0Z" stroke="none"/><path d="M 52.35928344726562 0.9999847412109375 L 1.141876220703125 93.90596008300781 L 52.35928344726562 186.8119049072266 L 154.7153778076172 186.8119049072266 L 205.9327545166016 93.90596008300781 L 154.7153778076172 0.9999847412109375 L 52.35928344726562 0.9999847412109375 M 51.7686767578125 -1.52587890625e-05 L 155.3059844970703 -1.52587890625e-05 L 207.0746459960938 93.90596008300781 L 155.3059844970703 187.8119049072266 L 51.7686767578125 187.8119049072266 L -1.52587890625e-05 93.90596008300781 L 51.7686767578125 -1.52587890625e-05 Z" stroke="none" fill="#012b66"/></g><g transform="translate(61.144 289.325)" fill="none"><path d="M155.306,0l51.769,93.906-51.769,93.906H51.769L0,93.906,51.769,0Z" stroke="none"/><path d="M 52.35928344726562 0.9999847412109375 L 1.141876220703125 93.90596008300781 L 52.35928344726562 186.8119049072266 L 154.7153778076172 186.8119049072266 L 205.9327545166016 93.90596008300781 L 154.7153778076172 0.9999847412109375 L 52.35928344726562 0.9999847412109375 M 51.7686767578125 -1.52587890625e-05 L 155.3059844970703 -1.52587890625e-05 L 207.0746459960938 93.90596008300781 L 155.3059844970703 187.8119049072266 L 51.7686767578125 187.8119049072266 L -1.52587890625e-05 93.90596008300781 L 51.7686767578125 -1.52587890625e-05 Z" stroke="none" fill="#00347b"/></g><g transform="translate(-20.303 385.77)" fill="#00214e"><path d="M 77.53989410400391 187.3119049072266 L 24.5601806640625 187.3119049072266 L 24.5601806640625 96.41962432861328 L 24.5601806640625 0.500007688999176 L 77.53989410400391 0.500007688999176 L 129.0328979492188 93.90596008300781 L 77.53989410400391 187.3119049072266 Z" stroke="none"/><path d="M 25.0601806640625 1.000015258789062 L 25.0601806640625 186.8119049072266 L 77.24459838867188 186.8119049072266 L 128.4619598388672 93.90596008300781 L 77.24459838867188 1.000015258789062 L 25.0601806640625 1.000015258789062 M 24.0601806640625 1.52587890625e-05 L 77.835205078125 1.52587890625e-05 L 129.6038513183594 93.90596008300781 L 77.835205078125 187.8119049072266 L 20.30322265625 187.8119049072266 L 24.0601806640625 187.8119049072266 L 24.0601806640625 1.52587890625e-05 Z" stroke="none" fill="#00214e"/></g><g transform="translate(-20.303 192.883)" fill="#012d69"><path d="M 77.53989410400391 187.3119049072266 L 24.5601806640625 187.3119049072266 L 24.5601806640625 96.41962432861328 L 24.5601806640625 0.500007688999176 L 77.53989410400391 0.500007688999176 L 129.0328979492188 93.90596008300781 L 77.53989410400391 187.3119049072266 Z" stroke="none"/><path d="M 25.0601806640625 1.000015258789062 L 25.0601806640625 186.8119049072266 L 77.24459838867188 186.8119049072266 L 128.4619598388672 93.90596008300781 L 77.24459838867188 1.000015258789062 L 25.0601806640625 1.000015258789062 M 24.0601806640625 1.52587890625e-05 L 77.835205078125 1.52587890625e-05 L 129.6038513183594 93.90596008300781 L 77.835205078125 187.8119049072266 L 20.30322265625 187.8119049072266 L 24.0601806640625 187.8119049072266 L 24.0601806640625 1.52587890625e-05 Z" stroke="none" fill="#012d69"/></g><g transform="translate(220.061 385.77)" fill="#00214e"><path d="M 155.0106811523438 187.3119354248047 L 52.06394958496094 187.3119354248047 L 0.5709598064422607 93.90596008300781 L 52.0639762878418 0.5000126957893372 L 155.0106811523438 0.5000126957893372 L 206.5037231445312 93.90596008300781 L 155.0106811523438 187.3119354248047 Z" stroke="none"/><path d="M 52.35928344726562 0.9999847412109375 L 1.141876220703125 93.90596008300781 L 52.35928344726562 186.8119049072266 L 154.7153778076172 186.8119049072266 L 205.9327545166016 93.90596008300781 L 154.7153778076172 0.9999847412109375 L 52.35928344726562 0.9999847412109375 M 51.7686767578125 -1.52587890625e-05 L 155.3059844970703 -1.52587890625e-05 L 207.0746459960938 93.90596008300781 L 155.3059844970703 187.8119049072266 L 51.7686767578125 187.8119049072266 L -1.52587890625e-05 93.90596008300781 L 51.7686767578125 -1.52587890625e-05 Z" stroke="none" fill="#00214e"/></g><g transform="translate(61.144 479.676)" fill="#00347b"><path d="M 206.2280883789062 93.40595245361328 L 0.8466008305549622 93.40595245361328 L 52.0639762878418 0.500006377696991 L 155.0106811523438 0.500006377696991 L 206.2280883789062 93.40595245361328 Z" stroke="none"/><path d="M 52.35928344726562 1.000007629394531 L 1.693161010742188 92.90595245361328 L 205.3814697265625 92.90595245361328 L 154.7153778076172 1.000007629394531 L 52.35928344726562 1.000007629394531 M 51.7686767578125 7.62939453125e-06 L 155.3059844970703 7.62939453125e-06 L 207.0746459960938 93.90595245361328 L -1.52587890625e-05 93.90595245361328 L 51.7686767578125 7.62939453125e-06 Z" stroke="none" fill="#00347b"/></g><g transform="translate(378.979 479.676)" fill="none"><path d="M155.306,0l51.769,93.906H0L51.769,0Z" stroke="none"/><path d="M 52.35928344726562 1.000007629394531 L 1.693161010742188 92.90595245361328 L 205.3814697265625 92.90595245361328 L 154.7153778076172 1.000007629394531 L 52.35928344726562 1.000007629394531 M 51.7686767578125 7.62939453125e-06 L 155.3059844970703 7.62939453125e-06 L 207.0746459960938 93.90595245361328 L -1.52587890625e-05 93.90595245361328 L 51.7686767578125 7.62939453125e-06 Z" stroke="none" fill="#00347b"/></g><g transform="translate(696.815 479.676)" fill="#012d69"><path d="M 206.2280883789062 93.40595245361328 L 0.8466008305549622 93.40595245361328 L 52.0639762878418 0.500006377696991 L 155.0106811523438 0.500006377696991 L 206.2280883789062 93.40595245361328 Z" stroke="none"/><path d="M 52.35928344726562 1.000007629394531 L 1.693161010742188 92.90595245361328 L 205.3814697265625 92.90595245361328 L 154.7153778076172 1.000007629394531 L 52.35928344726562 1.000007629394531 M 51.7686767578125 7.62939453125e-06 L 155.3059844970703 7.62939453125e-06 L 207.0746459960938 93.90595245361328 L -1.52587890625e-05 93.90595245361328 L 51.7686767578125 7.62939453125e-06 Z" stroke="none" fill="#01204a"/></g><g transform="translate(1014.65 479.676)" fill="#00214e"><path d="M 206.2280883789062 93.40595245361328 L 0.8466008305549622 93.40595245361328 L 52.0639762878418 0.500006377696991 L 155.0106811523438 0.500006377696991 L 206.2280883789062 93.40595245361328 Z" stroke="none"/><path d="M 52.35928344726562 1.000007629394531 L 1.693161010742188 92.90595245361328 L 205.3814697265625 92.90595245361328 L 154.7153778076172 1.000007629394531 L 52.35928344726562 1.000007629394531 M 51.7686767578125 7.62939453125e-06 L 155.3059844970703 7.62939453125e-06 L 207.0746459960938 93.90595245361328 L -1.52587890625e-05 93.90595245361328 L 51.7686767578125 7.62939453125e-06 Z" stroke="none" fill="#00347b"/></g><g transform="translate(1332.486 479.676)" fill="#012d69"><path d="M 206.2280883789062 93.40595245361328 L 0.8466008305549622 93.40595245361328 L 52.0639762878418 0.500006377696991 L 155.0106811523438 0.500006377696991 L 206.2280883789062 93.40595245361328 Z" stroke="none"/><path d="M 52.35928344726562 1.000007629394531 L 1.693161010742188 92.90595245361328 L 205.3814697265625 92.90595245361328 L 154.7153778076172 1.000007629394531 L 52.35928344726562 1.000007629394531 M 51.7686767578125 7.62939453125e-06 L 155.3059844970703 7.62939453125e-06 L 207.0746459960938 93.90595245361328 L -1.52587890625e-05 93.90595245361328 L 51.7686767578125 7.62939453125e-06 Z" stroke="none" fill="#012d69"/></g><g transform="translate(1650.321 482.084)" fill="none"><path d="M155.306,0l51.769,93.906H0L51.769,0Z" stroke="none"/><path d="M 52.35928344726562 1.000007629394531 L 1.693161010742188 92.90595245361328 L 205.3814697265625 92.90595245361328 L 154.7153778076172 1.000007629394531 L 52.35928344726562 1.000007629394531 M 51.7686767578125 7.62939453125e-06 L 155.3059844970703 7.62939453125e-06 L 207.0746459960938 93.90595245361328 L -1.52587890625e-05 93.90595245361328 L 51.7686767578125 7.62939453125e-06 Z" stroke="none" fill="#00347b"/></g><g transform="translate(378.979 289.325)" fill="#00214e"><path d="M 155.0106811523438 187.3119354248047 L 52.06394958496094 187.3119354248047 L 0.5709598064422607 93.90596008300781 L 52.0639762878418 0.5000126957893372 L 155.0106811523438 0.5000126957893372 L 206.5037231445312 93.90596008300781 L 155.0106811523438 187.3119354248047 Z" stroke="none"/><path d="M 52.35928344726562 0.9999847412109375 L 1.141876220703125 93.90596008300781 L 52.35928344726562 186.8119049072266 L 154.7153778076172 186.8119049072266 L 205.9327545166016 93.90596008300781 L 154.7153778076172 0.9999847412109375 L 52.35928344726562 0.9999847412109375 M 51.7686767578125 -1.52587890625e-05 L 155.3059844970703 -1.52587890625e-05 L 207.0746459960938 93.90596008300781 L 155.3059844970703 187.8119049072266 L 51.7686767578125 187.8119049072266 L -1.52587890625e-05 93.90596008300781 L 51.7686767578125 -1.52587890625e-05 Z" stroke="none" fill="#01204a"/></g><g transform="translate(537.897 385.77)" fill="rgba(2,83,196,0.18)"><path d="M 155.0106811523438 187.3119354248047 L 52.06394958496094 187.3119354248047 L 0.5709598064422607 93.90596008300781 L 52.0639762878418 0.5000126957893372 L 155.0106811523438 0.5000126957893372 L 206.5037231445312 93.90596008300781 L 155.0106811523438 187.3119354248047 Z" stroke="none"/><path d="M 52.35928344726562 0.9999847412109375 L 1.141876220703125 93.90596008300781 L 52.35928344726562 186.8119049072266 L 154.7153778076172 186.8119049072266 L 205.9327545166016 93.90596008300781 L 154.7153778076172 0.9999847412109375 L 52.35928344726562 0.9999847412109375 M 51.7686767578125 -1.52587890625e-05 L 155.3059844970703 -1.52587890625e-05 L 207.0746459960938 93.90596008300781 L 155.3059844970703 187.8119049072266 L 51.7686767578125 187.8119049072266 L -1.52587890625e-05 93.90596008300781 L 51.7686767578125 -1.52587890625e-05 Z" stroke="none" fill="#012d69"/></g><g transform="translate(537.897 192.883)" fill="none"><path d="M155.306,0l51.769,93.906-51.769,93.906H51.769L0,93.906,51.769,0Z" stroke="none"/><path d="M 52.35928344726562 0.9999847412109375 L 1.141876220703125 93.90596008300781 L 52.35928344726562 186.8119049072266 L 154.7153778076172 186.8119049072266 L 205.9327545166016 93.90596008300781 L 154.7153778076172 0.9999847412109375 L 52.35928344726562 0.9999847412109375 M 51.7686767578125 -1.52587890625e-05 L 155.3059844970703 -1.52587890625e-05 L 207.0746459960938 93.90596008300781 L 155.3059844970703 187.8119049072266 L 51.7686767578125 187.8119049072266 L -1.52587890625e-05 93.90596008300781 L 51.7686767578125 -1.52587890625e-05 Z" stroke="none" fill="#00347b"/></g><g transform="translate(696.815 289.325)" fill="#012d69"><path d="M 155.0106811523438 187.3119354248047 L 52.06394958496094 187.3119354248047 L 0.5709598064422607 93.90596008300781 L 52.0639762878418 0.5000126957893372 L 155.0106811523438 0.5000126957893372 L 206.5037231445312 93.90596008300781 L 155.0106811523438 187.3119354248047 Z" stroke="none"/><path d="M 52.35928344726562 0.9999847412109375 L 1.141876220703125 93.90596008300781 L 52.35928344726562 186.8119049072266 L 154.7153778076172 186.8119049072266 L 205.9327545166016 93.90596008300781 L 154.7153778076172 0.9999847412109375 L 52.35928344726562 0.9999847412109375 M 51.7686767578125 -1.52587890625e-05 L 155.3059844970703 -1.52587890625e-05 L 207.0746459960938 93.90596008300781 L 155.3059844970703 187.8119049072266 L 51.7686767578125 187.8119049072266 L -1.52587890625e-05 93.90596008300781 L 51.7686767578125 -1.52587890625e-05 Z" stroke="none" fill="#01204a"/></g><g transform="translate(855.733 385.77)" fill="#00347b"><path d="M 155.0106811523438 187.3119354248047 L 52.06394958496094 187.3119354248047 L 0.5709598064422607 93.90596008300781 L 52.0639762878418 0.5000126957893372 L 155.0106811523438 0.5000126957893372 L 206.5037231445312 93.90596008300781 L 155.0106811523438 187.3119354248047 Z" stroke="none"/><path d="M 52.35928344726562 0.9999847412109375 L 1.141876220703125 93.90596008300781 L 52.35928344726562 186.8119049072266 L 154.7153778076172 186.8119049072266 L 205.9327545166016 93.90596008300781 L 154.7153778076172 0.9999847412109375 L 52.35928344726562 0.9999847412109375 M 51.7686767578125 -1.52587890625e-05 L 155.3059844970703 -1.52587890625e-05 L 207.0746459960938 93.90596008300781 L 155.3059844970703 187.8119049072266 L 51.7686767578125 187.8119049072266 L -1.52587890625e-05 93.90596008300781 L 51.7686767578125 -1.52587890625e-05 Z" stroke="none" fill="#00347b"/></g><g transform="translate(1014.65 289.325)" fill="#00347b"><path d="M 155.0106811523438 187.3119354248047 L 52.06394958496094 187.3119354248047 L 0.5709598064422607 93.90596008300781 L 52.0639762878418 0.5000126957893372 L 155.0106811523438 0.5000126957893372 L 206.5037231445312 93.90596008300781 L 155.0106811523438 187.3119354248047 Z" stroke="none"/><path d="M 52.35928344726562 0.9999847412109375 L 1.141876220703125 93.90596008300781 L 52.35928344726562 186.8119049072266 L 154.7153778076172 186.8119049072266 L 205.9327545166016 93.90596008300781 L 154.7153778076172 0.9999847412109375 L 52.35928344726562 0.9999847412109375 M 51.7686767578125 -1.52587890625e-05 L 155.3059844970703 -1.52587890625e-05 L 207.0746459960938 93.90596008300781 L 155.3059844970703 187.8119049072266 L 51.7686767578125 187.8119049072266 L -1.52587890625e-05 93.90596008300781 L 51.7686767578125 -1.52587890625e-05 Z" stroke="none" fill="#00347b"/></g><g transform="translate(1173.568 385.77)" fill="none"><path d="M155.306,0l51.769,93.906-51.769,93.906H51.769L0,93.906,51.769,0Z" stroke="none"/><path d="M 52.35928344726562 0.9999847412109375 L 1.141876220703125 93.90596008300781 L 52.35928344726562 186.8119049072266 L 154.7153778076172 186.8119049072266 L 205.9327545166016 93.90596008300781 L 154.7153778076172 0.9999847412109375 L 52.35928344726562 0.9999847412109375 M 51.7686767578125 -1.52587890625e-05 L 155.3059844970703 -1.52587890625e-05 L 207.0746459960938 93.90596008300781 L 155.3059844970703 187.8119049072266 L 51.7686767578125 187.8119049072266 L -1.52587890625e-05 93.90596008300781 L 51.7686767578125 -1.52587890625e-05 Z" stroke="none" fill="#00347b"/></g><g transform="translate(1491.404 385.77)" fill="#012d69"><path d="M 155.0106811523438 187.3119354248047 L 52.06394958496094 187.3119354248047 L 0.5709598064422607 93.90596008300781 L 52.0639762878418 0.5000126957893372 L 155.0106811523438 0.5000126957893372 L 206.5037231445312 93.90596008300781 L 155.0106811523438 187.3119354248047 Z" stroke="none"/><path d="M 52.35928344726562 0.9999847412109375 L 1.141876220703125 93.90596008300781 L 52.35928344726562 186.8119049072266 L 154.7153778076172 186.8119049072266 L 205.9327545166016 93.90596008300781 L 154.7153778076172 0.9999847412109375 L 52.35928344726562 0.9999847412109375 M 51.7686767578125 -1.52587890625e-05 L 155.3059844970703 -1.52587890625e-05 L 207.0746459960938 93.90596008300781 L 155.3059844970703 187.8119049072266 L 51.7686767578125 187.8119049072266 L -1.52587890625e-05 93.90596008300781 L 51.7686767578125 -1.52587890625e-05 Z" stroke="none" fill="#012d69"/></g><g transform="translate(1650.321 289.325)" fill="none"><path d="M155.306,0l51.769,93.906-51.769,93.906H51.769L0,93.906,51.769,0Z" stroke="none"/><path d="M 52.35928344726562 0.9999847412109375 L 1.141876220703125 93.90596008300781 L 52.35928344726562 186.8119049072266 L 154.7153778076172 186.8119049072266 L 205.9327545166016 93.90596008300781 L 154.7153778076172 0.9999847412109375 L 52.35928344726562 0.9999847412109375 M 51.7686767578125 -1.52587890625e-05 L 155.3059844970703 -1.52587890625e-05 L 207.0746459960938 93.90596008300781 L 155.3059844970703 187.8119049072266 L 51.7686767578125 187.8119049072266 L -1.52587890625e-05 93.90596008300781 L 51.7686767578125 -1.52587890625e-05 Z" stroke="none" fill="#00347b"/></g><g transform="translate(1332.486 289.325)" fill="none"><path d="M155.306,0l51.769,93.906-51.769,93.906H51.769L0,93.906,51.769,0Z" stroke="none"/><path d="M 52.35928344726562 0.9999847412109375 L 1.141876220703125 93.90596008300781 L 52.35928344726562 186.8119049072266 L 154.7153778076172 186.8119049072266 L 205.9327545166016 93.90596008300781 L 154.7153778076172 0.9999847412109375 L 52.35928344726562 0.9999847412109375 M 51.7686767578125 -1.52587890625e-05 L 155.3059844970703 -1.52587890625e-05 L 207.0746459960938 93.90596008300781 L 155.3059844970703 187.8119049072266 L 51.7686767578125 187.8119049072266 L -1.52587890625e-05 93.90596008300781 L 51.7686767578125 -1.52587890625e-05 Z" stroke="none" fill="#00347b"/></g><g transform="translate(220.061 192.883)" fill="none"><path d="M155.306,0l51.769,93.906-51.769,93.906H51.769L0,93.906,51.769,0Z" stroke="none"/><path d="M 52.35928344726562 0.9999847412109375 L 1.141876220703125 93.90596008300781 L 52.35928344726562 186.8119049072266 L 154.7153778076172 186.8119049072266 L 205.9327545166016 93.90596008300781 L 154.7153778076172 0.9999847412109375 L 52.35928344726562 0.9999847412109375 M 51.7686767578125 -1.52587890625e-05 L 155.3059844970703 -1.52587890625e-05 L 207.0746459960938 93.90596008300781 L 155.3059844970703 187.8119049072266 L 51.7686767578125 187.8119049072266 L -1.52587890625e-05 93.90596008300781 L 51.7686767578125 -1.52587890625e-05 Z" stroke="none" fill="#00347b"/></g><g transform="translate(220.061)" fill="none"><path d="M155.306,0l51.769,93.906-51.769,93.906H51.769L0,93.906,51.769,0Z" stroke="none"/><path d="M 52.35928344726562 0.9999847412109375 L 1.141876220703125 93.90596008300781 L 52.35928344726562 186.8119049072266 L 154.7153778076172 186.8119049072266 L 205.9327545166016 93.90596008300781 L 154.7153778076172 0.9999847412109375 L 52.35928344726562 0.9999847412109375 M 51.7686767578125 -1.52587890625e-05 L 155.3059844970703 -1.52587890625e-05 L 207.0746459960938 93.90596008300781 L 155.3059844970703 187.8119049072266 L 51.7686767578125 187.8119049072266 L -1.52587890625e-05 93.90596008300781 L 51.7686767578125 -1.52587890625e-05 Z" stroke="none" fill="#012b66"/></g></g></g><g transform="translate(1920 572.054) rotate(-180)" fill="#00347b"><path d="M 57.23664855957031 187.3119049072266 L 4.256957054138184 187.3119049072266 L 4.256957054138184 96.41962432861328 L 4.256957054138184 0.500007688999176 L 57.23664855957031 0.500007688999176 L 108.7296752929688 93.90596008300781 L 57.23664855957031 187.3119049072266 Z" stroke="none"/><path d="M 4.7569580078125 1.000015258789062 L 4.7569580078125 186.8119049072266 L 56.94134902954102 186.8119049072266 L 108.1587371826172 93.90596008300781 L 56.94134902954102 1.000015258789062 L 4.7569580078125 1.000015258789062 M 3.7569580078125 1.52587890625e-05 L 57.53195571899414 1.52587890625e-05 L 109.3006210327148 93.90596008300781 L 57.53195571899414 187.8119049072266 L 7.62939453125e-06 187.8119049072266 L 3.7569580078125 187.8119049072266 L 3.7569580078125 1.52587890625e-05 Z" stroke="none" fill="#00347b"/></g><g transform="translate(1920 380.371) rotate(-180)" fill="#00214e"><path d="M 57.23664855957031 187.3119049072266 L 4.256957054138184 187.3119049072266 L 4.256957054138184 96.41962432861328 L 4.256957054138184 0.500007688999176 L 57.23664855957031 0.500007688999176 L 108.7296752929688 93.90596008300781 L 57.23664855957031 187.3119049072266 Z" stroke="none"/><path d="M 4.7569580078125 1.000015258789062 L 4.7569580078125 186.8119049072266 L 56.94134902954102 186.8119049072266 L 108.1587371826172 93.90596008300781 L 56.94134902954102 1.000015258789062 L 4.7569580078125 1.000015258789062 M 3.7569580078125 1.52587890625e-05 L 57.53195571899414 1.52587890625e-05 L 109.3006210327148 93.90596008300781 L 57.53195571899414 187.8119049072266 L 7.62939453125e-06 187.8119049072266 L 3.7569580078125 187.8119049072266 L 3.7569580078125 1.52587890625e-05 Z" stroke="none" fill="#00214e"/></g></g></svg>