<?xml version="1.0" encoding="utf-8"?>
<!-- Generator: Adobe Illustrator 26.0.2, SVG Export Plug-In . SVG Version: 6.00 Build 0)  -->
<svg version="1.1" id="Layer_1" xmlns="http://www.w3.org/2000/svg" xmlns:xlink="http://www.w3.org/1999/xlink" x="0px" y="0px"
	 viewBox="0 0 907 751.2" style="enable-background:new 0 0 907 751.2;" xml:space="preserve">
<style type="text/css">
	.st0{fill:url(#SVGID_1_);}
	.st1{fill:url(#SVGID_00000041273872906047552630000016294383529194014084_);}
	.st2{fill:url(#SVGID_00000088092893457286099350000005361098052983437205_);}
	.st3{fill:url(#SVGID_00000167374435138247834110000016718873088334596026_);}
	.st4{fill:#011839;}
	.st5{fill:#012B66;}
	.st6{fill:url(#SVGID_00000061430731239399596470000012327308688716411561_);}
	.st7{fill:url(#SVGID_00000138555605684612106570000004498978212814209436_);}
	.st8{fill:#011633;}
	.st9{fill:#01214F;}
	.st10{fill:#E66E67;}
	.st11{fill:#011F4A;}
	.st12{fill:#012558;}
	.st13{fill:#01204C;}
	.st14{fill:#F7F6F5;}
	.st15{fill:#011B3F;}
	.st16{fill:url(#SVGID_00000078740931339032818680000004161002164326238098_);}
	.st17{fill:url(#SVGID_00000141439656446288521300000004479608474815978413_);}
	.st18{fill:url(#SVGID_00000012467533055324719180000005092413903362811300_);}
	.st19{fill:url(#SVGID_00000077307703043707905820000005596881274275047348_);}
	.st20{fill:#011F48;}
	.st21{fill:#011D45;}
	.st22{fill:#0253C4;}
	.st23{font-family:'ProximaNovaExCn-Extrabld';}
	.st24{font-size:56.5415px;}
	.st25{fill:#FF7A72;}
	.st26{fill:none;stroke:#FF7A72;stroke-width:2;stroke-miterlimit:10;}
</style>
<g transform="translate(0 0)">
	
		<linearGradient id="SVGID_1_" gradientUnits="userSpaceOnUse" x1="-0.8874" y1="415.6527" x2="0.5581" y2="415.6163" gradientTransform="matrix(284.5809 0 0 -154.905 283.5809 64919.3438)">
		<stop  offset="0" style="stop-color:#012B66"/>
		<stop  offset="1" style="stop-color:#011633"/>
	</linearGradient>
	<path class="st0" d="M58.3,497.7c0-0.8,0.2-1.4,0.2-1.9c1.1-0.5,1.6-1.7,1.1-2.8c0-0.1-0.1-0.2-0.2-0.3c0-0.5,0-0.9,0.2-1.4
		c1.2-0.6,1.8-2.1,1.1-3.4c-0.1-0.1-0.1-0.2-0.2-0.3c0.2-0.9,0.2-1.8,0.2-2.7c2.6-4.2,4.2-8.9,4.8-13.7h0.2c2.2-1.7,4.2-3.6,6-5.8
		c2-2.2,4.8-3.6,7.7-4.1c2.9-1.1,6.2-0.6,8.7,1.4c1,1.3,2.6,2.1,4.3,1.9c-1.2-4.1-0.8-5,3.7-5.2c3.5-0.1,6.9-0.8,10.1-2.1
		c4.8-2.1,10.3-1.2,15.1-4.6s11.4-4.5,17.2-6.6l19.9-7.7c7.1-2.5,13.8-5.9,20.1-9.9c5.4-3.5,12-5,18-7.5c1-0.4,2-0.7,3.4-1.2
		c3.9-1.3,8-2.4,12.1-3.2c6.4-1.5,13.2-1.7,19.5-4.5c3.2-1.3,6.6-2.2,10.1-2.7c4.6-1.4,9.7-1.5,14.3-2.9c4.6-1.2,9.4-2.1,14.1-2.5
		c6.8-1,13.9-1.5,20.9-2.3c2.3-0.4,5,0.4,7.4-1.2c1.3-0.4,2.7-0.4,4.1-0.2c4.6,1.4,8.9,4.8,13.9,1.2h1.2c4.7-0.4,9.2-1.9,13.2-4.5
		c7.1-3.7,13.7-8.2,19.7-13.4c1.5-1.5,1.7-6.8-0.4-8.1V374c-0.3-5-1.5-10-3.7-14.5v-3.7c0.2-0.4,0.8-0.6,0.8-1c0-0.4,1-3.5-1.2-5
		c-2.1-1.5,0.2-4.1-1.7-5.6c-1.9-1.5-0.2-1.2-0.2-1.9c0-0.8,0.6-0.8,0.4-1c0.1-4.6-0.5-9.2-1.9-13.5c-1.7-4.3,0-5-2.1-6.6
		s-1.4-1-0.8-1.9c0.6-1,0-1.4,1-1.2c0.8,0.2,1.5,0.8,1.7,1.5c2.7,5.6,6.4,10.4,8.3,16.4s3.7,7.7,4.3,11.8c0.6,4.1,2.7,5.2,3.1,8.1
		c0,2.2,1.1,4.3,2.9,5.6c1.7,1,3.3,5.4,5.6,7.5c1.1,1,1.7,2.5,1.5,4.1c-0.1,1.6,0.5,3.1,1.5,4.3c1.5,2.5,4.1,4.5,4.1,7.7
		c0.4,1.1,0.8,2.1,1.4,3.1c1,1.7,1.9,1.9,3.1,0.4c1.3-2.7,0.8-5.9-1.2-8.1c-0.8-0.8-1.7-1.4-0.8-2.3c1-1,1-7.9,3.1-11.6
		c2.1-3.7,3.3-3.9,5-1.7c1.7,2.1,6.4,2.1,9.3,2.1s5.6,1.5,8.1-0.4s1,0.2,1.4,0.6l4.6,4.8c0.8,0.6,1,1.5,0.2,1.9
		c-0.8,0.4-1.2,4.1-4.1,3.3s-1.2,1-1.2,1.7c0.5,1.6,2.2,2.5,3.8,2c0.1,0,0.2-0.1,0.2-0.1c2.5-0.8,9.3-5.2,14.5-6s4.8-2.3,7.2-1.9
		c3,0.3,6,1.1,8.9,2.1c3.1,1.2,6.5,1.1,9.5-0.2c4.7-1.6,9.9-1.3,14.3,1l8.3,3.5c3.7,1.7,7.5,3.3,11.2,5.2c3.6,2.3,7.8,3.1,12,2.3
		c3.4-1.4,7.2,0.1,8.7,3.5c1.1,1.9,1.1,4.3,0,6.2c-1.2,1.4-3.1,2-4.8,1.5h-5c-6.4,0.4-12.7,0-19-1.4c-2.8-0.8-5.8-0.6-8.5,0.4
		c-3.5,1-7.2,1.7-10.8,1.9c-2.3,0.1-4.4,0.8-6.4,1.9c-1.7,1.4-3.5,3.9-5.8,0.4c-2.3-3.5-2.3-0.8-3.5-0.8c-1.3,0.2-2.5,0-3.7-0.6
		c-4.1-2.5-8.9-3.1-13.2-4.6c-4.3-1.5-3.5,0-4.1,2.1c-0.6,2.1-1.7,1.9-3.3,1.2l-2.5-1.7c-1.3-1.7-3.7-2-5.4-0.7
		c-0.1,0-0.1,0.1-0.2,0.2c-2.1,1.7-3.3,1.2-5.2,0.2c-2.8-1.4-6.2-0.3-7.6,2.4c0,0.1-0.1,0.2-0.1,0.3c-1.7,3.9-1,1.9-2.1,1.9
		s-1,0.2-1,0.8c0,0.5,0.4,1,1,1c3.9,0.4,2.5,2.5,1.9,4.6c-0.6,2.1-1,3.7-0.6,4.1c0.4,0.4,1.9-1,3.1-1.7c1.2-0.8,6-1.4,6,1
		s1.2,1.7,2.3,0.8c1.5-1.7,4.1-2,6-0.8c1.9,1.2,4.4,0.7,5.6-1.2c1.9-2.9,4.1-1.9,6.4-1.2c7.2,2.1,14.1,5.2,22.1,2.9
		c7.9-2.3,10.4,0,15.7-1.4s5.8,3.9,9.5,3.9c-0.2,1.2-0.6,1.2-1,1.2c-0.4,0-1.9,0.6-1.7,1.9c0.2,1.4,0.8,1.9,1.7,1.7
		c1.7,0.2,3.1,1.5,3.3,3.3c0.2,2.1-0.2,4.8,3.1,1.7c3.3-3.1,4.3-1.2,5.2,0.6c1,1.7,3.1,3.9-0.8,4.8c-0.8,0.2-0.6,1.4-0.8,1.9
		c-0.2,0.6-1.2,2.5-2.5,2.7c-2.8,0.7-5.2,2.7-6.2,5.4c-1.4,2.7-1.4,5.6-2.9,8.3c-1.5,2.7,0.2,2.1,1.7,1.7c1.5-0.4,2.1-0.2,2.9-1.2
		s2.7-1,2.7,1.4s0.4,2.9,2.1,1c0.8-1,2.3-1.2,3.3-0.4c0.1,0.1,0.2,0.1,0.2,0.2c1.5,1.4,2.5,0.2,2.9-1c0.5-2,1.7-3.7,3.3-4.8
		c2.1-1.9,5.4-3.3,4.6-7.4c0-0.2,0.4-0.6,0.4-0.8c1.2-3.3,4.3-5.4,5.2-8.7c0.5-1.6,2-2.8,3.7-2.9c2.6-0.6,4.8-2.4,6-4.8
		c1.5-2.3,2.1-6.2,6.6-5.2c1.2,0.4,1.5-0.8,0.8-1.7c-0.8-1,0.6-1.9,1.4-1.5c0.8,0.4,4.1,0.2,5.4,2.5c1.4,2.3,1.7,0.2,2.1-0.6
		s4.1-4.3,3.1-7.7c0-0.4,0-1.4,0.4-1.4c3.7-1.5,3.7-7.4,8.7-7.2l0.8-0.8c0-4.1,4.6-3.3,6-6c1.4-2.7,1-0.6,1.4-0.2
		c0.4,0.4,0.4,1,0.2,1.5c-0.2,0.6-1.9,2.1-0.4,2.7c1.5,0.6,1.9-1.4,2.3-2.5c0.2-0.6,0.2-1.3,0.2-1.9c1.1-3.1,3.3-5.7,6.2-7.2
		c3.1-0.6,4.1-2.1,3.5-5.2c-0.6-3.1,0-1.2,0.6-1.4s3.3-2.9,5.2-4.3c1.9-1.4,3.1-1.5,3.7,1.4c0.6,2.9-5,9.1-6.4,8.9
		c-1.4-0.2-2.1,0-2.1,1.5c0,1.5,1.4,1.7,2.5,1.5c2.1-0.2,4.2-0.8,6.2-1.5c-0.4,4.6-0.4,9.3-3.9,12.8c-0.2,0.2-0.2,0.8-0.2,1.2
		c0,0.4-0.4,1.7,0.8,2.1c1.2,0.4,1.5-0.4,1.7-1.4s0.8-2.5,2.1-2.1c1.4,0.4,2.7,0,3.3,1.5c0.6,1.5-0.6,1.9-1.5,2.5
		c-0.7,0.3-0.9,1.1-0.6,1.8c0.1,0.1,0.1,0.2,0.2,0.3c0.6,0.8,1.2-0.2,1.7-0.8s4.8-3.7,4.5-7.4c3.3,1.9,3.5,4.3,1.7,7.4
		c-0.6,1.4-1.4,2.7-2.3,3.9c-1.1,0.8-1.6,2.2-1.4,3.5c-0.1,0.1-0.2,0.2-0.2,0.4c-2.9,1.2-3.3,1.7-1.9,3.1v1.4c-1,0-2.1-0.6-2.9,0.8
		s0.6,1.5,1.2,2.3c0.7,1.3,1.7,2.6,2.7,3.7c6.6,5.8,9.9,13.7,14.3,20.7c4.4,7,3.5,10.1,7,14.1c0.4,0.6,0.2,2.3,1.4,1.9
		c1.2-0.3,2.1-1.3,2.1-2.5c0-2.7,1.5-1.9,3.1-1.4c1.4,0.7,2.6,1.7,3.7,2.9c2.1,2.3,4.7,4,7.5,5c-0.2-1.9-0.2-3.7-1.9-4.6
		c-1.7-1-1-0.8-0.8-1.4c0.2-0.6,0.6-0.8,0.8-0.6c0.2,0.2,3.7-0.2,5,1c1.6,1.5,3.8,2.2,6,1.9c3.1-0.2,4.8,3.5,7.9,3.1
		c0.1,0.4,0.2,0.8,0.4,1.2c0.6,3.1,3.7,5.2,6.8,4.5c0.1,0,0.2,0,0.3-0.1c1-0.3,2,0.2,2.3,1.2c1.5,2.3,3.3,4.5,6.6,3.1
		c3.3-1.4,1.7,0.4,2.5,1c0.9,1.4,2.9,1.8,4.3,0.9c0.1,0,0.1-0.1,0.2-0.1c0.8-0.8,1.4-0.6,1.9,0.4c2,1.7,4.3,2.9,6.8,3.7
		c2.2,0.6,4.2,1.7,6,3.1c0.7,0.7,1.6,1.1,2.5,1.4c2.5,0.2,3.9,1.4,3.9,3.9c0,2.5,0.6,1.4,1.4,1.4c2.2,0.3,4.2,1.3,5.8,2.9
		c4.1,2.9,9.1,3.9,13.2,6.8c4.1,2.9,7,1.7,7.9,6c0,0.6,1,1,1.5,0.6c0.6-0.4,1.4,0.2,2.1,0.6c2.1,1.9,3.7,4.2,4.8,6.8
		c1,2.7,1.2,2.7,2.7,2.9s3.1,1,2.9,3.1c-0.2,2.1,1,1.7,1.5,1c0.6-0.8,2.5-0.2,3.3,1s3.3,3.5,5.8,1.7c2.5-1.7,2.7-1,2.5,1.4
		c-0.2,2.3,0,2.3,1.2,1.7c1.2-0.6,2.9,1.5,3.9,2.7c1.3,2.2,2.8,4.3,4.5,6.2c1.4-0.6,0.8-2.3,2.1-2.7c1.4-0.4,3.3,3.3,3.3,5.8
		c0.2,0.7,0.8,1.3,1.5,1.4c5.4,0.2,10.2,3.3,12.6,8.1c0.6,1,1.4,2.1,2.3,1.2c1-1,2.9,0,4.1,1s2.1,4.6,5,5c2.7,0.7,5,2.5,6.4,4.8
		c1.7,2.1,1,1,1.7,0.8c0.8-0.2,0.8-1,0.6-1.5c-0.5-1.6-0.6-3.3-0.4-5c0-0.8-0.6-2.1,0.6-2.5c1.2-0.4,1.5,1,1.9,1.9
		c1.7,3.1,3.2,6.5,4.3,9.9c0.6,1.5,1.4,2.9,2.7,2.9s5,3.3,6.4,6c1.8,4.3,2.8,8.9,3.1,13.5c0.9,5.3,2.2,10.5,4.1,15.5
		c2.1,5.4,1.4,11.2,1.5,16.8c0,1.7-0.4,3.9,1.7,5.2c0.2,2.6,0.2,5.2,0,7.7c-0.9,3.2-0.9,6.6,0,9.9c0,15.1,0.2,30.2,0.2,45.3
		c0,0.4-0.2,1-0.2,1.5c0,0.6-1.2,1.4-1,2.3c0,5.2-0.2,10.4-0.2,15.7c0,1.2-0.2,2.3-0.2,3.5c0,1.2-1.2,1.4-1,2.3s-0.2,5.4,0,8.1
		c-0.3,5.9-1.1,11.8-2.3,17.6c-0.5,5-1.4,9.9-2.7,14.7c-0.2,0.8-0.4,1.9,0.6,2.5h-197c0-1,0.2-1.9,0.2-3.1s0.6-1.9,1.9-1.4
		c1.2,0.7,2.7,0.5,3.7-0.4c1-1.2,0.2-2.5-0.4-3.7s-1.2-1.5,0.2-1.9c1.7-1.1,2.3-3.4,1.2-5.1c-0.1-0.1-0.1-0.2-0.2-0.3
		c-1.5-2.1-1-0.8-0.4-1.9s1.7-5-2.7-4.8c-1.4,0-1.7-0.2-1.4-1.4c2.1-5.6,3.1-11.4,5.2-17c1.6-2.6,2.3-5.7,2.1-8.7
		c-0.6-3.1,1-2.3,1.5-3.3c0.6-1,1.5-1.9,0.6-2.7c-0.9-1.2-2.4-1.7-3.9-1.5c-1.5,0.4-1,1.9-1.4,2.9c-0.2,1-0.2,2.1-0.2,3.1
		c-1.6,1.6-2.7,3.7-2.9,6c-1.2,6-4.6,11-4.5,17.2c-4.8-2.9-4.8-7.2-3.3-11.4c1.5-4.3,3.3-11.6,5.4-17.2c0.4-1.2,1-2.3,0-3.1
		c-1.2-1-2.8-1.3-4.3-1c-1.4,0.4-1.4,1.4-1.4,2.5c0.1,2-0.2,4-1,5.8c-1.7,5.8-3.5,11.4-4.8,17.2c-1.4,5.8-1.2,7.9-5.6,10.1
		c-1,0.4-1.6,1.5-1.4,2.5c0.6,1.5-0.2,2.1-1.4,2.7c-1.4,0.6-2.1,2.2-1.5,3.6c0.1,0.2,0.2,0.5,0.4,0.7c1.5,1.7,1,2.3,0,3.5
		c-1.2,1.2-1.2,3.1,0,4.3c0.5,0.5,1.2,0.9,2,0.9c3.9,0.6,1.9,0.4,1.4,1.7l-1.7,5.2h-40.4c2.9-9.7,6-19.5,8.1-29.4s4.6-17.2,7-25.7
		c2.1-9.1,3.7-18.2,4.6-27.5c0.9-7.2,2.2-14.3,4.1-21.3c1.9-5.8,0.8-8.3-4.3-11.6c-1.3-0.5-2.2-1.7-2.3-3.1c1.5,0.2,3,0.6,4.5,1.2
		c2.5,1.2,3.5,0.2,4.3-2.1c0.8-3.3,1.2-6.7,1.2-10.1c0.8-12.6,1.9-25,2.3-37.7c-0.2-4.6-1.3-9.1-3.1-13.4c-1.7-3.1-1.4-6.9,0.6-9.9
		c4.5-6.4,6.6-13.2,2.5-20.7c-1.1-1.3-1.6-3.1-1.4-4.8c1.2-3.1,1-6.4,2.7-9.5c1.7-3.1,0.4-5.2,1.9-7.9c1.1-2.8,0-6-2.7-7.4
		c-1.9-1.2-1.5-2.5-1-4.3c0.6-1.7,1.4-1.9,3.1-1.4c1.1,0.5,2.4,0,2.9-1.1c0.2-0.4,0.2-0.8,0.2-1.2c0.2-3.4,0.2-6.7-0.2-10.1
		c-0.4-2.9-0.2-6.2-2.7-8.7l-1.7-3.5c-0.7-3.8-0.3-7.7,1.4-11.2c0.6-1.1,0.6-2.4,0-3.5c-2.7-5.8-5.4-11.4-8.3-17.2l-0.6-0.6
		c-0.8-2-1.1-4.2-1-6.4c0.4-6.1-0.4-12.2-2.1-18c-1-1.5-1.2-1.7-1.7-0.6c-0.9,1.8-2.4,3.2-4.3,3.9c-1,0.4-1.7,1.3-1.9,2.3
		c-1.5,3.7-2.9,7.7-7,9.7c-1.2,0.6-1.7,1.4-0.6,2.7c1.1,1.6,0.7,3.8-0.9,4.8c-0.4,0.3-0.9,0.5-1.4,0.6c-1.2,0.2-1.7,0.8-1,1.7
		c1,1.8,0.7,3.9-0.6,5.4c-1.5,1.5-1.5,1-0.8,1.7c0.8,0.8,2.1-1,1.7,0.8c-0.4,1-1.5,1.6-2.5,1.4c-1.4,0-2.5,0.2-2.7,1.5
		c-0.2,1.6-1.5,2.9-3.1,3.1c-1.9,0.4-2.7,0.6-2.3,2.7c0.7,2.9-1,5.9-3.9,6.8c-0.2-1.4,2.5-1.9,1.2-3.9c-0.7,0.6-1.4,1.2-2.1,1.7
		c-1.7,0.8-4.1,1-3.3,4.1c0.8,3.1-1.2,1.4-1.9,0.4c-0.8-1-2.9-1-4.6,0.2c0.3-1.9,0.1-3.9-0.4-5.8l-5,4.6c-0.6,0.6-1.5,1-0.8,1.7
		c0.8,0.8,1-0.2,1.5-0.6c0.6-0.4,1.9-0.6,1.9,1.2c0,1.9-0.2,3.8-0.6,5.6c-0.2,0.6-0.4,1.2-1,1.2c-4.6-0.8-3.1,4.1-4.8,5.8
		c-1.7,1.7-1.4,2.7-2.9,3.5c-3.5,3-6.4,6.5-8.7,10.4c-2.1,3.9-3.5,4.5-4.6,7c-1.2,2.5-1.9,3.5-4.3,1.5c-2.3-1.9-0.8,0.2-1,0.6
		c-0.2,0.4-0.2,0.8-0.2,1.2c1.2,0.2,2.3,1.9,3.3,1.2c1-0.8,5.8,0.2,8.3-1.4l0,0c-5,3.9-10.5,7.2-16.3,9.9c-2.4,1.3-5.2,1.6-7.7,0.8
		c-7-1.5-14.5-1-20.1-6.6c-1.1-1.1-2.7-1.7-4.3-1.5c-0.7-0.1-1.4-0.3-1.9-0.8c-3.7-2.7-7.2-5.4-10.6-8.5c-3.5-3.1-5.2-5.8-8.1-8.1
		c-6.1-4.9-11.8-10.1-17.2-15.7c-4.6-4.7-9-9.6-13.2-14.7c-8.9-10.8-16.3-22.9-21.9-35.8l-5.6-14.3c-1.3-4.4-3.2-8.6-5.8-12.4
		c0.2-0.6,0-0.8-0.4-0.8l0,0c-0.4-1.8-1.3-3.4-2.7-4.6h-0.2c0-1.4-1.2-2.1-1.7-3.1c-0.7,0.5-1.2,1.3-1.2,2.1l-3.1,7.7
		c-0.8,0.6-0.8,1.4-0.6,2.3l-1.4,4.1c-0.8,0.4-0.6,1-0.4,1.7c-0.1,2-0.5,3.9-1,5.8c-0.4,1.9-0.6,0.8-0.2,1.2c-0.2,2.5-0.5,5.1-1,7.5
		c-0.3,1.7-0.7,3.4-1.2,5c-0.2,1.7-1.5,6,0,9.1v1.5c-0.4,0.4-0.4,1.1,0,1.5v4.1c-0.2,0.4-0.3,0.7-0.4,1.2
		c-0.3,7.3,0.3,14.5,1.5,21.7c2.2,13.9,3.6,27.9,4.3,42c0.4,7.2,1.9,14.2,4.5,20.9c1.5,4.6,5.8,9.3,1.2,14.7c-0.4,0.4,0,1.4,0,2.1
		c0.1,4.2,0.5,8.3,1.4,12.4c1,10,3.9,19.7,8.5,28.6c1.2,2.5,2.9,5,2.3,7.9c-1.1,6.3-1.6,12.7-1.5,19.2c-0.4,6.4,0.8,14.7,1.2,22.3
		c0.4,7.5,0.4,18.4,1.5,27.5c0.4,3.7-0.4,7.5,0.8,11c1.2,3.5,3.1,12.6,7.5,17.4c0.6,0.8,0.9,1.7,1,2.7c1.2,6.4,3.5,12.4,5.2,18.6
		c0.2,0.8,1.2,1.9,2.1,1.2c1-0.8,2.7,0.8,3.1,1.7c0.3,1.7,0.3,3.4,0,5c-0.7,8-0.2,16,1.5,23.8H6.7c-2.3,0-2.9-0.6-2.9-2.9
		c0.2-19,0-37.7,0-56.5c4.5-0.8,4.6-1.7,4.6-6s-1.4-10.3,1.9-14.9c0.5-0.8,0.6-1.8,0.2-2.7c-0.4-1.1,0-2.4,1-3.1
		c3.3-3.3,2.9-5.6-1.4-7.7l-1-0.6c3.7-1.4,5-3.3,4.1-7.2c-0.5-2-0.2-4.2,1-6c1.2-2.1,0.4-4.8,1.4-7.2c1-2.3,1.4-1.4,2.3-1.7
		c1.2-0.6,2.2-1.6,2.7-2.9c0.5-2.3,1.2-4.6,2.1-6.8c5.8-10.3,8.9-21.7,12.2-32.9c1.9-6.8,3.9-13.7,6-20.5c2.1-6.8,4.8-10.6,7-16.1
		c2.1-5.4,3.1-7,2.9-11v-3.1c1.4-1,1.8-2.8,1-4.3c0.2-1.3,0.2-2.6,0.2-3.9c0.6-0.2,1.2-0.6,0.6-1.2c0-0.5,0-0.9,0.2-1.4
		c0.6-0.2,1-0.6,0.2-1.2s0.2-4.3,0.4-6.4c1.3-0.8,1.7-2.4,1-3.7c0.2-1.9,0.2-3.9,0.2-5.8c1.4-1,1.9-2.9,1.2-4.5c0-0.8,0-1.6,0.2-2.3
		c1.3-0.7,1.8-2.4,1.1-3.7c0-0.1-0.1-0.1-0.1-0.2c0-0.4,0.2-1,0.2-1.4C57,501.4,58.9,499.2,58.3,497.7z"/>
	
		<linearGradient id="SVGID_00000065042529740176632980000002791077680133004672_" gradientUnits="userSpaceOnUse" x1="3.0287" y1="412.8436" x2="5.3634" y2="411.4456" gradientTransform="matrix(54.761 0 0 -79.8301 184.351 33517.0117)">
		<stop  offset="0" style="stop-color:#012B66"/>
		<stop  offset="1" style="stop-color:#011633"/>
	</linearGradient>
	<path style="fill:url(#SVGID_00000065042529740176632980000002791077680133004672_);" d="M493.7,750.6h-90.2l5.2-32.7
		c1.7-10.8,3.7-21.7,5-32.5c0.4-2.9,0.4-5.6,0.8-8.5c1.2-6.4,1.7-12.8,2.9-19.2c0.6-3.3-0.8-6.6,1.2-9.7c1.9-3.1,0.4-1.2,1.2-1.2
		c0.7,0.1,1.2,0.7,1.2,1.4l0.6,5.6c1.5-3.1,2.8-6.4,3.9-9.7c1.2-2,2-4.3,2.5-6.6c0.4-2.9,1.1-5.9,1.9-8.7c1.4-6,3.3-11.8,4.8-17.8
		c0.5-1.4-0.2-2.9-1.5-3.5c-2.8-1.5-4.7-4.4-5-7.5c-0.2-1.9-1.4-3.9-1.5-6c-0.4-1.6-1.8-2.8-3.5-2.9c-1.7-0.4-1.7,1.2-2.3,2.3
		c-1.4,2.2-2.1,4.8-2.1,7.4c0,1.2-0.4,1.9-1.5,1.9c-0.9,0-1.5-0.7-1.5-1.5c0.2-3.3-0.8-6.8,1.4-9.9s3.3-3.5,2.3-5.6
		c-1-2.1-4.8-8.7-7.4-13.2l-0.6-0.6c-1.3-0.3-2.3-1.5-2.3-2.9c-0.6-3.9,0.4-8.1-3.3-11.4s-1.7-2.1-3.5-1.5c-1.9,0.4-3.6,1.4-4.8,2.9
		c-2.1,2.6-6,3.1-8.7,1.2c-1.9-0.9-3.8-1.6-5.8-2.1c-1.4-0.2-3.1-1.4-4.3-0.2c-1.2,1.2,0.2,2.7,0.8,4.1c0.6,1.4,0.4,1.5,0.8,2.1
		c0.5,0.8,0.2,1.9-0.7,2.3c-0.2,0.1-0.3,0.2-0.5,0.2c-4.5,1.5-6.6-1.7-10.1-4.3c2.6,0.2,5.1-1,6.6-3.1c3.1-4.7,7.4-8.6,12.4-11.2
		c0.8-0.6,2.3-0.6,2.1-2.1l0,0c1,0.4,1.5,0.2,1.5-1l2.9-1.5c1,0.4,1.4,0.2,1.5-1l2.1-1c1,0.6,1.5,0.2,1.7-0.8
		c3.6-2,7.4-3.7,11.2-5.2l2.1-0.6l15.9-6.8c1.4-0.7,3-0.9,4.5-0.4c3.2,1.8,6.6,3,10.3,3.5c0.8,0,1.7,0.2,1.9,1.4
		c0.2,1.2-1,1.2-1.7,1.4l-11.2,3.1c5.4,2.7,10.6,1.4,15.9,0.8c8.5-1.2,16.3-4.6,24.6-6.6c1-0.2,1.9-0.8,2.9-0.2
		c2.7,1.4,5.2,3,7.7,4.6c2.2,2.1,4.8,3.6,7.7,4.5c0,0.2,0.2,0.2,0.4,0.4c3.1,4.1,7.5,6.6,11.4,10.1h1.7c-0.2,0.8,0.2,1.2,0.8,1.7
		l10.4,10.6c2.2,2.2,4,4.7,5.2,7.5c0.7,1,0.6,2.2-0.2,3.1c-0.4,0.9-1.4,1.3-2.3,0.9c-0.1,0-0.1-0.1-0.2-0.1
		c-1.9-1.4-4.6-1.4-6.2-3.3c-1.2-1.7-3.7-2.2-5.4-0.9c-0.1,0.1-0.3,0.2-0.4,0.3c-1.9,1.5-4.6,0.8-7,1.9c-2.3,1.2-1.7-1.5-2.7-2.3
		c-1-0.8-2.1-1.4-3.3,0.4s-5.8,7.4-8.7,11c-6.3,8.1-11.3,17.2-14.7,26.9c-0.9,3.3-2,6.5-3.3,9.7c-1.7,2.9-0.6,0.6,0,0.8
		c0.6,0.2-1.7,2.9-1.4,4.1c0.8,2,0.6,4.3-0.6,6.2c-1.2,2.3,0.4,5-1.5,6.8s0,0.8,0,1c0,1.9,0.6,3.7,1.7,5.2c1.5,1.4-0.4,4.3,0.4,4.6
		s0.4,3.1-0.2,4.6c-0.6,1.5,2.1-1,3.3,0.2c1.2,1.2-4.6,3.1-3.3,6.4c1.5-0.4,2.7-1.9,5.4-2.1c-2.7,2.7-6.4,3.9-6.8,7.5
		c2.7-0.2,4.5-3.1,7.4-2.9l0,0c-1.7,1.7-2.9,3.9-5.4,4.6c-0.5,0.1-0.9,0.6-0.8,1.1c0,0,0,0,0,0c0.2,1.2,0.8,0.6,1.4,0.6
		c0.6,0,4.3-2.3,6.8-1.9l0,0c-1.9,3.3-6.4,2.9-8.5,6c-2.1,3.1-0.6,0.2-0.6-0.4c0-0.6-0.4-0.8-1-0.4c-0.6,0.5-0.8,1.3-0.4,1.9
		c0.4,0.6,1.7,0.2,2.5,0l9.9-3.7c-0.9,1.6-2.4,2.8-4.3,3.1c-1.5,0.3-2.8,1.4-3.3,2.9h-0.2c-0.2-0.4-0.2-1.2-1-0.8
		c-0.6,0.2-0.9,0.9-0.7,1.5c0,0.1,0.1,0.2,0.1,0.3c0.4,1,1,0.6,1.7,0.6s5-2.7,8.1-2.1l0,0c0.2,0.8-2.7,2.5,0.8,1.9s1.5,1,1.7,1.9
		c-0.2,1.1,0,2.2,0.6,3.1c1.2,1.9,0.8,3.5-1.7,4.6c3.9,0.4,2.7,3.1,3.5,5s0.4,4.5,1.7,6.6c1.4,2.1-1.4,1.9-1.7,3.5
		c-0.4,1.5,2.7,0,2.9,1.5c0.3,2,0.8,4.1,1.5,6c0.5,4.6,1.6,9.2,3.1,13.5c0.3,0.4,0.5,0.9,0.6,1.4c-0.4,4.6,1.5,8.7,2.3,13.2
		C492.2,740.5,493.3,745.8,493.7,750.6z M463.9,565c-0.4-1.4-1.9-1-3.1-1.4c-1.2-0.4-1.2,0.6-0.8,1c0.4,0.4,0.8,2.5,2.5,2.1
		C463.4,566.7,464,565.9,463.9,565C463.9,565,463.9,565,463.9,565z M457,566.8c0.8-0.2,2.1-0.4,1.9-1.4c-0.2-1-1.9-1.2-2.9-1.5
		c-1-0.4-1.4,0.6-1,0.8S455.8,566.6,457,566.8L457,566.8z M449.4,568.3c-0.2,1.5,1.4,1,1.5,2.3s2.5,0,1.9-1
		C452.3,568.7,450.8,568.5,449.4,568.3L449.4,568.3z M464.7,664.9c-1.2,0.2-2.1,1.3-2.1,2.5l0.8,0.4
		C464.3,667.2,464.3,666.2,464.7,664.9L464.7,664.9z M491,743.4l-0.8,1.2h0.8l0.6-0.6L491,743.4z M464.7,643.6V643l-0.6,0.6
		c-0.2,0,0,0.2,0.2,0.4L464.7,643.6z"/>
	
		<linearGradient id="SVGID_00000173147970969189929270000012021134825812471485_" gradientUnits="userSpaceOnUse" x1="8.0694" y1="414.5463" x2="8.0694" y2="411.7503" gradientTransform="matrix(39.0597 0 0 -95.714 202.2382 40160.8945)">
		<stop  offset="0" style="stop-color:#E66E67"/>
		<stop  offset="1" style="stop-color:#733734"/>
	</linearGradient>
	<path style="fill:url(#SVGID_00000173147970969189929270000012021134825812471485_);" d="M467.2,618c1.3-3.1,2.4-6.4,3.3-9.7
		c3.4-9.7,8.4-18.8,14.7-26.9c2.9-3.7,6.2-7.2,8.7-11c2.5-3.9,2.1-1.4,3.3-0.4c1.2,1,1.9,2.7,2.7,2.3c0.8-0.4,5-0.4,7-1.9
		c1.6-1.5,4-1.4,5.5,0.2c0.1,0.1,0.2,0.3,0.3,0.4c1.5,1.9,4.3,1.9,6.2,3.3c0.8,0.5,1.9,0.3,2.4-0.6c0-0.1,0.1-0.1,0.1-0.2
		c0.8-0.9,0.8-2.1,0.2-3.1c-1.3-2.8-3-5.4-5.2-7.5l-10.4-10.6c-0.6-0.6-1-1-0.8-1.7c3.5,1.2,5.6,4.1,8.3,6.4c3.7,3,6.9,6.5,9.5,10.4
		c0.4,0.6,1.2,1.7,2.3,1.2c0.8-0.5,1-1.6,0.5-2.4c0,0,0-0.1-0.1-0.1c-0.4-1.3-0.1-2.8,0.8-3.9c2.1-3.4,3.6-7,4.6-10.8
		c0.2-0.8,0.4-1.7,1.4-1.9c2.5-1.1,4.8-2.7,6.6-4.8c0.5-0.6,1.3-0.9,2.1-0.8c0.8,0.2,1.3,0.9,1.2,1.7c0,3.1,3.5,5.2,1.5,8.7
		c0.4-0.1,0.9-0.3,1.2-0.6c0.8-2.3,1.7-4.5,2.3-6.8c0.6-2.3,3.1-5.8,7.2-2.1s5.4,1.2,7.5,3.1c2.1,1.9,1.5-1,1.7-1.9
		c0.2-1.6-0.1-3.2-0.8-4.6c-1.4-2.1-3.3-3.9-4.5-5.8c-1.2-1.9-5-6.8-4.5-11.6c0.6-4.8,3.3-15.3,3.5-23.2c0.2-4.1,1.7-5.6,5.6-5.6
		s3.1-0.4,3.5-2.7c0.4-3.2,1.2-6.3,2.3-9.3c2.5,2.5,2.3,5.8,2.7,8.7c0.4,3.3,0.4,6.7,0.2,10.1c0,1.9-1.2,3.1-3.1,2.3
		c-1.9-0.8-2.5-0.2-3.1,1.4c-0.6,1.5-1,3.1,1,4.3c2.7,1.4,3.8,4.6,2.7,7.4c-1.5,2.7-0.8,5.6-1.9,7.9c-1.2,2.3-1.5,6.4-2.7,9.5
		c-0.3,1.7,0.2,3.5,1.4,4.8c4.1,7.5,1.9,14.3-2.5,20.7c-2,2.9-2.3,6.7-0.6,9.9c1.8,4.2,2.9,8.8,3.1,13.4
		c-0.4,12.8-1.5,25.2-2.3,37.7c0,3.4-0.4,6.8-1.2,10.1c-0.8,2.3-1.7,3.3-4.3,2.1c-1.4-0.5-2.9-0.9-4.5-1.2c0.1,1.4,1,2.6,2.3,3.1
		c5,3.3,6.2,5.8,4.3,11.6c-1.8,7-3.2,14.1-4.1,21.3c-1,9.2-2.5,18.4-4.6,27.5c-2.3,8.5-5,17-7,25.7s-5.2,19.7-8.1,29.4h-43
		c-0.4-4.8-1.5-9.9-2.3-14.7c-0.8-4.8-2.7-8.5-2.3-13.2c-0.1-0.5-0.3-0.9-0.6-1.4c-1.5-4.4-2.5-8.9-3.1-13.5c-0.7-1.9-1.2-4-1.5-6
		c-0.2-1.5-1.7-1.4-2.9-1.5c-1.2-0.2,3.1-1.5,1.7-3.5s-0.8-4.5-1.7-6.6s0.4-4.6-3.5-5c2.5-1.2,2.9-2.7,1.7-4.6
		c-0.6-0.9-0.8-2-0.6-3.1c-0.2-1-0.6-2.1-1.7-1.9c-1.2,0.2-0.6-1.2-0.8-1.9c-0.2-0.8,0.8,0.2,0.8-0.4c0-0.2-0.2-0.4-0.4-0.4l0,0
		c-0.6,0-0.4,0.6-0.4,0.8c-3.1-0.6-5.4,1.5-8.1,2.1c-2.7,0.6-1.4,0.4-1.7-0.6c-0.4-0.5-0.2-1.3,0.3-1.6c0.1-0.1,0.2-0.1,0.3-0.1
		c0.8-0.4,0.8,0.4,1,0.8c0.2,0.4-0.6,0.4-0.2,0.6l0.4-0.4c0.5-1.5,1.7-2.6,3.3-2.9c1.8-0.3,3.4-1.5,4.3-3.1l-9.9,3.7
		c-0.8,0.2-1.7,1.2-2.5,0c-0.8-1.2,0-1.4,0.4-1.9c0.4-0.6,1.2-1,1,0.4c-0.2,1.4,0.4,0.8,0.6,0.4c0.2-0.4,6.6-2.7,8.5-6
		c0.6-0.2,1-0.2,1-1h-0.2c-0.8,0-0.8,0.6-0.8,1.2c0,0.6-4.5,1.5-6.8,1.9c-2.3,0.4-1.2,0.6-1.4-0.6c-0.1-0.5,0.2-1,0.7-1.2
		c0,0,0,0,0,0c2.5-0.8,3.7-2.9,5.4-4.6l1-0.6v-0.4l-0.8,1c-2.9-0.2-4.6,2.7-7.4,2.9c0.4-3.7,4.1-4.8,6.8-7.5
		c-2.7,0.2-3.9,1.7-5.4,2.1c-1.4-3.3,2.9-3.9,3.3-6.4c0.4-2.5-2.1,0.8-3.3-0.2c-1.2-1,2.5-2.7,0.2-4.6c-2.3-1.9,1.5-3.1-0.4-4.6
		c-1.9-1.5-1-3.5-1.7-5.2c-0.8-1.7-0.2-0.8,0-1c0.3-2.3,0.8-4.6,1.5-6.8c1.2-1.8,1.4-4.2,0.6-6.2c-0.4-1.2,1.9-2.3,1.4-4.1h0.2
		c0-0.2,0-0.4-0.2-0.4L467.2,618z M560.7,594.8c-0.1-3.2-0.5-6.4-1.2-9.5c0-1.5-0.9-2.8-2.3-3.3c-1.9-1-4.5-0.6-5.8-2.3
		c-1.4-1.7-4.3-3.3-5.8-5.6c-1.5-2.3-1.7-0.6-2.7-0.8c-2.9-0.5-5.6,1.3-6.4,4.1c-0.2,0.7-0.8,1.2-1.5,1.4c-3.8,0.6-7.1,2.8-9.1,6
		c-3,3.6-2.8,8.9,0.6,12.2c4.5,4.2,8.2,9.1,11,14.5c0.5,1.9,1.3,3.7,2.3,5.4c3.5,4.3,8.5,5.2,13.2,7h1.5c5.4,1.4,6.6,0.4,7-5.2
		C561.8,613,559.7,602.2,560.7,594.8L560.7,594.8z"/>
	
		<linearGradient id="SVGID_00000157297783094624206370000009023450118630163620_" gradientUnits="userSpaceOnUse" x1="7.4074" y1="415.2868" x2="7.4074" y2="412.4908" gradientTransform="matrix(31.9925 0 0 -107.962 153.1911 45283.9531)">
		<stop  offset="0" style="stop-color:#E66E67"/>
		<stop  offset="1" style="stop-color:#733734"/>
	</linearGradient>
	<path style="fill:url(#SVGID_00000157297783094624206370000009023450118630163620_);" d="M390,545.9c0.2,1.5-1.4,1.5-2.1,2.1
		c-5,2.7-9.2,6.5-12.4,11.2c-1.5,2.1-4,3.3-6.6,3.1c3.5,2.5,5.6,5.8,10.1,4.3c1.5-0.4,2.1-1,1.2-2.5c-1-1.5-0.4-1.4-0.8-2.1
		c-0.4-0.8-1.9-2.7-0.8-4.1s2.9,0,4.3,0.2c2,0.5,3.9,1.2,5.8,2.1c2.7,2,6.6,1.5,8.7-1.2c1.3-1.5,3-2.5,4.8-2.9
		c1.7-0.6,2.1,0.2,3.5,1.5s2.7,7.5,3.3,11.4c0,1.4,1,2.6,2.3,2.9l0.6,0.6c2.5,4.5,5.2,8.7,7.4,13.2c2.1,4.5-1.2,4.1-2.3,5.6
		c-1.2,1.5-1.2,6.6-1.4,9.9c0,0.9,0.7,1.5,1.5,1.5c1.2,0,1.5-0.8,1.5-1.9c0-2.6,0.8-5.1,2.1-7.4c0.6-1.2,0.6-2.7,2.3-2.3
		c1.7,0.1,3.1,1.3,3.5,2.9c0.2,2.1,1.4,4.1,1.5,6c0.3,3.2,2.2,6,5,7.5c1.4,0.5,2.1,2.1,1.5,3.5c-1.5,6-3.5,11.8-4.8,17.8
		c-0.8,2.9-1.5,5.8-1.9,8.7c-0.5,2.3-1.3,4.5-2.5,6.6c-1.1,3.3-2.4,6.5-3.9,9.7l-0.6-5.6c0-0.7-0.5-1.3-1.2-1.4
		c-0.8,0-0.8,0.6-1.2,1.2c-0.4,0.6-0.6,6.4-1.2,9.7c-1.2,6.4-1.7,12.8-2.9,19.2c-0.4,2.9-0.4,5.6-0.8,8.5c-1.4,10.8-3.3,21.7-5,32.5
		l-5.2,32.7h-12c-1.8-7.8-2.3-15.8-1.5-23.8c0.3-1.7,0.3-3.4,0-5c-0.4-1,0-4.6-3.1-1.7s-1.9-0.4-2.1-1.2c-1.7-6.2-4.1-12.2-5.2-18.6
		c0-1-0.4-1.9-1-2.7c-4.5-4.8-5.2-11.6-7.5-17.4c-2.3-5.8-0.4-7.4-0.8-11c-1.2-9.1-1.2-18.4-1.5-27.5s-1.5-14.9-1.2-22.3
		c-0.1-6.4,0.4-12.8,1.5-19.2c0.6-2.9-1.2-5.4-2.3-7.9c-4.7-8.9-7.5-18.6-8.5-28.6c-0.8-4.1-1.3-8.2-1.4-12.4c0-0.8-0.4-1.7,0-2.1
		c4.6-5.4,0.4-10.1-1.2-14.7c-2.5-6.7-4-13.7-4.5-20.9c-0.6-14.1-2.1-28.1-4.3-42c-1.3-7.1-1.8-14.4-1.5-21.7c0-0.4,0.2-0.8,0.4-1.2
		c2.4,4.2,3.9,8.9,4.5,13.7c0.5,3.6,2.2,6.9,4.8,9.3c2.2,1.8,3.8,4.2,4.6,7c1.2,4.5,2.1,9.3,6.2,12.8c4.1,3.5,3.1,3.1,1.2,5.6
		c-1.9,2.5,1,2.3,1.4,2.1c1.3-0.2,2.6,0.6,2.9,1.9c1.3,3,3.2,5.8,5.4,8.1c1.8,2.9,3.9,5.5,6.2,7.9c1.4,1.6,1.3,4-0.2,5.5
		c-0.1,0-0.1,0.1-0.2,0.1c-3.7,2.1-4.3,7-7.9,8.9c-0.2,0-0.2,0.6-0.2,0.8c0.6,4.1-0.8,8.3,1.4,12.4c2.1,4.1,3.7,5.6-0.6,7.9
		c0.1,0.2,0.2,0.5,0.2,0.8c2.3-1,4.5-2.3,6.6-3.7C384.4,548.8,386.7,546.3,390,545.9z M390.4,610.3l-0.6-3.7c-0.7-4-2-8-3.9-11.6
		c-1-2.4-2.4-4.6-4.1-6.6c-4.7-4.6-8.6-9.9-11.4-15.9c-0.6-1.4-1.7-2.3-3.3-1.5c-1.2,0.4-1.8,1.8-1.4,3c0.1,0.2,0.2,0.4,0.3,0.5
		c2.5,5.4,3.5,11.2,5.8,16.8c4.1,10.3,6.6,21.1,9.9,31.5c0.3,2.1,2.2,3.6,4.4,3.3c0,0,0.1,0,0.1,0c2.3-0.2,2.7-1.9,2.9-4.1
		S389.8,614.2,390.4,610.3L390.4,610.3z"/>
	<path class="st4" d="M577.1,750.6l1.7-5.2c0.6-1.4-0.2-1.5-1.4-1.7c-1.2-0.2-4.6-2.3-1.9-5.2c2.7-2.9,1.4-2.1,0-3.5
		c-1.4-1.4-1.4-3.3,1.2-4.3c2.5-1,1.9-1.2,1.4-2.7c-0.3-1.1,0.3-2.2,1.4-2.5c4.5-2.1,4.8-6.2,5.6-10.1s3.1-11.4,4.8-17.2
		c0.7-1.8,1.1-3.8,1-5.8c0-1.2,0-2.1,1.4-2.5c1.5-0.4,3.1,0,4.3,1c1,0.8,0.4,1.9,0,3.1c-2.1,5.6-3.3,11.6-5.4,17.2
		c-2.1,5.6-1.5,8.5,3.3,11.4c-0.2-6.2,3.3-11.2,4.5-17.2c0.2-2.3,1.3-4.4,2.9-6c1.9-1.2,2.7-0.2,3.3,1.5c0.6,1.7-1,6-2.1,8.7
		c-2.1,5.6-3.1,11.4-5.2,17c-0.4,1.2,0,1.4,1.4,1.4c4.5-0.2,5,1,2.7,4.8s0,1.4,0.4,1.9c0.4,0.6,2.9,4.3-1,5.4s-0.4,1.4-0.2,1.9
		c0.2,0.6,1.4,2.5,0.4,3.7c-1,0.9-2.5,1.1-3.7,0.4c-1.4-0.6-2.1-0.4-1.9,1.4c0.1,1,0,2.1-0.2,3.1h-10.8c-0.4-0.6,0-2.1-1.2-1.9
		s-2.1,0.6-1.9,1.9L577.1,750.6z"/>
	<path class="st5" d="M581.6,750.6c-0.2-1.4,1-1.9,1.9-1.9s0.8,1.4,1.2,1.9H581.6z"/>
	
		<linearGradient id="SVGID_00000102528120709892829580000018102837971408754605_" gradientUnits="userSpaceOnUse" x1="2.1101" y1="417.7815" x2="2.1101" y2="414.9855" gradientTransform="matrix(120.259 0 0 -131.3792 231.236 54971.793)">
		<stop  offset="0" style="stop-color:#E66E67;stop-opacity:0.8"/>
		<stop  offset="1" style="stop-color:#C75650"/>
	</linearGradient>
	<path style="fill:url(#SVGID_00000102528120709892829580000018102837971408754605_);" d="M569.2,408.9c-0.3-1.3,0.3-2.7,1.4-3.5
		c1-1.2,1.7-2.5,2.3-3.9c1.7-3.1,1.5-5.4-1.7-7.4c0.4,3.7-2.7,5.2-4.5,7.4c-1.7,2.1-1.2,1.5-1.7,0.8c-0.5-0.5-0.5-1.4,0.1-1.9
		c0.1-0.1,0.2-0.2,0.3-0.2c1-0.6,2.1-1,1.5-2.5c-0.6-1.5-2.1-1.2-3.3-1.5c-1.2-0.4-1.9,1-2.1,2.1s-0.6,1.5-1.7,1.4
		c-1.2-0.2-0.8-1.4-0.8-2.1c0-0.8,0-1,0.2-1.2c3.5-3.5,3.5-8.1,3.9-12.8c-2,0.8-4.1,1.3-6.2,1.5c-1.2,0.2-2.3,0.2-2.5-1.5
		c-0.2-1.7,0.4-1.9,2.1-1.5c1.7,0.4,6.8-7.5,6.4-8.9c-0.4-1.4-1.2-3.1-3.7-1.4s-2.7,3.9-5.2,4.3c-2.5,0.4-0.6,0.8-0.6,1.4
		c0,0.6-0.4,4.6-3.5,5.2c-2.9,1.5-5.1,4.1-6.2,7.2c0,0.7,0,1.3-0.2,1.9c-0.4,1.2-1,2.9-2.3,2.5c-1.4-0.4-0.2-1.7,0.4-2.7
		s0.4-1.2-0.2-1.5c-0.4-0.3-1-0.2-1.4,0.2c-0.2,0.2-6,1.9-6,6l-0.8,0.8c-5-0.2-5,5.6-8.7,7.2c-0.4,0-0.4,1-0.4,1.4
		c1,3.5-1.9,5.2-3.1,7.7s-1.5,1.4-2.1,0.6c-0.6-0.8-3.7-1.4-5.4-2.5c-1.7-1.2-2.3-0.4-1.4,1.5c1,1.9,0.4,2.1-0.8,1.7
		c-4.5-1-5,3.1-6.6,5.2s-3.1,4.5-6,4.8c-1.7,0.1-3.1,1.3-3.7,2.9c-1,3.3-4.1,5.4-5.2,8.7c0,0.2-0.4,0.6-0.4,0.8
		c0.8,4.1-2.5,5.4-4.6,7.4c-1.6,1.2-2.8,2.9-3.3,4.8c-0.4,1.2-1.4,2.3-2.9,1c-0.9-0.9-2.4-0.9-3.3,0c-0.1,0.1-0.1,0.1-0.2,0.2
		c-1.7,1.9-2.1,1-2.1-1s-0.8-3.1-2.7-1.4s-1.9,0.8-2.9,1.2c-1,0.4-2.5-0.6-1.7-1.7s1.5-5.6,2.9-8.3c1-2.7,3.4-4.8,6.2-5.4
		c1.4-0.2,1.9-1.5,2.5-2.7c0.6-1.2,0-1.7,0.8-1.9c3.9-1,1.5-3.9,0.8-4.8c-1.5-1.2-3.5-1.4-5.2-0.6c-1.2,1-2.9-0.6-3.1-1.7
		s0.2-4.5-3.3-3.3c-3.5,1.2-1.7-0.8-1.7-1.7s0.4-1.9,1.7-1.9c1.4,0,0.8,0,1-1.2c-3.7,0-5.2-4.8-9.5-3.9s-10.6,0-15.7,1.4
		c-5,1.4-14.9-0.8-22.1-2.9c-2.3-0.8-4.5-1.7-6.4,1.2c-1.2,1.9-3.7,2.4-5.6,1.2c-1.9-1.3-4.5-0.9-6,0.8c-1.2,1-2.3,2.3-2.3-0.8
		c0-3.1-3.3-2.7-6-1s-1.9,2.5-3.1,1.7c-1.2-0.8,0.2-2.7,0.6-4.1c0.4-1.4,1.9-4.3-1.9-4.6c-0.5,0-1-0.4-1-1c0-0.6,0.6-0.8,1-0.8
		c1-0.3,1.8-1,2.1-1.9c0.4-1.2,4.1-5,7.7-2.7c3.7,2.3,3.1,1.5,5.2-0.2c1.6-1.4,4.1-1.2,5.5,0.4c0.1,0.1,0.1,0.1,0.2,0.2l2.5,1.7
		c1.5,0.8,2.9,1,3.3-1.2c0.4-2.1,1.7-3.1,4.1-2.1s9.1,2.1,13.2,4.6c1.2,0.8,2.3,0.4,3.7,0.6c1.4,0.2,3.1,0,3.5,0.8s4.1,1,5.8-0.4
		c1.9-1.1,4.1-1.8,6.4-1.9c3.7-0.3,7.3-0.9,10.8-1.9c2.7-1,5.7-1.1,8.5-0.4c6.2,1.3,12.6,1.8,19,1.4h5c1.8,0.5,3.7-0.1,4.8-1.5
		c1.1-1.9,1.1-4.3,0-6.2c-1.7-3.1-5.3-4.6-8.7-3.5c-4.1,0.6-8.4-0.2-12-2.3c-3.9-2.1-7.5-3.5-11.2-5.2l-8.3-3.5
		c-4.4-2.2-9.6-2.6-14.3-1c-3,1.3-6.4,1.4-9.5,0.2c-2.9-1.1-5.9-1.8-8.9-2.1c-2.3-0.4-4.6,1.5-7.2,1.9c-2.5,0.4-9.5,4.1-14.5,6
		c-5,1.9-4.1,0.4-4.1-1.9c0-2.3,0.4-1.7,1.2-1.7s2.5-2.3,4.1-3.3c1.5-1,0.6-1.4-0.2-1.9l-4.6-4.8c-0.4-0.4-1.2-0.8-1.4-0.6
		c-2.7,0.4-5.4,0.5-8.1,0.4c-2.5-0.2-6.6,1-9.3-2.1s-3.5-0.8-5,1.7c-1.5,2.5-0.2,8.1-3.1,11.6c-2.9,3.5,0,1.5,0.8,2.3
		c2,2.2,2.5,5.4,1.2,8.1c-1.2,1.5-2.1,1.4-3.1-0.4c-0.5-1-1-2-1.4-3.1c0-3.3-2.5-5.2-4.1-7.7c-1.1-1.1-1.7-2.7-1.5-4.3
		c0.1-1.5-0.4-3-1.5-4.1c-2.3-2.1-2.7-5.6-5.6-7.5c-2.9-1.9-2.5-3.7-2.9-5.6c-0.4-1.9-2.5-5-3.1-8.1c-0.6-3.1-3.1-7.9-4.3-11.8
		c-1.2-3.9-5.6-10.8-8.3-16.4c-0.3-0.8-0.9-1.4-1.7-1.5c-1-0.2-0.8,0.6-1,1.2c-0.3,0.7,0,1.6,0.8,1.9c1,0.6,1.4,4.5,2.1,6.6
		c1.1,4.4,1.8,9,1.9,13.5c0.2,0.2-0.2,0.6-0.4,1c-0.8-5.6-3.1-11-3.1-16.8c0.1-1.7-0.8-3.2-2.3-3.9c-5.6-2.6-8.8-8.6-7.9-14.7
		c0.8-7.4,0-14.7,1.2-21.9c1.2-7.2-1.2-10.6-3.3-15.7c-1.3-2.9-2.2-6-2.9-9.1c-0.6-2.4-1.5-4.8-2.7-7c-4-8.4-6.1-17.6-6.2-26.9
		c0-1.9,0.4-3.7,1.2-5.4c1.2-3.4,4.7-5.5,8.3-5c1.9,0.2,3.3,0,1.7-2.5c-1.1-1.3-1.6-3-1.4-4.6c2.9,1,5,5.4,5.4,8.5
		c0.4,3.3,0.4,6.6,0.2,9.9c0,3.1-1.4,5.6-1.5,8.3c-0.4,5.5,0.4,10.9,2.3,16.1c1.8,4.3,3,8.9,3.5,13.5c0,0.6,0.2,1,1,1s1-0.6,1.2-1.2
		c0.9-3,1.6-6,2.1-9.1c0.8-6,1.5-11.8,1.9-17.8c0.4-6,1.9-8.3,1.9-12.6c-0.2-7.5,1.9-14.7,2.1-22.3c0-1.8,0.2-3.6,0.6-5.4
		c2.6-7.5,3.8-15.3,3.7-23.2c-0.1-1.4,0.1-2.7,0.4-4.1c0.6-1.9,0.5-4-0.2-5.8c-0.9-1.5-1.1-3.3-0.6-5c0.2-1.2,0.6-2.3,0.2-3.1
		c-2.1-4.3-0.6-8.5-0.4-12.8c0.2-4.3,1.2-3.3,1.2-5.2c0.1-4.6,1.9-9,5.2-12.2c1.2-1.2,2.7-2.5,2.5-4.5c-0.2-1.9,1.9-5.8,2.7-8.7
		c0.4-1.1,1.2-1.9,2.3-2.3c1.2-0.6,4.1,0,2.3-3.1s0.6-0.6,1-0.6c1.4-0.4,2.7-1.1,3.9-1.9c1.2-1,1.9-2.1,3.9-1.9
		c2.6,0,4.8-1.8,5.4-4.3c1.3-5.5,6.7-9,12.2-7.9c1.7,0.2,3.4-0.3,4.6-1.4l2.1-1c2.7,0.1,5.4-1,7.2-3.1c0.2-0.5,0.7-0.8,1.2-0.6
		c0.1,0,0.2,0.1,0.3,0.2c2,1.9,5.1,1.8,6.9-0.2c0,0,0,0,0,0c0.6-0.1,1.3-0.1,1.9,0c2.9,0.6,6,0.6,8.9,0c1.8-0.2,3.7,0,5.4,0.6
		c1.7,0.6,1.2,2.1,1.5,3.3c0.2,0.6,0.8,0.9,1.4,1c2.5,0.7,5.1,1.2,7.7,1.5c3.7-0.1,7.4,0.3,11,1c4.8,1.1,9.5,2.6,13.9,4.6
		c6.5,1.5,13.2,2.2,19.9,1.9c3.8,0.2,7.6-0.4,11-1.9h1.7c3.5,0.3,7-0.1,10.3-1.4c2.5-1,5-1.4,7.5-2.1c4.7-1.8,9.1-4.1,13.4-6.8
		c1,1.5,2.3,1.9,4.3,0.4c1.7-1.3,4-1.5,5.8-0.4c1.8,1.2,4.2,1,5.8-0.6c0.6-0.6,1.2-1.4,2.3-0.6c1.2,0.8,6.4,2.1,8.9-1l0.8-0.4
		c0.8,2.7,4.3,1,5.6,3.1s1.4,0.8,2.3,0.4c1-0.4,1.4-2.9,2.7-0.4c1.4,2.5,2.5,1.2,2.9,2.7c0.2,0.8,0.5,1.5,1,2.1
		c2.9,2.2,5.2,5.1,6.6,8.5c0.4,0.9,0.9,1.7,1.5,2.3c3.3,3.5,7.5,6,9.5,10.6c0.4,1,1.9,1.7-0.4,2.3c-2.3,0.6-1.9,1.7-0.4,3.1
		c1.2,1.1,2.3,2.4,3.3,3.7c0.6,0.6,1.5,1.2,0.8,2.1c-0.8,1-1.2-0.2-1.7-0.4s-1.4-0.4-1.7,0.2c-0.4,0.1-0.6,0.6-0.5,1
		c0.1,0.1,0.1,0.3,0.3,0.4c1.9,2.1,2.7,5,4.8,6.8c2.2,2.1,4,4.7,5,7.5c0.4,1.2,0.4,1.7-0.8,2.3c-1.2,0.6-1.4-0.4-1.5-1.2
		c-0.7-2.3-2-4.4-3.9-6c-0.6-0.6-0.8-1.5-1.7-0.8c-0.7,0.3-1.1,1.2-0.8,1.9c0.4,2,1.3,3.9,2.5,5.6c1.5,1.5,1.2,1.4,0.4,2.1
		s-0.2,2.7,0.2,3.9c0.4,1.2,1.4,3.7,1.9,5.6c0.6,1.9,0.4,2.7,1.7,3.3s1.2-2.1,3.1-1.7c-1,2.4-1.2,5-0.6,7.5c1,3.3,0.6,7,1.9,10.1
		c1.4,3.1,0.8,3.1-1,2.3s-2.3,1.5-2.3,1.9c0.8,3.9-2.5,5.6-4.1,7.9c-1.1,1.4-1.7,3.2-1.7,5c-0.1,1.4-0.5,2.8-1.2,4.1
		c-1.2,2.3-2.3,4.8-3.3,7.4c-1,2.5,1,9.9,1.9,14.9s2.7,6.8,3.5,10.1c3.3,12.8,2.3,25.7,1.9,38.5c-0.2,6.4-1,12.6,1,18.8
		c0.7,2,0.8,4.1,0.4,6.2c-1.2,4.3,1.4,8.1-0.2,12.6c1.1-0.6,1.9-1.7,2.3-2.9c1.2-4.1,2.5-8.1,3.7-12.2c1.2-4.1,0.6-3.1,2.9-2.1
		c2.3,1,2.3-0.4,2.1-1.7c-0.1-2.8,0.5-5.7,1.9-8.1c0.6-0.8,1-1.7-0.6-2.1c-0.7-0.1-1.2-0.8-1.1-1.6c0-0.1,0.1-0.2,0.1-0.4
		c0.4-1,0.4-2.3,1.9-1.9c1.5,0.4,1.7-0.4,1.5-1.5c-0.4-5.4,2.5-9.9,4.5-14.5c0.4-1.7,1.5-3.2,3.1-4.1c4.5-1.9,8.5-4.5,12.8-6.8
		c4.3-2.3,2.9-1.4,3.5-2.7c1.4-4.6,2.9-9.3,4.1-13.9c1.2-4.6,1.7-9.3,2.5-13.9c0-1.4,0.6-2.8,1.7-3.7c1.9-1.2,2.6-3.7,1.4-5.6
		c-0.1-0.1-0.2-0.3-0.3-0.4c-1.2-1.8-0.7-4.3,1-5.6c0.7-0.3,1-1,1-1.7c-0.5-4.4-1.3-8.7-2.3-13c-0.6-1.4-1.7-3.1-0.6-4.8
		c1.2-1.7,1,1,1.2,1.5s0.4,1.4,1.2,1.2c0.5-0.1,0.9-0.6,0.8-1.1c0-0.1,0-0.2-0.1-0.3c-0.2-0.6,1.2-4.6-0.8-7.2
		c-1.9-2.5-3.9-4.8-0.2-7.5c0.6-0.4-0.2-1.2-1-1.5l-2.1-1.2c-0.8-0.4-1.4-1-0.8-1.7c0.6-0.8,1.2,0.2,1.5,0.6l1.2,0.6
		c0.4-0.9,0.5-2,0.2-2.9c-0.8-3.1-2.9-6-0.6-9.3c0.4-0.8,0.1-1.8-0.6-2.3c-3.5-2.5-3.5-7.4-6.6-10.1c-3.1-2.7-0.2-1.2-0.6-1.5
		s-2.3-6.8-3.7-10.1c-1.4-3.3-1.7-5,1.5-6.8s1.5-1.9,0.2-2.1c-2-0.8-4.1-1.5-6.2-1.9c-2.1,0-3.7-1.5-3.7-4.3
		c1.9,1.3,4.1,2.1,6.4,2.3c5,0.6,6.2,2.9,4.5,7.5c-1.8,3.9-1.3,8.5,1.2,12c3.1,4.5,4.6,9.9,7.9,14.3c0.7,1.2,0.8,2.6,0.4,3.9
		c-0.9,2-0.2,4.4,1.7,5.6c1.7,1.3,2.3,3.5,1.5,5.4c-1,4.1-0.9,8.3,0.2,12.4c0.5,1.2,0.5,2.6,0,3.9c-1.2,3.1-1.2,6.6,0,9.7
		c0.4,1,0.5,2.2,0.2,3.3c-0.7,1.7-0.9,3.6-0.6,5.4c0.5,1.5,0,3.2-1.4,4.1c-1,0.6-0.8,1.9-0.6,2.9c0.8,2.5,0.2,5.2-1.5,7.2
		c-1.1,1.6-1.8,3.5-1.9,5.4c-1.4,6.6-1.7,13.5-4.6,19.7c-0.6,1.1-0.4,2.5,0.4,3.5c0.6,0.8,2.7,1.5,0.2,2.7c-2.5,1.2,0.2,1.4,1.7,1.5
		c2.1,0.4,4.1,1.2,6,2.1c2.5,0.8,3.1,2.5,2.9,5c-0.3,1.6-0.1,3.2,0.6,4.6c1.4,1.9,1.7,1.7,1.4,3.5c-1.4,5.6-0.8,11.6-4.1,16.8
		c-1.5,2.1-3.3,4.1-4.8,6c-2.6,3-4.3,6.7-5,10.6c-0.3,1-0.7,1.9-1.4,2.7c-1.2,3.1-2.1,6.4-2.5,9.7c-1.2,5.6-2.7,11.2-4.6,16.6
		c-2.3,6.4-5.6,12.4-8.3,18.6c-1.8,3.3-4.5,5.9-7.7,7.7c-4.6-1.4-8.9,1.9-13.5,0.8c0.8,1,2.1-0.2,2.7,1.2c0.6,1.4-3.5,0.2-5.2,0.2
		c-1.7,0-3.1,0.6-3.3,2.5c-0.8,6.5-2.7,12.8-5.4,18.8c-2.1,4.6-2.3,9.7-4.8,14.1c-2.5,4.5-4.1,9.1-6.8,13.5
		c-2.2,3.6-4.6,7.1-7.2,10.4C570.6,408.2,570,408.7,569.2,408.9z M442.1,242.7c0.1-3.4-1-6.6-3.1-9.3c-1.2-1.9-2.2-4-2.9-6.2
		c-1.5-5.1-5.1-9.3-9.9-11.6L415,210c-3.5-2.3-7.4-4.2-11.4-5.4c-2.9-0.6-5.6-2.9-8.3-2.9c-3.6,0.2-7.2-0.2-10.6-1.2
		c-3.7-1.7-4.8,0.2-7,1.9c-2.1,1.7-3.9,1.9-5,4.1c-0.3,0.6-0.9,1-1.5,1c-4.5,0.3-8.6,2.4-11.6,5.8c-1.6,1.2-2.3,3.3-1.5,5.2
		c0.4,1.5,1.5,3.3-1.4,4.5c-2.9,1.2,3.3,2.5,0.4,4.3s0,0.4-0.2,0.6c-1.1,1.3-1.1,3.2,0,4.5c1.4,2.7,3.9,5,3.3,8.5s-0.8,6.8,1.9,9.3
		c2.7,2.5,0.6,1,0.4,1.2c-1.2,3.1,0.4,3.9,3.1,4.1c2.7,0.2,1.2,0.6,1.5,1.4c0.5,0.9,1.5,1.6,2.5,1.7c2.4,0.4,4.3,2.1,5,4.5
		c1,2.3,2.5,2.9,4.3,3.9l4.5,1.9c4.1,2.6,8.9,3.7,13.7,3.1c5-1,12,0.2,17.4-3.9c2.1-1.7,3.1-2.7,1.4-5.2c-1.7-2.5-1.4-2.3-0.2-2.5
		c2.3-0.8,4.7-1.4,7.2-1.5c2.5,0.2,2.1,1.7,3.1,0.2c0.6-1.1,0.5-2.5-0.2-3.5c-0.4-1-1.2-1.9,0-2.9c1.2-1,2.1-0.2,3.1,0.2
		s2.5,3.1,4.1,4.5c1.5,1.4,0.6,1.4,1.5,1c1-0.4,5.4-1.7,6.2-5.4C441.3,249.3,441.8,246,442.1,242.7L442.1,242.7z M513.1,278.4
		c1.4,0.6,3.1-0.6,4.8-0.6c1.7,0,1.7-0.2,1.7-1.4c0-1.2-1-1.2-1.9-1.2c-2.8,0.1-5.7-0.3-8.3-1.4c-2.9-0.8-5.5-2.1-7.9-3.9
		c-0.8-0.6-2.3-0.6-1.7-1.9s1.7-0.6,2.9-0.2c1.2,0.4,6,2.7,9.3,1.2c5.2-2.1,8-7.9,6.4-13.4c-0.4-1.2-1-2.5,0-3.3
		c1.1-0.6,2.5-0.5,3.5,0.4c0.9,0.6,1.9,1,2.9,1.2c4.7,0.8,8.6,3.9,10.4,8.3c1,2.1,1.5,3.1,3.9,2.9s1.5-0.4,1.9,0.6
		c0.4,1-0.8,1.2-1.4,1.4s-1.2,0.8-0.8,1.4c0.3,1.3-0.2,2.6-1.4,3.3c-1.4,0.8-1.5,1-1,1.7c0.6,0.8,1.4,0.4,2.1,0
		c1.2-0.4,2.3-1.2,2.9-2.3c0.4-0.9,1.2-1.5,2.1-1.7c2.6-0.6,4.9-1.8,6.8-3.7c2.6-2.3,4.3-5.5,4.8-8.9c0.4-3.3-1.7-6.4-2.1-9.7
		l-0.6-0.4c-3.4-2.2-7.4-3.2-11.4-3.1c-3.3,0.8-6.9,0.3-9.9-1.4c-1.2-0.8-2.6-1.2-4.1-1.2c-3.7,0.4-4.8-1.7-5-4.8s-0.2-2.9-2.3-1.4
		c-0.4,0.4-1,0.3-1.4-0.1c-0.1-0.1-0.1-0.2-0.2-0.3c-0.4-0.5-0.5-1.2-0.2-1.7c0.4-0.6,0.8-1.4,1.4-1.2c2.1,0.1,4.2-0.1,6.2-0.6
		c5.6-1.3,11.3-2,17-1.9c1.5,0,3.1-0.4,3.3-1.9c0.2-1.5-1.2-2.5-2.5-3.1h-1.4c-1.7,0.2-2.7-0.6-3.5-2.3s-6.8-5.8-9.5-4.8
		c-1.8,0.9-4,0.7-5.6-0.6c-0.5-0.3-1.1-0.5-1.7-0.4c-4.6,1.4-9.1,0-13.5-1.2c-0.9-0.3-1.9-0.1-2.7,0.4c-1.9,2.1-4.3,1.5-6.6,1.2
		c-1.2-0.5-2.6-0.5-3.9,0c-4.3,1.4-8.7,2.3-13.2,2.7c-4.3,0.5-7.3,4.4-6.8,8.7c0.4,2,0.1,4.1-1,5.8c-0.8,1.9-1.7,3.8-2.7,5.6
		c-0.6,1-0.6,2.1,0.4,2.3c4.5,0.8,3.5,4.1,3.7,7c0.2,2.9-0.2,2.7,1.5,2.9c1.5,0.2,2.8,1.1,3.5,2.5c0.8,1.4,1.4,2.3,2.5,2.3
		c1,0,1.8,0.7,1.8,1.7c0,0.6-0.3,1.2-0.9,1.6c-0.9,0.9-1.2,2.3-0.8,3.5c0.4,1.2,1.7,1.8,2.9,1.5h2.5c3.7,0.4,5,1.7,5.2,5.2
		c0.2,0.5,0.5,0.9,1,1.2C500.1,275,505.7,278.5,513.1,278.4L513.1,278.4z M421.9,368c1.4,0.4,1.9-0.6,2.7-1.5s1.7-2.1,3.1-1
		c2.2,1.3,4.8,1.5,7.2,0.6c1-0.5,2.2-0.5,3.3,0c4.8,2.3,7.9,1.9,11.4-1.9c0.6-0.8,1.6-1.1,2.5-0.8c1.4,0.8,2.9,1.7,3.9-0.6
		c1-2.3,2.3-1.7,3.3-3.3c1.9-2.8,2.4-6.3,1.2-9.5c-1.2-4.3,1.4-7,5.4-8.5s3.7-1.7,2.9-3.9c-1.3-2.7-3.1-5.2-5.2-7.4
		c-3.7-3.5-10.6-2.7-14.7,0.8c-4.1,3.5-4.8,4.3-8.5,2.1c-1.5-0.9-3.3-1.1-5-0.6c-0.6,0.2-1.4,0-1.7-0.6c-1.7-2.5-5.4-3.5-6.4-6.8
		c-1-3.3-1.7-2.3-2.1-1.7c-0.4,0.6-3.5,0.8-4.3,2.7l1,10.8v0.4c2.3,6.2-1.5,15.7-10.3,16.3c-1,0-2.3,0.2-1.7,1.4
		c0.4,1.6-0.6,3.2-2.3,3.6c-0.1,0-0.3,0.1-0.5,0.1c-2.1,0.2-3.3,1.5-2.7,3.5c0.5,3.1,2.4,5.8,5.2,7.2c3.7,1.4,3.3,1.4,4.1-1.7
		s1.7-3.1,4.3-1.5S420,368.4,421.9,368L421.9,368z M559.5,116.9c0-2.1-6-9.7-8.1-10.1c-2.1-0.4-0.8-0.2-1.2,0
		c-3.4,0.7-6.7,1.9-9.7,3.7c-2.9,2.3-5.8,2.1-8.9-1s-4.3-3.7-7.4-1.7c-1.3,0.7-2.8,0.4-3.9-0.6c-0.6-0.4-1.7-0.8-1.7,0.2
		c0.8,4.5-1.5,7.9-2.3,12c-0.8,4.1,1,7.9-0.2,11.8c-1.2,3.9,0.6,1.9,1.5,2.3c1,0.4,4.1,1.7,6.2,0c1.6-1,3.4-1.8,5.2-2.3
		c3.6-1.1,7.6,0.1,10.1,2.9c1.2,1.6,3.1,2.5,5,2.5c1.7,0,3.5-1.4,5.2-0.2c1.9,1.3,4.6,0.9,5.9-1.1c0,0,0-0.1,0.1-0.1
		c1.5-1.7,3.7-2.7,6-2.5c1.4,0,2.5-0.4,2.3-1.9c-0.2-1.5,1.9-4.1-1-5.6s-4.6-2.5-3.5-7.5C559.3,117.4,559.4,117.1,559.5,116.9
		L559.5,116.9z M327.3,232.6c0.8-4.1-2.5-4.3-4.8-5.2c-2.3-1-3.5,0.2-3.7,2.5c-0.2,2.3,3.1,8.9,2.9,13.7c0,0.8,1.4,1.5,2.1,2.1
		s2.1,0.6,2.1-0.8C325.6,240.8,326.1,236.6,327.3,232.6z M642.3,271.7c2.5-3.9,4.3-8.2,5.4-12.8c0.8-3.9-1.9-6.2-6-5.6
		c-1.2,0.2-1.4,0.4-1.2,1.5c1.1,3.6,1.7,7.4,1.7,11.2C642.2,267.9,642.2,269.8,642.3,271.7L642.3,271.7z M621.1,276.5l-1.4-2.1
		c-0.6-0.4-1,0-1.4,0.6c-0.4,0.6-4.6,6.6-6.8,10.1c-2.1,3.5,0,1.7,0.8,2.3c0.8,0.6,1.4-0.4,1.7-1c0.4-0.6,0.8-1.4,1.5-1.5
		C619.7,283.7,620.3,280.2,621.1,276.5z"/>
	
		<linearGradient id="SVGID_00000078036063750623736030000009509677720005870268_" gradientUnits="userSpaceOnUse" x1="2.1792" y1="417.8921" x2="2.1792" y2="415.0961" gradientTransform="matrix(117.1252 0 0 -105.884 229.6229 44254.4844)">
		<stop  offset="0" style="stop-color:#012B66"/>
		<stop  offset="1" style="stop-color:#011633"/>
	</linearGradient>
	<path style="fill:url(#SVGID_00000078036063750623736030000009509677720005870268_);" d="M626.5,109.1c0,2.7,0.8,4.3,3.7,4.3
		s3.9,1.7,6.2,1.9c2.3,0.2,0.6,1.7-0.2,2.1c-1.7,1.8-2.3,4.4-1.5,6.8c1.2,2.9,1.5,7,3.7,10.1c2.1,3.1,0.2,1.2,0.6,1.5
		c0.4,0.4,3.1,7.5,6.6,10.1c0.7,0.5,0.9,1.5,0.6,2.3c-2.3,3.3-0.2,6.2,0.6,9.3c0.3,1,0.2,2-0.2,2.9l-1.2-0.6
		c-0.4-0.4-0.8-1.4-1.5-0.6c-0.8,0.8,0,1.4,0.8,1.7l2.1,1.2c0.8,0.4,1.5,1.2,1,1.5c-3.7,2.7-0.8,5.8,0.2,7.5
		c0.7,2.3,0.9,4.7,0.8,7.2c0.2,2.3,0,1.4-0.8,1.4c-0.8,0-0.8-0.6-1.2-1.2c-0.4-0.6,0-1.4-1.2-1.5c-1.2-0.2,0,3.5,0.6,4.8
		c1.1,4.3,1.8,8.6,2.3,12.9c0.1,0.7-0.3,1.4-1,1.7c-1.7,1.3-2.1,3.8-1,5.6c1.4,1.8,1,4.4-0.8,5.7c-0.1,0.1-0.3,0.2-0.4,0.3
		c-1.1,0.9-1.7,2.3-1.7,3.7c-0.8,4.6-1.4,9.5-2.5,13.9s-2.7,9.3-4.1,13.9c-0.6,1.4-2.1,1.9-3.5,2.7c-1.4,0.8-8.3,4.8-12.8,6.8
		c-1.6,0.8-2.7,2.3-3.1,4.1c-1.9,4.6-4.8,9.1-4.5,14.5c0.2,1.2,0,1.9-1.5,1.5c-1.5-0.4-1.5,1-1.9,1.9c-0.3,0.7-0.1,1.5,0.6,1.8
		c0.1,0.1,0.2,0.1,0.4,0.1c1.5,0.4,1.2,1.4,0.6,2.1c-1.4,2.5-2.1,5.3-1.9,8.1c0.2,1.4-0.8,2.3-2.1,1.7c-1.4-0.6-2.5,0.6-2.9,2.1
		c-0.4,1.5-2.5,8.1-3.7,12.2c-0.4,1.2-1.2,2.3-2.3,2.9c1.5-4.5-1-8.3,0.2-12.6c0.4-2.1,0.3-4.2-0.4-6.2c-1.9-6.2-1.2-12.4-1-18.8
		c0.4-12.8,1.4-25.7-1.9-38.5c-0.8-3.3-2.7-6.6-3.5-10.1c-0.8-3.5-3.5-9.7-1.9-14.9c0.7-2.6,1.8-5.1,3.3-7.4c0.6-1.3,1-2.6,1.2-4.1
		c0-1.8,0.6-3.6,1.7-5c1.5-2.3,4.8-4.1,4.1-7.9c0-0.4-0.6-3.3,2.3-1.9s1.4-1.5,1-2.3c-0.4-0.8-1-6.8-1.9-10.1
		c-0.6-2.5-0.4-5.1,0.6-7.5c-1.9-0.4-1.4,2.5-3.1,1.7c-1.7-0.8-1.4-2.1-1.7-3.3c-0.4-1.2-1.4-3.7-1.9-5.6s-1.4-2.5-0.2-3.9
		c1.2-1.4,0.2-1.5-0.4-2.1c-1-1.8-1.9-3.7-2.5-5.6c-0.3-0.7,0.1-1.6,0.8-1.9c1-0.8,1.2,0.2,1.7,0.8c1.8,1.6,3.2,3.7,3.9,6
		c0.2,0.8,0.4,1.7,1.5,1.2c1.2-0.6,1.2-1.2,0.8-2.3c-1.1-2.9-2.8-5.5-5-7.5c-2.1-1.7-2.9-4.6-4.8-6.8c-0.3-0.3-0.4-0.7-0.2-1.1
		c0.1-0.1,0.2-0.2,0.4-0.3c0.4-0.6,1-0.6,1.7-0.2c0.8,0.4,1.2,1.2,1.7,0.4c0.6-0.8-0.2-1.5-0.8-2.1c-1-1.3-2.1-2.5-3.3-3.7
		c-1.5-1.4-1.9-2.5,0.4-3.1c2.3-0.6,0.8-1.4,0.4-2.3c-1.9-4.6-6.2-7.2-9.5-10.6c-0.7-0.7-1.2-1.5-1.5-2.3c-1.4-3.4-3.7-6.3-6.6-8.5
		c-0.5-0.6-0.8-1.4-1-2.1c-0.4-1.5-2.3-1.5-2.9-2.7s-1.9,0.2-2.7,0.4s-1.9,0.4-2.3-0.4c-0.4-0.8-4.8-0.4-5.6-3.1l-0.8,0.4
		c-2.1,2.7-6,3.2-8.7,1.1c-0.1,0-0.1-0.1-0.2-0.1c-3.1-1.9-1.7,0-2.3,0.6c-1.6,1.5-4,1.8-5.8,0.6c-1.8-1.1-4.1-1-5.8,0.4
		c-1.9,1.5-3.3,1.2-4.3-0.4c-4.2,2.7-8.7,5-13.4,6.8c-2.5,0.8-5,1.2-7.5,2.1c-3.3,1.2-6.8,1.7-10.3,1.4h-1.7
		c-3.5,1.5-7.3,2.2-11,1.9c-6.6,0-13.4,0.6-19.9-1.9c-6.6-2.5-9.1-4.1-13.9-4.6c-3.6-0.7-7.3-1-11-1c-2.6-0.3-5.2-0.8-7.7-1.5
		c-0.6,0-1.1-0.4-1.4-1c-0.4-1.2,0.2-2.7-1.5-3.3c-1.7-0.6-3.6-0.8-5.4-0.6c-2.9,0.6-6,0.6-8.9,0c-0.6-0.1-1.3-0.1-1.9,0
		c-1.9,2-5,2.1-6.9,0.2c0,0,0,0,0,0c-0.4-0.4-1-0.3-1.4,0.1c-0.1,0.1-0.1,0.2-0.2,0.3c-1.8,2.1-4.4,3.2-7.2,3.1l-2.1,1
		c-1.3,1.1-3,1.6-4.6,1.4c-5.5-1.1-10.9,2.4-12.2,7.9c-0.3,2.6-2.7,4.6-5.3,4.3c0,0-0.1,0-0.1,0c-3.1-0.2-2.7,1.2-3.9,1.9
		c-1.2,0.8-2.1,2.1-3.9,1.9s-1.4,0.2-1,0.6c0.4,0.4-1.2,2.5-2.3,3.1c-1.1,0.4-1.9,1.2-2.3,2.3c-0.8,2.9-2.7,5.4-2.7,8.7
		s-1.4,3.3-2.5,4.5c-3.3,3.2-5.2,7.6-5.2,12.2c0,1.9-1.2,3.5-1.2,5.2s-1.7,8.5,0.4,12.8c0.4,0.8,0,1.9-0.2,3.1
		c-0.5,1.7-0.3,3.5,0.6,5c0.7,1.9,0.8,3.9,0.2,5.8c-0.3,1.3-0.4,2.7-0.4,4.1c0.1,7.9-1.1,15.7-3.7,23.2c-0.4,1.8-0.6,3.6-0.6,5.4
		c-0.2,7.5-2.3,14.7-2.1,22.3c0,4.3-1.5,8.3-1.9,12.6c-0.4,4.3-1.2,11.8-1.9,17.8c-0.5,3.1-1.2,6.1-2.1,9.1
		c-0.2,0.6-0.4,1.2-1.2,1.2s-1-0.4-1-1c-0.5-4.7-1.6-9.2-3.5-13.5c-1.9-5.1-2.7-10.6-2.3-16.1c0.2-2.7,1.5-5.2,1.5-8.3
		c0.2-3.3,0.2-6.6-0.2-9.9c-0.4-3.1-2.5-7.5-5.4-8.5c-2.9-7.5-3.5-15.7-5.4-23.6c-0.8-3.3,1-6.6,0.8-9.9c0.2-6,0.9-11.9,2.1-17.8
		c0.3-1.7,0.3-3.5,0.2-5.2c-0.1-2.3,0.5-4.6,1.5-6.6c0.9-1.5,1.3-3.1,1.2-4.8c-0.2-5.2-0.2-10.3,0-15.3c0.2-5,0.4-3.9,3.1-4.6
		c4.4-1.3,7.9-4.7,9.3-9.1c2.5-5.2,4.3-10.8,8.1-15.7s1.9-5.6,2.1-8.7c0.5-6.7,2-13.3,4.5-19.5c3.8-9.7,9.3-18.6,16.3-26.3
		c4.1-4.1,8-8.5,11.6-13.1c0.6-0.8,1.2-1.5,2.3-1.5s6.8-2.7,10.3-3.5c3.5-0.8,1.7,0.2,2.1-0.6c2.9-4.8,7.9-5.6,13-6
		c1.6-0.2,3.3-0.5,4.8-1c9.5-4.3,20.3-4.5,30-0.6c1.2,0.2,2.3,0.2,3.5,0c-4.6-3.9-10.1-4.1-15.3-5.2c1.4-1,3.9-1.5,3.5-1.9
		c-0.4-0.4,0.8-1.2,1.2-1.4c0.4-0.2,4.6,1.4,7.2,0.6c2.5-0.8,9.9,1.5,15.1,1.5c0.2,1.2,1.2,1.2,2.1,0.8l1,0.4c1.6,1.6,4,2.3,6.2,1.7
		c1-0.2,1-0.8,1-1.5c0.7-0.2,1.5-0.2,2.1,0.2c0.4,1,1.4,1,2.1,0.8h0.6c1,2.5,3.3,3.3,5.6,4.1c2.3,0.8,2.7-0.2,2.9-2.1l0.6-0.8
		c1,0,1.9,0,1.7-1.4l0.6-0.8c1.4,0,2.7,1.4,3.7,1.2c4.6-0.6,9.1,1.3,12,4.8c1.5,1.5,3.9,1.5,5.4,3.3c1.5,1.7,3.1,1.4,3.5,0.6
		c0.4-0.8,2.3-0.6,3.1,0c1.8,2,3.2,4.3,4.3,6.8c0.4,0.8,0.8,1.7-0.4,2.3l-2.5-2.9c-2.7,3.9,0.4,7.7-0.2,11.6
		c-1.4,0.2-1.4-1.9-2.9-1.5c1.1,3.5,2,7,2.7,10.6c0.2,1,1,3.5,2.5,1.7c1.5-1.7,1.7,0.8,2.9,0.2s-1.4-5,0-7.7
		c0.6,0.9,1.3,1.8,2.1,2.5c1,1,2.3,1.2,2.3-0.4s1-6.6-1.5-9.7c-2.5-3.1-3.5-2.9-1.2-5.4s-0.8-0.6-1-1c-2-2.5-3.9-5.2-5.6-7.9
		c-1-1.7,0.4-1.2,1.2-1.5h1.9c0,1.2,0.8,1.4,1.5,1.7c4.7,3.7,8.2,8.8,9.9,14.5c1.2,3.9,3.1,7.2,4.5,10.8c0.2,0.6,0.4,1.5,1.5,1.4
		s-1.9-5.4,0.8-7.5c2.7-2.1-0.2-0.8-0.4-1.2c-0.6-1.6-1.5-3.2-2.5-4.6c-2.3-2.7-3.7-6-6-8.5c-0.6-0.5-0.7-1.3-0.4-1.9
		c0.8-1,1.4,0.2,1.7,0.2c1.9,0.4,3.7,1,5.4,1.7c1.7,0.8,0.8-0.2,1-0.8c0.2-0.6,1,1.5,1.2,2.3s1.9,3.1,2.9,2.9
		c4.3-1.4,3.7,1.7,4.1,3.9v1.9c-1.4,1.5-0.6,3.3-0.6,5.2c0,1.9,0.8-1.9,1.7-1.7c1,0.2,0.6,1.4,0.8,2.1v4.5c1.9-2.9,0.6-5.8,1.5-8.3
		c4.5,3.7,5,8.5,5.6,14.1c0.5-2.7,0.6-5.4,0.2-8.1c1.3,1.7,2.1,3.6,2.5,5.6c0.4-2.7,3.3-2.3,2.9-4.6c2.7,0.2,3.1,1.9,2.9,4.3
		c-0.4,6.4-1.7,13,0.6,19.2c0.2-1.7,0.6-3.7,1-6.4c1.7,4.8,1.5,9.7,4.3,13.5c0.4-2.7-1-5.4-0.4-8.5c1.7,1,1,2.9,2.3,3.7
		s0.6-0.6,0.4-0.8c-0.3-4-1-7.9-1.9-11.8c-0.2-0.6-0.6-1.7-0.2-1.7c0.4,0,1.4-2.1,1.7-3.3s-1.4-3.3-2.1-5c-2.7,1.7-1.5-1.2-2.1-1.9
		c-0.3-2.4-0.2-4.8,0.4-7.2c0.4-2.3,0.8-1.4,0.8-2.1c3.1-1,4.5,1.9,6.8,2.9l2.3,4.1c-0.8,0.4-2.3-0.8-1.9,0.4
		c0.4,1.2-2.5,7.7,0.4,11.8c2.9,4.1,1.4,5.6,1.5,8.7l1.2-3.3h0.6v10.1c1.7-3.1,0.2-6,1.5-8.5c1.4-2.5,0.2,1.7,1.4,2.3
		c1.2,0.6,2.9-1.9,3.1-4.3c0.2-2.3-0.8-4.1,2.5-2.5c3.3,1.5,0.8-0.8,0.8-1.2v-3.5l0,0c2.1-0.4,2.3-2.5,3.1-4.1
		c0.8-1.5,1.4,1,1.7,1.5c0.4,0.6-1.5,0.2-1.4,1c0.2,0.8,1,0.4,1.4,0.2c0,0.7-0.2,1.3-0.4,1.9c-0.7,0.8-1.3,1.6-1.9,2.5
		c-3.7,5.2-5.4,11.6-8.7,17.2c-0.4,0.8-1,2.5,0.8,2.9s1.5,1.5,1.2,2.9c-0.4,1.4-1.2,1.9-0.6,3.3c2.3-2.5,3.7-5.6,4.1-8.9
		c0.2-0.8,0-1.7,1.2-1.9c1.2-0.2,1.5,1,1.7,1.9c0.6,2.2,0.8,4.5,0.6,6.8c-0.2,2.7-2.5,3.7-4.6,4.8c3.3,1.9,2.7,4.3,0.6,6.8
		c1.9,0.4,4.6,0.4,5,1.2c0.4,0.8,2.3,1,3.7,1c1.4,0,6.6-4.1,11.2-2.5c4.6,1.5,3.9,1.9,6.6,0.4c2.7-1.5,3.5-0.4,5-1.2l1.9,2.7
		c0.4,1.9,0.6,3.7,3.3,2.9c1,1.2,1.8,2.6,2.3,4.1c0,0.8-0.2,1.5,0.8,1.9l0.6,0.6c0.1,1.7,0.5,3.4,1.2,5
		C626.3,107.6,626.5,108.4,626.5,109.1z M611.6,97.3c-0.6,0-1.2,0-1.4,0.6c-0.2,0.5,0,1,0.4,1.4l3.7,1.9c1.4,0.4,3.3,0.8,4.1,2.5
		c0.8,1.7-1,1,0.4,1.2c0.6,0,1.1-0.4,1.2-1c0.6-1.2,0.3-2.6-0.8-3.5C616.8,99,614.2,98,611.6,97.3L611.6,97.3z M505.5,20.3
		c-0.2,1.2,0.2,2.3,1.2,3.1C507.1,22.2,506.6,21,505.5,20.3z M546.2,50.3c0.6,0,0.6-0.4,0.6-0.8l-0.6-0.6c-0.6,0-0.6,0.4-0.6,0.8
		C545.6,50,545.9,50.3,546.2,50.3L546.2,50.3z M545.8,52.1c-0.4,1.2-0.6,1.7,0.2,2.5C546.4,53.8,546.3,52.8,545.8,52.1z M555.8,49.1
		h0.2v-0.4L555.8,49.1z"/>
	<path class="st8" d="M799.3,619.4c-2.1-1.4-1.7-3.5-1.7-5.2c-0.2-5.6,0.6-11.4-1.5-16.8c-1.8-5-3.2-10.2-4.1-15.5
		c-0.2-4.7-1.3-9.2-3.1-13.5c-1.4-2.7-2.5-5.6-6.4-6s-2.1-1.4-2.7-2.9c-1.1-3.4-2.5-6.7-4.3-9.9c-0.4-1-1-2.1-1.9-1.9
		s-0.6,1.7-0.6,2.5c-0.3,1.7-0.1,3.4,0.4,5c0.2,0.6,0.2,1.4-0.6,1.5c-0.8,0.2-1.2-0.2-1.7-0.8c-0.6-0.6-3.5-4.5-6.4-4.8
		s-3.1-3.5-5-5s-1.7-3.7-4.1-1c-2.3,2.7-1.7-0.2-2.3-1.2c-2.4-4.8-7.2-7.9-12.6-8.1c-0.8-0.1-1.4-0.6-1.5-1.4c0-2.5-2.1-3.9-3.3-5.8
		c-1.2-1.9-0.8,2.1-2.1,2.7c-1.7-1.9-3.2-4-4.5-6.2c-1-1.2-1-3.7-3.9-2.7c-2.9,1-1.2-1-1.2-1.7s-0.4-3.1-2.5-1.4
		c-2.1,1.7-4.3,0.2-5.8-1.7c-1.5-1.9-1.4-3.3-3.3-1s-1.5,0.2-1.5-1c-0.1-1.6-1.3-2.9-2.9-3.1c-1.9-0.2-2.1-1.5-2.7-2.9
		c-0.8-2.7-2.5-5.1-4.8-6.8c-2.9-1.5-1.2-0.8-2.1-0.6s-1.5,0-1.5-0.6c-1-4.3-5.2-4.1-7.9-6c-2.7-1.9-9.1-3.9-13.2-6.8
		c-1.6-1.6-3.6-2.6-5.8-2.9c-0.8,0-1.2-0.4-1.4-1.4c-0.2-1-1.4-3.7-3.9-3.9c-0.9-0.2-1.8-0.7-2.5-1.4c-1.8-1.4-3.8-2.5-6-3.1
		c-2.6-0.4-5-1.7-6.7-3.7c-1.5-2.3-1.2-1.2-1.9-0.4c-1.4,1-3.3,0.8-4.3-0.6c0-0.1-0.1-0.1-0.1-0.2c-0.8-0.6-1.4-1.4-2.5-1
		c-2.6,0.1-5-1.1-6.6-3.1c-0.4-0.9-1.4-1.4-2.3-1.2c-3.1,0.8-6.3-1-7.1-4.1c0-0.1-0.1-0.2-0.1-0.3c-0.2-0.4-0.3-0.8-0.4-1.2
		c-3.1,0.4-4.8-3.3-7.9-3.1c-2.2,0.3-4.4-0.4-6-1.9c-1.4-1.2-3.5,0-5-1s-0.8,0.2-0.8,0.6c0,0.6,0.3,1.1,0.8,1.4
		c1.1,1.3,1.8,2.9,1.9,4.6c-2.9-1-5.5-2.8-7.5-5c-1-1.2-2.3-2.2-3.7-2.9c-1.5-0.6-3.1-1.4-3.1,1.4c-0.1,1.2-0.9,2.3-2.1,2.5
		c-1.2,0.4-1-1.4-1.4-1.9c-3.5-4.1-4.1-9.7-7-14.1c-2.9-4.5-7.7-14.9-14.3-20.7c-1.1-1.1-2-2.3-2.7-3.7c-0.6-0.8-1.7-1.2-1.2-2.3
		c0.6-1.2,1.9-0.8,2.9-0.8c1,0,1.7,2.5,2.7,3.5c4.6,4.5,8.1,9.9,12.6,14.3c5,4.6,11,8,17.6,9.7c5.8,1.8,11.4,4.2,16.8,7
		c5.4,2.5,10.8,5,16.1,7.9c5.2,2.9,16.4,6.6,22.4,13.5c2.7,2.9,6.6,3.5,10.3,4.5c7.4,1.9,14.7,3.3,20.9,8.1
		c6.2,4.8,15.5,11.2,23.4,16.6c5.6,3.8,11.3,7.4,17.2,10.6c5.8,3.3,7.9,6.8,12.4,9.5c6.7,4.2,13.1,8.8,19.2,13.9
		c3.7,2.7,7.8,4.8,12.2,6c6,1.7,10.7,6.2,12.8,12c2.3,7.7,5.6,15.1,8.5,22.6c1.3,3.1,2.1,6.5,2.3,9.9c0.4,2.6,1,5.1,1.7,7.5
		c1.7,6.6,2.5,13.3,2.3,20.1C798.6,613.9,798.8,616.7,799.3,619.4z"/>
	<path class="st9" d="M298.5,400.4c-2.3,1.5-5,0.8-7.4,1.2c-7,0.8-14.1,1.4-20.9,2.3c-4.8,0.5-9.5,1.3-14.1,2.5
		c-4.6,1.4-9.7,1.5-14.3,2.9c-3.4,0.5-6.8,1.4-10.1,2.7c-6.4,2.7-13.2,2.9-19.5,4.5c-5.3,1.1-10.4,2.6-15.5,4.5
		c-6,2.5-12.6,4.1-18,7.5c-6.3,4-13.1,7.3-20.1,9.9l-19.9,7.5c-5.8,2.1-12.4,3.1-17.2,6.6s-10.3,2.5-15.1,4.6
		c-3.2,1.3-6.6,2-10.1,2.1c-4.5,0.2-4.8,1.2-3.7,5.2c-1.7,0.1-3.3-0.6-4.3-1.9c-2.5-2-5.8-2.5-8.7-1.4c-3,0.4-5.7,1.9-7.7,4.1
		c-1.7,2.2-3.8,4.1-6,5.8c0-0.5,0-1,0.2-1.5c3.1-5,7.7-8.8,13.2-11c1.1-0.4,2.3-0.5,3.5-0.4c6.3,0.1,12.6-1,18.6-3.3
		c9.1-2.9,18.2-5.8,27.1-9.3s17.2-7.9,26.1-11c8.9-3.1,13-5.4,19.7-7.7c6.8-2.3,14.7-6.8,22.3-9.9c9-3.7,18.4-6.5,28.1-8.3
		c3.7-0.9,7.4-1.4,11.2-1.5c0.8,0,1.6-0.3,2.1-1c0.9-0.9,2.2-1.4,3.5-1.4c4.5-0.2,8.9-0.8,13.4-1.4c1.8-0.2,3.6-0.6,5.4-1
		c7.4-2.1,14.9-1.5,22.3-3.1S293.1,400.4,298.5,400.4z"/>
	<path class="st10" d="M616.2,89.6c-1.5,0.8-4.1,0.6-5,1.2c-2.2,0.4-4.5,0.3-6.6-0.4c-1.7-0.6-7.4,2.3-11.2,2.5
		c-3.9,0.2-2.9,1.9-3.7-1s-3.1-0.8-5-1.2c2.1-2.5,2.7-4.8-0.6-6.8c2.1-1.2,4.5-2.1,4.6-4.8c0.2-2.3,0-4.6-0.6-6.8
		c-0.2-1-0.6-1.9-1.7-1.9s-1,1.2-1.2,1.9c-0.4,3.3-1.8,6.4-4.1,8.9c-0.6-1.4,0.4-2.3,0.6-3.3s0.8-2.5-1.2-2.9
		c-1.9-0.4-1.2-2.1-0.8-2.9c3.3-5.6,5-12,8.7-17.2c0.6-0.9,1.2-1.7,1.9-2.5c1,0,1.7-0.6,2.7,0c1,0.6,1.2,0.6,1.9-1.2
		c1.7,1.7,2.7,4.1,2.5,6.6l-0.4,0.4c-0.6,0.4-1.4,1-1.2,1.5c1.2,4.3-0.2,9.1,3.3,13c0.8,0.8,0.6,2.3,0.8,3.5
		c0.5,4.2,4.3,7.1,8.5,6.6c3.7-0.4,7.1,2.2,7.5,5.9C616.2,89,616.2,89.3,616.2,89.6L616.2,89.6z"/>
	<path class="st10" d="M565.1,37c-0.4,2.3-1.9,4.8-0.4,7.2c1.5,2.3-0.6,3.7,2.1,1.9c0.8,1.7,2.7,3.1,2.1,5c-0.6,1.9,0.4,3.1-1.7,3.3
		c-2.1,0.2,0,1.2,0.2,1.7c0.9,3.9,1.6,7.8,1.9,11.8c0.2,0.2-0.2,0.4-0.4,0.8c-0.2,0.4-0.6-2.7-2.3-3.7c-0.6,3.1,0.8,5.8,0.4,8.5
		c-2.7-3.9-2.5-8.7-4.3-13.5c-0.4,2.7-0.8,4.6-1,6.4c-2.3-6.2-1-12.8-0.6-19.2c0.2-2.3-0.2-4.1-2.9-4.3c0.4,2.3-2.5,1.9-2.9,4.6
		c-0.4-2-1.3-4-2.5-5.6c0.4,2.7,0.4,5.5-0.2,8.1c-0.6-5.6-1.2-10.4-5.6-14.1c-1,2.5,0.4,5.4-1.5,8.3v-4.5c-0.2-0.8,0.4-1.9-0.8-2.1
		c-1.2-0.2-0.8,1.2-1.7,1.7c-1,0.6-0.8-3.7,0.6-5.2c1.4-1.5,5.2,0.6,6.8,1.7c1.5,1.2,1.9,0.4,2.9-0.4c1-0.8,1.2,4.3,4.5,5.4
		c-0.6-2.7-2.5-5-1.5-7.7c1-2.7,0.4-1.4,1-1C559.7,34.1,562.4,35.6,565.1,37L565.1,37z"/>
	<path class="st10" d="M516.6,17.6c-0.8,0.4-2.1-0.2-1.2,1.5c1.7,2.8,3.6,5.4,5.6,7.9c0.2,0.4,1.4,0.6,1,1c-0.2,1.9,0.2,3.8,1.2,5.4
		c1.1,3.1,1.6,6.4,1.5,9.7c0.2,3.3-1.4,1.4-2.3,0.4c-0.8-0.8-1.5-1.6-2.1-2.5c-1.4,2.7-0.2,5.4,0,7.7c0.2,2.3-1.4-2.1-2.9-0.2
		c-1.5,1.9-2.3-0.8-2.5-1.7c-0.7-3.6-1.6-7.1-2.7-10.6c1.5-0.4,1.5,1.7,2.9,1.5c0.6-3.9-2.5-7.7,0.2-11.6l2.5,2.9
		c1.2-0.6,0.8-1.5,0.4-2.3c-1-2.5-2.5-4.8-4.3-6.8c-0.8-0.6-1.9-3.1-3.1,0s-2.7,0-3.5-0.6c-1.9-0.9-3.7-2-5.4-3.3
		c-2.9-3.6-7.4-5.4-12-4.8c-1,0.2-2.3-1.2-3.7-1.2c-1.4,0,1.2-0.8,1.7-0.8c0.6,0,5.2,1.7,7.9,0.6s2.1,0.6,2.9,1.5s3.7,2.1,5.4,3.5
		l1,0.4c3.5-2.5,6.4,2.1,9.9,1C518.5,15.1,516.6,16.6,516.6,17.6z"/>
	<path class="st10" d="M572.7,37.7c-2.3-1-3.7-3.9-6.8-2.9c2.5-2.2,6.2-2.3,8.9-0.4c1.6,1.2,3,2.7,3.9,4.5c1,2.3,4.6,2.7,4.3,6
		c2.3-1.9,3.1-1.7,6.2,2.9c-0.8,1.5-1,3.7-3.1,4.1c0.2-0.9,0.4-1.8,0.8-2.7c0.2-0.6,0.8-1.2,0.4-1.9s-2.1-1-3.3-0.2
		c-0.6,0.4-0.9,1.2-0.6,1.9c0.6,1.5,0.7,3.1,0.2,4.6c1.7,0.2,1.5-1.4,2.5-1.7v3.5c0,0.4-0.2,1.4-0.8,1.2c-0.6-0.2-2.3,1.2-2.5,2.5
		s-2.1,2.7-3.1,4.3c-1,1.5,0-2.1-1.4-2.3c-1.4-0.2,0.2,5.4-1.5,8.5V59.4h-0.6l-1.2,3.3c-0.2-3.1,0-6.6-1.5-8.7
		c-1.5-2.1,1-7.9-0.4-11.8c-1.4-3.9,1.2,0,1.9-0.4c0.8-0.4,0.6,1.9,1.7,1.9c1.2-3.4-0.4-7.1-3.7-8.5C569.6,33.3,574,37.2,572.7,37.7
		z"/>
	<path class="st10" d="M444.6,7c-2.5,0.8-4.8-1.2-7.2-0.6c-2.3,0.6-2.5-1-1.2,1.4c1.4,2.3-2.1,1-3.5,1.9c5.2,1.2,10.6,1.4,15.3,5.2
		c-1.2,0.2-2.3,0.2-3.5,0c-9.7-3.9-20.5-3.7-30,0.6c-1.6,0.5-3.2,0.8-4.8,1c-5,0.4-10.1,1.2-13,6c-0.4,0.8-1.2,1.4-2.1,0.6
		c1.4-5.4,6-6.2,10.4-7.4s11.2-3.7,16.6-5.6c1.4-0.4,2.8-0.7,4.3-0.8c2.6,0.1,5-0.8,7-2.5C435.3,4.6,441.7,4.8,444.6,7z"/>
	<path class="st10" d="M535.5,23.2c-0.2,0.6-0.6,1-1,0.8c-0.4-0.2-3.3-2.3-5.4-1.7c-2.1,0.6-1-1.2-1.7-0.2c-0.4,0.7-0.2,1.5,0.4,1.9
		c2.3,2.5,3.7,5.8,6,8.5c1,1.4,1.9,3,2.5,4.6c0.2,0.4,0.6,1.2,0.4,1.2c0.1,2.5-0.1,5.1-0.8,7.5c-1.2,2.3-1.4-0.8-1.5-1.4
		c-1.4-3.7-3.3-7-4.5-10.8c-1.7-5.7-5.2-10.8-9.9-14.5c-0.8-0.4-1.5-0.6-1.5-1.7c0.7-0.1,1.3-0.5,1.7-1c2.2-1.7,5.2-1.7,7.4,0
		c1.3,1.2,2.9,1.8,4.6,1.7C535.7,18.4,537.1,20.3,535.5,23.2z"/>
	<path class="st11" d="M50.8,544.1c-0.2,3.8-1.2,7.6-2.9,11c-1.4,3.5-5.2,10.6-7,16.1c-1.7,5.4-4.1,13.7-6,20.5
		c-3.3,11.2-6.4,22.6-12.2,32.9c-0.8,2.2-1.5,4.5-2.1,6.8c-1,2.1-1,2.9-2.7,2.9c1-3.5,2.1-7.2,3.1-10.8c0.1-0.8,0.5-1.5,1-2.1
		c5-5.6,6-13,8.5-19.5s4.3-13.4,6.2-20.1c0.4-1.2,0.8-2.4,1-3.7c0.6-5.4,2.4-10.5,5.2-15.1c3.3-5.2,5.7-10.9,7-16.8
		C49.9,545.3,50.3,544.6,50.8,544.1L50.8,544.1z"/>
	<path class="st12" d="M350.1,375.2c2.1,1.4,1.9,6.6,0.4,8.1c-6,5.2-12.7,9.7-19.7,13.4c-3.9,2.6-8.5,4.1-13.2,4.5h-1.2
		c-5,3.7-9.3,0.2-13.9-1.2c1.8-1.3,4-1.8,6.2-1.5c15.7,0.4,28.4-6.2,40.3-15.7C351.7,380.4,350.3,377.7,350.1,375.2z"/>
	<path class="st10" d="M346.5,359.3c2.2,4.5,3.4,9.5,3.7,14.5C347.9,369.3,346.6,364.4,346.5,359.3z"/>
	<path class="st13" d="M65.7,471.2c-0.6,4.9-2.3,9.6-4.8,13.7C61.6,480.1,63.2,475.4,65.7,471.2z"/>
	<path class="st10" d="M344.3,344.1c1.9,1.5,0.4,4.5,1.7,5.6c1.4,1.2,1,3.3,1.2,5c0.2,1.7-0.6,0.6-0.8,1
		C344,352.2,345.1,347.9,344.3,344.1z"/>
	<path class="st5" d="M603.6,347.9c-0.6-1.4-1.9-0.2-2.7-1.2c4.6,1.2,8.9-2.1,13.5-0.8l-0.8,0.6c-1-0.2-1.4,0.4-1.4,1.2h-2.5
		c-0.4-0.8-0.8-0.8-1.2,0L603.6,347.9z"/>
	<path class="st5" d="M556.2,33.3c-1,2.7,1,5,1.5,7.7c-3.3-1.2-2.3-4.5-4.5-5.4v-0.4c-0.3-1.1,0.3-2.3,1.5-2.6
		c0.2-0.1,0.4-0.1,0.7-0.1C555.5,32.9,555.6,33.5,556.2,33.3z"/>
	<path class="st10" d="M483.3,13c-0.2,1.9-1.2,2.7-2.9,2.1c-2.4-0.5-4.4-2-5.6-4.1c0.8-0.2,1.6,0.1,2.1,0.8
		C478.4,13.9,481.2,14.4,483.3,13L483.3,13z"/>
	<path class="st8" d="M799.3,637c-0.9-3.2-0.9-6.6,0-9.9C800.1,630.4,800.1,633.8,799.3,637z"/>
	<path class="st10" d="M469.9,9.9c0,0.8,0,1.4-1,1.5c-2.2,0.5-4.6-0.1-6.2-1.7C465.1,10.1,467.5,10.2,469.9,9.9z"/>
	<path class="st10" d="M555.3,32.5c-1.2,0-2.2,0.9-2.2,2c0,0.2,0,0.4,0.1,0.7c-2.1,0.6-1.5-1.2-1.7-2.1c0-1.1,0.7-2.1,1.7-2.5
		C554.1,30.2,554.9,31.5,555.3,32.5z"/>
	<path class="st13" d="M55.8,508.9c0.7,1.6,0.2,3.4-1.2,4.5C54.2,511.8,54.6,510.1,55.8,508.9z"/>
	<path class="st10" d="M567.1,412.4c-1.4-1.4-1-1.9,1.9-3.1C571.9,408.1,568.2,411.6,567.1,412.4z"/>
	<path class="st13" d="M60.7,487.6c0.8,1.1,0.5,2.7-0.7,3.5c-0.1,0.1-0.2,0.1-0.3,0.2C59.2,490,59.6,488.5,60.7,487.6z"/>
	<path class="st13" d="M58.3,497.7c0.6,1.5,0.6,2.9-1.2,3.7C56.7,500,57.2,498.5,58.3,497.7z"/>
	<path class="st13" d="M57,502.7c0.8,1.2,0.5,2.9-0.8,3.8c-0.1,0-0.1,0.1-0.2,0.1C55.5,505.2,55.9,503.7,57,502.7z"/>
	<path class="st13" d="M52,536.8c0.8,1.5,0.4,3.3-1,4.3C50.7,539.5,51.1,538,52,536.8z"/>
	<path class="st10" d="M626.3,106.8c-0.7-1.6-1.1-3.3-1.2-5C627.1,103.1,626.9,104.9,626.3,106.8z"/>
	<path class="st10" d="M621.4,95.2c-2.7,0.8-2.9-1-3.3-2.9S620.5,94,621.4,95.2z"/>
	<path class="st13" d="M59.5,492.7c0.6,1,0.3,2.3-0.7,2.9c-0.1,0.1-0.2,0.1-0.3,0.2C58.1,494.6,58.5,493.4,59.5,492.7z"/>
	<path class="st13" d="M54.5,519.2c0.7,1.3,0.3,2.9-1,3.7C53.2,521.5,53.6,520.2,54.5,519.2z"/>
	<path class="st8" d="M798.3,686.2c-0.2-1-0.8-2.1,1-2.3C801,683.6,799.8,686,798.3,686.2z"/>
	<path class="st8" d="M796.9,707.6c-0.2-1-0.6-2.1,1-2.3C799.5,705.1,798.5,707.3,796.9,707.6z"/>
	<path class="st10" d="M474.2,10.8c-0.8,0.2-1.7,0.2-2.1-0.8C471.7,9.1,474,9.5,474.2,10.8z"/>
	<path class="st10" d="M461.8,9.3c-1,0.4-1.9,0.4-2.1-0.8C460.5,8.2,461.4,8.5,461.8,9.3z"/>
	<path class="st10" d="M624.5,101.2c-1-0.4-0.8-1.2-0.8-1.9C623.8,98.5,625.1,100.4,624.5,101.2z"/>
	<path class="st10" d="M485.6,10.8c0.2,1.4-0.8,1.4-1.7,1.4S484.6,10.8,485.6,10.8z"/>
	<path class="st10" d="M590.9,50.5c-0.4,0.2-1.2,0.4-1.4-0.2c-0.2-0.6,0.6-1,1.4-1C591.6,49.3,591.3,50.1,590.9,50.5z"/>
	<path class="st10" d="M608.7,347.9c0.4-0.8,0.8-0.8,1.2,0C609.6,348.5,609.1,348.5,608.7,347.9z"/>
	<path class="st10" d="M612.3,347.7c0-0.8,0.4-1.4,1.4-1.2C614.7,346.8,613.3,347.7,612.3,347.7z"/>
	<path class="st13" d="M53.1,529.2c0.8,0.6,0.4,1-0.2,1.2C52.4,530.6,52.7,529.6,53.1,529.2z"/>
	<path class="st13" d="M52.7,531.7c0.6,0.6,0,1-0.6,1.2S52,531.9,52.7,531.7z"/>
	<path class="st10" d="M597.6,57.9v0.8l-0.6-0.4L597.6,57.9z"/>
	<path class="st14" d="M569,483c-1.1,3-1.9,6.1-2.3,9.3c-0.4,2.3-1.4,2.9-3.5,2.7c-3.1,0-5.6,2.4-5.6,5.5c0,0.1,0,0.1,0,0.2
		c-0.2,7.9-2.3,15.5-3.5,23.2c-1.2,7.7,2.3,7.9,4.5,11.6c1.3,2,2.8,4,4.5,5.8c0.7,1.4,1,3.1,0.8,4.6c-0.2,1-1.2,2.3-1.7,1.9
		c-2.7-0.6-5.2-1.7-7.5-3.1c-2.1-1.9-5.8-3.1-7.2,2.1c-0.6,2.3-1.3,4.6-2.3,6.8c-0.3,0.3-0.7,0.5-1.2,0.6c1.9-3.5-1.5-5.6-1.5-8.7
		c0.1-0.8-0.4-1.5-1.2-1.7c-0.8-0.2-1.6,0.1-2.1,0.8c-1.4,2.5-3.8,4.3-6.6,4.8c-3.1,0.4-1.2,1.2-1.4,1.9c-1,3.8-2.6,7.5-4.7,10.9
		c-0.9,1.1-1.2,2.5-0.8,3.9c0.6,0.8,0.5,1.9-0.3,2.4c0,0-0.1,0-0.1,0.1c-1.2,0.6-1.9-0.6-2.3-1.2c-2.6-4-5.8-7.5-9.5-10.4
		c-2.7-2.3-4.8-5.2-8.3-6.4l0,0c-3.4-4.4-8-7.9-13.2-10.1c-0.2-0.2-0.4-0.2-0.4-0.4c-0.9-1.3-2-2.5-3.3-3.5l-8.1-4.8
		c-1.2-0.8-2.1-1.4-1-2.9c2.5-3,5.2-5.9,8.1-8.5c1.2-1,2.7-0.8,3.9-1.9c1.2-1.2,6.4-5.4,9.3-8.5c2.9-3.1,5.4-2.7,5.8-6.2l0.6-0.6
		c1.5,0.2,2.7,0,2.5-1.9l0.6-0.6c1,0.3,2,0,2.7-0.8c3.4-2.5,6.4-5.3,9.1-8.5c6.9-7.5,13.2-15.6,18.8-24.2
		c4.8-7.5,8.3-15.7,10.4-24.4c1.5-6.8,3.3-13.5,5.6-20.1c1.8,5.8,2.5,11.9,2.1,18c-0.1,2.2,0.1,4.3,0.8,6.4
		c-0.2,8.7-0.4,17,2.7,25.3c0.8,2.9,2.6,5.4,5,7.2L569,483z M504,521.3c2.1,0.2,3.1-1.9,5.2-1.7c7,0.6,10.8-6,17.2-7.2
		c0.8,0,1.4-1.2,1.9-1.9c1.1-1.5,2.5-2.7,4.3-3.5c1.9-0.6,1.5-1,1.4-1.5c0.5-2.3,1.3-4.6,2.3-6.8c1-2.1,1.2-2.7,0.2-4.1
		c-1-1.4,0.2-2.1,0.8-2.9s1.9-1.7,0.8-2.9c-1-1-2.5-1.3-3.9-0.8c-4.6,1.5-7.4,5.6-10.8,8.5c-3.5,2.9-3.7,1.5-5,3.3
		c-4.6,5.6-10.6,9.7-16.1,14.5c-1.7,1.2-2.6,3.2-2.5,5.2C500.1,521.9,502.6,520.3,504,521.3L504,521.3z"/>
	<path class="st10" d="M556.6,422.6c-2.3,6.6-4.2,13.3-5.6,20.1c-2.1,8.7-5.6,16.9-10.4,24.4c-5.5,8.6-11.8,16.7-18.8,24.2
		c-2.7,3.2-5.7,6-9.1,8.5c-0.7,0.7-1.7,1-2.7,0.8c1.5-2.5,4.6-3.5,5.8-6.2c1.2-2.7,0.8,0,0.2-0.4v0.4c-6.6,2.3-10.8,7.2-15.7,11.4
		l0.8,1l5.2-3.1c-0.4,3.5-3.9,4.1-5.8,6.2c-1.9,2.1-6.2,5.6-9.3,8.5c-3.1,2.9-2.7,1-3.9,1.9c-2.9,2.6-5.6,5.5-8.1,8.5
		c-1.2,1.5-0.2,2.1,1,2.9l8.1,4.8c1.4,1,2.9,1.5,3.3,3.5c-2.9-0.9-5.5-2.4-7.7-4.5c-2.5-1.7-5.2-2.9-7.7-4.6c-2.5-1.7-1.9,0-2.9,0.2
		c-8.3,1.9-16.1,5.4-24.6,6.6c-5.2,0.6-10.4,1.9-15.9-0.8l11.2-3.1c0.8-0.2,1.7-0.4,1.7-1.4s-1.2-1.4-1.9-1.4
		c-3.6-0.5-7.1-1.7-10.3-3.5c-1.5-0.5-3.1-0.3-4.5,0.4l-15.9,6.8l-2.1,0.6c-0.8-2.4,0.6-4.9,2.9-5.7c0.1,0,0.2-0.1,0.3-0.1
		c1.8-0.7,2.7-2.6,2.1-4.5c0-0.1-0.1-0.3-0.2-0.4c-0.8-1.9-2.5-1.2-3.9-0.2c-1,0.9-2.6,0.8-3.6-0.2c0,0-0.1-0.1-0.1-0.2
		c-0.8-1-1.5-2-2.1-3.1c-3.3-7.4-7.5-14.1-10.1-21.9c-1.5-4.5-4.5-8.3-5.8-12.8c-2.5-8.7-6.2-16.8-8.5-25.5
		c-1.6-5.3-3.6-10.4-5.8-15.5c-2.3-5.8-4.1-11.6-6.6-17.2s-3.7-7.7-3.1-12.2l5.6,14.3c5.6,12.9,12.9,25,21.9,35.8
		c4.1,5.1,8.5,10,13.2,14.7c5.4,5.6,11.2,10.8,17.2,15.7c2.9,2.3,5.2,5.6,8.1,8.1c2.9,2.5,7,5.8,10.6,8.5c0.6,0.4,1.2,0.7,1.9,0.8
		c1.6-0.2,3.1,0.4,4.3,1.5c5.6,5.6,13.2,5,20.1,6.6c2.6,0.8,5.4,0.5,7.7-0.8c5.8-2.6,11.2-6,16.3-9.9l3.9-2.3
		c-2.7-0.4-3.1,1-3.9,2.3c-0.8,1.4-5.6-0.4-8.3,1.4c-2.7,1.7-2.1-1-3.3-1.2c0-0.4,0-0.8,0.2-1.2c0.2-0.4,0.6-1.2,1-0.6
		c0.4,0.6,3.7-0.4,4.3-1.5c0.6-1.2,3.3-4.5,4.6-7c1.4-2.5,4.3-8.3,8.7-10.4c4.4-2.1,1.9-2.5,2.9-3.5c1-1,0.2-6.6,4.8-5.8
		c0.6,0,0.8-0.6,1-1.2c0.4-1.8,0.6-3.7,0.6-5.6c0-1.7-0.6-2.1-1.9-1.2s-1,1.4-1.5,0.6c-0.6-0.8,0.2-1.2,0.8-1.7l5-4.6
		c0.5,1.9,0.6,3.9,0.4,5.8c1.7-1.2,3.3-1.9,4.6-0.2s2.1,0.4,1.9-0.4c-0.2-0.8,1.5-3.3,3.3-4.1c0.8-0.5,1.5-1.1,2.1-1.7
		c1.4,1.9-1.4,2.5-1.2,3.9c2.7-0.3,4.6-2.8,4.2-5.5c-0.1-0.5-0.2-0.9-0.4-1.3c-1-3.5,1.4-2.5,2.3-2.7c1.6-0.3,2.8-1.5,3.1-3.1
		c0.2-1.9,1.4-1.5,2.7-1.5c1.1,0.3,2.2-0.3,2.5-1.4c0.4-1.7-1.2-0.2-1.7-0.8s0.2-1.4,0.8-1.7c1.6-1.4,1.8-3.7,0.6-5.4
		c-1.9-2.1-0.2-1.5,1-1.7c1.9-0.3,3.2-2.1,2.9-4c-0.1-0.5-0.3-1-0.6-1.4c-1.2-1.4-0.6-2.1,0.6-2.7c4.1-1.9,5.4-6,7-9.7
		c0.3-1,1-1.9,1.9-2.3c1.9-0.7,3.4-2.1,4.3-3.9C555.5,420.9,555.6,421.1,556.6,422.6z"/>
	<path class="st14" d="M366.8,416c-0.6,4.5,1.5,8.3,3.1,12.2c1.5,3.9,4.3,11.4,6.6,17.2c2.2,5,4.2,10.2,5.8,15.5
		c2.3,8.7,6,16.8,8.5,25.5c1.4,4.5,4.3,8.3,5.8,12.8c2.5,7.7,6.8,14.5,10.1,21.9c0.6,1.1,1.3,2.1,2.1,3.1c0.8,1.1,2.4,1.3,3.5,0.5
		c0.1,0,0.1-0.1,0.2-0.1c1.4-1,3.1-1.7,3.9,0.2c0.9,1.7,0.2,3.8-1.6,4.7c-0.1,0.1-0.2,0.1-0.4,0.2c-2.4,0.6-4,3-3.4,5.5
		c0,0.1,0.1,0.2,0.1,0.3c-3.8,1.5-7.6,3.3-11.2,5.2c-3.7,1.5-1.5-0.2-1.7,0.8l-2.1,1c-1-0.2-1.4,0-1.5,1l-2.9,1.5
		c-1-0.2-1.4,0-1.5,1l0,0c-3.3,0.4-5.4,2.7-7.9,4.1c-2.1,1.4-4.3,2.7-6.6,3.7c0-0.3-0.1-0.5-0.2-0.8c4.3-2.3,2.1-5.4,0.6-7.9
		c-1.5-2.5-0.8-8.3-1.4-12.4c0-0.2,0-0.8,0.2-0.8c3.7-1.9,4.3-6.8,7.9-8.9c1.7-1.4,1.9-3.8,0.5-5.4c0-0.1-0.1-0.1-0.1-0.2
		c-2.3-2.4-4.4-5.1-6.2-7.9c-2.4-2.2-4.3-5-5.4-8.1c-0.8-3.3,0-3.5-2.9-1.9c-2.9,1.5-1.9-1.2-1.4-2.1c0.5-1.9,0.1-4-1.2-5.6
		c-2.8-3.9-4.9-8.2-6.2-12.8c-0.8-2.7-2.5-5.1-4.6-7c-2.7-2.4-4.4-5.7-4.8-9.3c-0.5-4.8-2-9.5-4.5-13.7V448l0.6-0.6
		c0.2-0.4-0.2-0.6-0.8-0.6c0.2-0.7,0.2-1.4,0.2-2.1c1-0.6,1-1,0-1.5c0-0.5,0-1.1,0.2-1.5c1.4-2.9,0.8-6,1.2-9.1c0.4-3.1,1.7-3.3,0-5
		s0.6-5,1-7.5c0.4-2.5,0.8-0.2,0.8-0.6l-0.6-0.6c0.4-1.9,0.6-3.9,1-5.8c0.4-1.9,1.4-1,0.4-1.7c0.5-1.3,1-2.7,1.4-4.1
		c1.7-0.4,1.2-1.4,0.6-2.3l3.1-7.7c1.2-0.2,1.5,1.7,2.9,1h0.2c-0.7,1.8,0.3,3.8,2.1,4.5c0.2,0.1,0.4,0.1,0.6,0.2l0,0l0.4,0.8
		C363.6,407.3,365.6,411.5,366.8,416z"/>
	<path class="st10" d="M567.3,479.5c-2.5-1.7-4.3-4.3-5-7.2c-3.1-8.3-2.9-16.6-2.7-25.3l0.8,0.6c2.9,5.8,5.6,11.4,8.3,17.2
		c0.6,1.1,0.6,2.4,0,3.5C567,471.8,566.5,475.7,567.3,479.5z"/>
	<path class="st15" d="M605,700.9c-0.6-1.7-1.4-2.7-3.3-1.5c0-1,0-2.1,0.2-3.1c0.4-1-0.2-2.5,1.4-2.9c1.5-0.2,2.9,0.4,3.9,1.5
		c1,0.8,0,1.9-0.6,2.7C606,698.4,606.2,700.1,605,700.9z"/>
	<path class="st10" d="M347.2,427.4c1.7,1.7,0.2,3.5,0,5c0.1,3.1-0.3,6.1-1.2,9.1c-1.5-3.1-0.4-6.2,0-9.1
		C346.5,429.6,345.1,428.8,347.2,427.4z"/>
	<path class="st10" d="M360.6,402.9c-1.9-0.3-3.2-2.1-2.9-4c0-0.2,0.1-0.4,0.2-0.6C359.3,399.5,360.2,401.1,360.6,402.9z"/>
	<path class="st10" d="M357.7,398c-1.4,0.8-1.7-1.2-2.9-1c0-0.9,0.4-1.7,1.2-2.1C356.5,395.9,357.7,396.7,357.7,398z"/>
	<path class="st10" d="M351.7,404.8c0.6,1,1.2,1.9-0.6,2.3C349.4,407.5,350.9,405.4,351.7,404.8z"/>
	<path class="st10" d="M349.8,411.2c1,0.8,0.8,1.4-0.4,1.7C348.2,413.3,349,411.6,349.8,411.2z"/>
	<path class="st10" d="M348.4,418.7l0.6,0.6c0,0.4-0.4,0.6-0.8,0.6C347.8,419.9,347.8,419.1,348.4,418.7z"/>
	<path class="st10" d="M345.9,443.1c1,0.6,1,1,0,1.5C345.5,444.2,345.5,443.6,345.9,443.1z"/>
	<path class="st10" d="M345.7,446.8c0.6,0,1,0.2,0.8,0.6l-0.6,0.6C345.9,447.6,345.9,447.2,345.7,446.8z"/>
	<path class="st10" d="M361,403.6l-0.4-0.8C361,402.9,361.2,403.1,361,403.6z"/>
	<path class="st10" d="M492,540.5c5.2,2.1,9.7,5.6,13.2,10.1h-1.7C499.5,547,495.1,544.5,492,540.5z"/>
	<path class="st10" d="M463.9,565c0.1,0.8-0.5,1.6-1.3,1.7c0,0,0,0,0,0c-1.7,0.4-1.5-1.5-2.5-2.1c-1-0.6,0.4-1.2,0.8-1
		C461.2,563.9,463.5,563.7,463.9,565z"/>
	<path class="st10" d="M457,566.8c-1.2-0.2-1.2-1.5-1.9-2.1c-0.8-0.6,0.4-1,1-0.8c0.6,0.2,2.5,0.2,2.9,1.5
		C459.3,566.8,457.7,566.6,457,566.8z"/>
	<path class="st10" d="M449.4,568.3c1.4,0.2,2.9,0.2,3.5,1.4c0.6,1.2-1.9,1.9-1.9,1S449.2,569.9,449.4,568.3z"/>
	<path class="st10" d="M464.7,664.9c-0.4,1.4-0.4,2.3-1.4,2.9l-0.8-0.4C462.6,666.1,463.5,665.1,464.7,664.9z"/>
	<path class="st10" d="M491,743.4l0.6,0.8l-0.6,0.6h-0.8L491,743.4z"/>
	<path class="st10" d="M394.5,543.4c0.2-1,0.6-1.2,1.5-1S395.4,543.7,394.5,543.4z"/>
	<path class="st10" d="M398.1,541.4c0.2-1,0.8-1.2,1.7-0.8C400.8,541,399.1,542,398.1,541.4z"/>
	<path class="st10" d="M390,545.9c0.2-1,0.6-1.2,1.5-1C392.5,545.1,391,546.3,390,545.9z"/>
	<path class="st10" d="M464.7,643.6l-0.6,0.4c-0.2-0.2-0.4-0.4-0.2-0.4l0.6-0.6L464.7,643.6z"/>
	<path class="st10" d="M467.2,618.8c-0.6-0.2-0.8-0.4,0-0.8l0,0c0.2,0.1,0.2,0.4,0,0.5c0,0,0,0,0,0V618.8z"/>
	<path class="st14" d="M560.7,594.8c-1,7.4,1.2,15.7,0.8,24c-0.4,8.3-1.5,6.6-7,5.2h-1.5c-4.6-1.7-9.7-2.7-13.2-7
		c-1-1.7-1.8-3.5-2.3-5.4c-2.8-5.4-6.6-10.3-11-14.5c-3.4-3.3-3.6-8.6-0.6-12.2c2-3.2,5.3-5.4,9.1-6c0.7-0.2,1.3-0.7,1.5-1.4
		c0.8-2.8,3.5-4.6,6.4-4.1c1,0.2,1.9,0,2.7,0.8c2.1,1.7,4.1,3.5,5.8,5.6c1.5,2.3,3.9,1.4,5.8,2.3c1.4,0.5,2.3,1.8,2.3,3.3
		C560.2,588.6,560.6,591.7,560.7,594.8z"/>
	<path class="st5" d="M473.6,664.9c0-0.6,0-1.2,0.8-1.2h0.2c0,0.8-0.4,0.8-1,1V664.9z"/>
	<path class="st5" d="M471.7,660.4l0.8-1v0.4l-1,0.6H471.7z"/>
	<path class="st5" d="M476.1,673.6c0-0.2-0.2-0.8,0.4-0.8c0.2,0,0.4,0.2,0.4,0.4l0,0C476.9,673.8,476.5,673.6,476.1,673.6
		L476.1,673.6z"/>
	<path class="st5" d="M467.2,618.8c0.2-0.1,0.2-0.4,0-0.5c0,0,0,0,0,0c0.2,0,0.2,0.2,0.2,0.4L467.2,618.8z"/>
	<path class="st5" d="M468,674.4l-0.4,0.4c-0.4-0.2,0-0.4,0.2-0.6L468,674.4z"/>
	<path class="st14" d="M390.4,610.3c-0.6,3.9-1,7.9-1.4,11.8c-0.4,3.9-0.6,3.9-2.9,4.1c-2.1,0.3-4.1-1.1-4.4-3.2c0,0,0-0.1,0-0.1
		c-3.3-10.4-5.8-21.3-9.9-31.5c-2.3-5.6-3.3-11.4-5.8-16.8c-0.7-1.1-0.4-2.5,0.6-3.2c0.2-0.1,0.3-0.2,0.5-0.3
		c1.5-0.8,2.7,0.2,3.3,1.5c2.8,5.9,6.7,11.3,11.4,15.9c1.7,2,3.1,4.2,4.1,6.6c1.9,3.7,3.2,7.6,3.9,11.6L390.4,610.3z"/>
	
		<linearGradient id="SVGID_00000181788747101441981770000011692828255250947712_" gradientUnits="userSpaceOnUse" x1="7.8719" y1="408.7805" x2="7.8719" y2="405.9844" gradientTransform="matrix(30.8858 0 0 -25.8149 155.753 10752.4639)">
		<stop  offset="0" style="stop-color:#012B66"/>
		<stop  offset="1" style="stop-color:#011633"/>
	</linearGradient>
	<path style="fill:url(#SVGID_00000181788747101441981770000011692828255250947712_);" d="M442.1,242.7c-0.3,3.3-0.8,6.6-1.5,9.9
		c-0.8,3.7-3.5,4.5-6.2,5.4c-2.7,1-1.2-0.6-1.5-1c-0.4-0.4-2.1-3.5-4.1-4.5c-1.9-1-2.1-1-3.1-0.2s-0.4,1.9,0,2.9
		c0.7,1,0.8,2.4,0.2,3.5c-1,1.5-1.9,0-3.1-0.2c-2.4,0.4-4.8,0.9-7.2,1.5c-2.5,0.4-0.6,1.5,0.2,2.5c0.9,1.8,0.3,4.1-1.4,5.2
		c-5.4,4.1-11.6,2.7-17.4,3.9c-5.8,1.2-9.5-0.8-13.7-3.1l-4.5-1.9c-1.7-1-3.3-1.5-4.3-3.9c-0.7-2.3-2.6-4-5-4.5
		c-1.1-0.2-2-0.8-2.5-1.7c-0.4-0.8-0.8-1.4-1.5-1.4c-0.8,0-4.3-1-3.1-4.1c0.2-0.2,0-0.8-0.4-1.2c-1.4-2.9-2.1-6.1-1.9-9.3
		c0.6-3.5-1.9-5.8-3.3-8.5c-1.1-1.3-1.1-3.2,0-4.5c0.2-0.2,0-0.6,0.2-0.6s-2.5-3.3-0.4-4.3c2.1-1,1.7-2.9,1.4-4.5
		c-0.7-1.9-0.1-4,1.5-5.2c3-3.4,7.1-5.5,11.6-5.8c0.7,0,1.3-0.4,1.5-1c1.2-2.1,3.3-2.7,5-4.1c1.7-1.4,3.3-3.7,7-1.9
		c3.5,1,7.1,1.4,10.6,1.2c2.7,0,5.4,2.3,8.3,2.9c4,1.2,7.9,3.1,11.4,5.4l11.2,5.6c4.8,2.3,8.3,6.5,9.9,11.6c0.7,2.2,1.7,4.3,2.9,6.2
		C441,236,442.1,239.3,442.1,242.7L442.1,242.7z M403.8,265.1c2.1-1.7,5.4-1.7,8.5-2.9c3.1-1.2,0.6-1.2,0-1.7
		c-0.8-1.4-0.8-3.2,0-4.6c1-1.7,1-3.5-1.7-4.1c-0.7-0.1-1.3-0.3-1.7-0.8c-1.5-2.8-4.4-4.5-7.5-4.5c-1.7,0-1.9,0.4-2.3,1.7
		c-1.1,3.9-3,7.6-5.4,10.8c-1.2,1.5-0.2,3.3,0.4,4.6s1.7,0.2,2.5,0c1.1-0.4,2.4-0.2,3.3,0.6C400.9,265.1,402.3,265.4,403.8,265.1
		L403.8,265.1z M375.9,216.5c-0.2,0.2-1.2,0.2-1.4,0.6c-0.2,0.4-5.4,3.5-3.9,7.4c0.2,0.9-0.2,1.8-1,2.3c-1,0.8-0.8,1.7,0.2,2.5
		c1,0.8,1.7,0.6,2.3-0.6c0.6-1.2,2.1-1.6,3.3-1c1.4,0.6,1.2,1,2.1,0.4c4.1-2.3,8.1-5,13.4-5c0.7-0.2,1.4-0.5,1.9-1
		c0.8-0.4,1.5-0.8,1.5-1.9c0-1.2-1.2-1-2.1-1.2c-3.3-0.7-6.7-0.9-10.1-0.6c-1.5,0.2-3.3,0.4-4.3-1.4S376.8,216.7,375.9,216.5
		L375.9,216.5z M381.1,235.7v1.2h6.4c3.4,0,6.9,0.2,10.3,0.8c2.2-0.1,4.3,0.1,6.4,0.8c1,0.4,1.5,1.2,2.1-0.2c0.6-1.4,1.4-2.1,0-3.3
		c-1-1.3-2.5-2.1-4.1-2.3c-3.7,0-7.5-1.2-11,1.2c-0.5,0.4-1.2,0.5-1.7,0.2C386.1,232,383.8,234.9,381.1,235.7L381.1,235.7z"/>
	
		<linearGradient id="SVGID_00000001639620886753093510000011518728963932116386_" gradientUnits="userSpaceOnUse" x1="10.5204" y1="407.0128" x2="10.5204" y2="404.2168" gradientTransform="matrix(30.1258 0 0 -22.8693 196.2558 9522.7695)">
		<stop  offset="0" style="stop-color:#012B66"/>
		<stop  offset="1" style="stop-color:#011633"/>
	</linearGradient>
	<path style="fill:url(#SVGID_00000001639620886753093510000011518728963932116386_);" d="M513.1,278.5c-7.4,0-13-3.5-18.2-7.5
		c-0.4-0.3-0.8-0.7-1-1.2c-0.2-3.5-1.5-4.8-5.2-5.2h-2.5c-1.2,0.3-2.5-0.4-2.9-1.5c-0.4-1.2-0.1-2.6,0.8-3.5c1.9-1.7,2.3-2.9-1-3.3
		c-3.3-0.4-1.9-1.2-2.5-2.3c-0.5-1.5-1.9-2.5-3.5-2.5c-2.1,0-1.5-1.5-1.5-2.9s0.8-6.2-3.7-7c-1-0.2-1-1.4-0.4-2.3
		c1-1.8,1.9-3.7,2.7-5.6c1-1.8,1.4-3.8,1-5.8c-1-3.7,3.1-8.1,6.8-8.7c4.5-0.4,8.9-1.3,13.2-2.7c1.2-0.5,2.6-0.5,3.9,0
		c2.3,0.4,4.6,1,6.6-1.2c0.8-0.5,1.8-0.7,2.7-0.4c4.5,1.2,8.9,2.5,13.5,1.2c0.6-0.1,1.2,0,1.7,0.4c1.6,1.3,3.8,1.5,5.6,0.6
		c2.7-1,8.1,1.9,9.5,4.8c1.4,2.9,1.7,2.5,3.5,2.3h1.4c1.4,0.6,2.9,1.4,2.5,3.1s-1.7,1.9-3.3,1.9c-5.7,0-11.4,0.6-17,1.9
		c-2.1,0.6-3.9,1.9-6.2,0.6c-2.3-1.4-1,0.6-1.4,1.2c-0.3,0.6-0.2,1.3,0.2,1.7c0.2,0.5,0.7,0.8,1.2,0.6c0.1,0,0.2-0.1,0.3-0.2
		c2.1-1.5,2.3-0.2,2.3,1.4c0,2.7,2.1,4.8,4.8,4.8c0.1,0,0.2,0,0.3,0c1.4,0,2.8,0.4,4.1,1.2c3,1.7,6.5,2.2,9.9,1.4
		c4-0.1,8,0.9,11.4,3.1l0.6,0.4c0.4,3.3,2.5,6.4,2.1,9.7c-0.5,3.4-2.2,6.6-4.8,8.9c-1.9,1.8-4.2,3.1-6.8,3.7
		c-0.9,0.2-1.7,0.9-2.1,1.7c-0.6,1.1-1.7,1.9-2.9,2.3c-0.8,0.4-1.5,0.8-2.1,0c-0.6-0.8,0.4-1.4,1-1.7s2.1-1.7,1.4-3.3
		c-0.8-1.5,0-1.2,0.8-1.4c0.8-0.2,1.5-0.2,1.4-1.4c-0.2-1.2-1.4-0.6-1.9-0.6c-1.7-0.3-3.1-1.4-3.9-2.9c-1.8-4.4-5.8-7.5-10.4-8.3
		c-1-0.1-2-0.5-2.9-1.2c-1.2-0.8-2.3-1.4-3.5-0.4c-1.2,1-0.4,2.1,0,3.3c1.6,5.4-1.1,11.2-6.4,13.4c-3.3,1.5-6.2-0.2-9.3-1.2
		c-3.1-1-2.1-1.4-2.9,0.2c-0.8,1.5,1,1.4,1.7,1.9c2.4,1.7,5.1,3.1,7.9,3.9c2.6,1,5.5,1.5,8.3,1.4c1,0,1.7,0,1.9,1.2
		c0.2,1.2-1,1.4-1.7,1.4C517.1,277.7,514.4,279,513.1,278.5z M517.3,243l-6.2,0.4c-1,0.2-2.7,0.4-2.7,1.9c0,1.5,1.5,1.4,2.7,1.5
		c4.6,1,9.5,1.7,13.9,3.1c3.4,0.8,6.8,1.5,10.3,1.9c1.3,0.4,2.6-0.3,3.1-1.5c0.4-1.4-1-1.7-1.9-2.3
		C530.7,244.6,524.1,242.8,517.3,243L517.3,243z"/>
	
		<linearGradient id="SVGID_00000034089592204900545940000014367657029086984344_" gradientUnits="userSpaceOnUse" x1="11.2667" y1="397.6132" x2="12.1754" y2="395.9272" gradientTransform="matrix(23.1923 0 0 -16.8175 165.3648 7024.1187)">
		<stop  offset="0" style="stop-color:#012659"/>
		<stop  offset="1" style="stop-color:#000812"/>
	</linearGradient>
	<path style="fill:url(#SVGID_00000034089592204900545940000014367657029086984344_);" d="M421.9,368c-1.9,0.4-2.9-1.2-4.1-1.9
		c-1.1-0.9-2.7-0.8-3.7,0.3c-0.3,0.4-0.5,0.8-0.6,1.2c-0.6,2.7-1,2.7-4.1,1.7c-2.8-1.3-4.8-4-5.2-7.2c-0.8-2.9,0.4-3.3,2.7-3.5
		c2.3-0.2,4.3-0.6,2.7-3.7c-1.5-3.1,0.8-1.4,1.7-1.4c8.7-0.6,12.6-10.1,10.3-16.3v-0.4l-1-10.8c0.8-1.9,3.1-1,4.3-2.7s1.9,1,2.1,1.7
		s4.6,4.3,6.4,6.8c0.4,0.6,1.1,0.8,1.7,0.6c1.7-0.5,3.5-0.3,5,0.6c3.7,2.1,6.2,0.2,8.5-2.1c2.3-2.3,11-4.3,14.7-0.8
		c2.1,2.2,3.9,4.6,5.2,7.4c0.8,2.1-1.4,3.3-2.9,3.9c-1.5,0.6-6.6,4.3-5.4,8.5c1.2,3.2,0.8,6.7-1.2,9.5c-1,1.5-2.7,1.7-3.3,3.3
		c-0.6,1.5-2.5,1.4-3.9,0.6c-0.9-0.4-2,0-2.5,0.8c-3.5,3.9-6.6,4.3-11.4,1.9c-1-0.5-2.2-0.5-3.3,0c-2.5,1-5,1.7-7.2-0.6
		c-2.1-2.3-2.5-0.2-3.1,1C424.1,367.7,423.3,368.4,421.9,368z"/>
	
		<linearGradient id="SVGID_00000008144630467632471500000008152271146746227610_" gradientUnits="userSpaceOnUse" x1="515.9198" y1="121.7484" x2="565.1026" y2="121.7484">
		<stop  offset="0" style="stop-color:#E66E67;stop-opacity:0.8"/>
		<stop  offset="1" style="stop-color:#C75650"/>
	</linearGradient>
	<path style="fill:url(#SVGID_00000008144630467632471500000008152271146746227610_);" d="M559.5,116.9c-0.2,0.2-0.2,0.5-0.2,0.8
		c-1.2,5-1.2,5.2,3.5,7.5c4.6,2.3,0.8,3.7,1,5.6c0.2,1.9-1,1.9-2.3,1.9c-2.3-0.1-4.5,0.8-6,2.5c-1.3,2-3.9,2.5-5.9,1.2
		c0,0-0.1,0-0.1-0.1c-1.7-1.2-3.5,0.2-5.2,0.2c-2,0-3.8-0.9-5-2.5c-2.5-2.8-6.4-4-10.1-2.9c-1.9,0.5-3.6,1.3-5.2,2.3
		c-2.1,1.7-4.1,0.8-6.2,0s-1.9-1.4-1.5-2.3s-0.6-7.9,0.2-11.8c0.8-3.9,3.1-7.5,2.3-12c0-1,1.2-0.6,1.7-0.2c1,1,2.6,1.3,3.9,0.6
		c3.1-1.9,5.2-0.2,7.4,1.7c2.3,2.6,6.1,3,8.9,1c3.5-2.5,6.4-2.5,9.7-3.7c3.3-1.2,0.8,0,1.2,0C551.8,106.8,559.5,114.7,559.5,116.9z"
		/>
	<path class="st20" d="M327.3,232.6c-1.2,4-1.7,8.2-1.4,12.4c0,1.4-1,1.7-2.1,0.8c-1.2-1-2.1-1.4-2.1-2.1c0.2-4.8-3.1-8.9-2.9-13.7
		c0.2-4.8,1.2-3.5,3.7-2.5C325,228.3,328.1,228.5,327.3,232.6z"/>
	<path class="st21" d="M642.3,271.7c-0.1-1.9-0.1-3.7,0-5.6c0-3.8-0.6-7.6-1.7-11.2c-0.8-3.7,0-1.4,1.2-1.5c4.1-0.6,6.8,1.7,6,5.6
		C646.7,263.4,644.8,267.8,642.3,271.7L642.3,271.7z"/>
	<path class="st21" d="M621.1,276.5c-0.8,3.7-1.4,7.2-5.4,8.3c-0.8,0.2-1.2,1-1.5,1.5c-0.4,0.6-0.6,1.9-1.7,1
		c-1.2-1-1.5-1.4-0.8-2.3c0.8-1,4.5-6.8,6.8-10.1c2.3-3.3,0.8-1,1.4-0.6L621.1,276.5z"/>
	<path class="st10" d="M611.6,97.3c2.7,0.7,5.2,1.7,7.5,3.1c1,0.8,1.3,2.3,0.8,3.5c-0.1,0.6-0.6,1-1.2,1c-1.4-0.2-0.2-1-0.4-1.2
		c-1.2-1-2.6-1.9-4.1-2.5l-3.7-1.9c-0.4-0.4-0.8-0.8-0.4-1.4C610.6,97.3,611,97.3,611.6,97.3z"/>
	<path class="st14" d="M572.7,37.7c1.4-0.6-0.4-1.7,0.4-2.5c0.8-0.8,4.5,4.3,3.7,8.5c-1.2,0-0.8-1.5-1.7-1.9L572.7,37.7z"/>
	<path class="st10" d="M505.5,20.3c1,0.6,1.5,1.9,1.2,3.1C505.8,22.7,505.3,21.5,505.5,20.3z"/>
	<path class="st10" d="M546.2,50.3c-0.3,0-0.5-0.2-0.6-0.6c0-0.4,0-0.8,0.6-0.8l0.6,0.6C546.7,49.9,546.7,50.3,546.2,50.3z"/>
	<path class="st10" d="M545.8,52.1c0.6,0.7,0.6,1.7,0.2,2.5C545.2,53.8,545.4,53.2,545.8,52.1z"/>
	<path class="st10" d="M641,211.3"/>
	<path class="st10" d="M555.8,49.2h0.2v0.4h-0.2V49.2z"/>
	<path class="st10" d="M484.1,16.3l-0.2-0.2h0.2V16.3z"/>
	<path class="st5" d="M586,51.9c-1,0.4-0.8,1.9-2.5,1.7c0.5-1.5,0.5-3.2-0.2-4.6c-0.3-0.7-0.1-1.5,0.6-1.9c1.2-0.8,2.1,1.4,3.3,0.2
		c1.2-1.2-0.2,1.4-0.4,1.9C586.5,50,586.2,50.9,586,51.9z"/>
	<path class="st10" d="M504,521.3c-1.4-1-3.9,0.6-4.3-1.7c-0.1-2.1,0.9-4,2.5-5.2c5.4-4.8,11.4-8.9,16.1-14.5c1.4-1.7,3.5-2.1,5-3.3
		c1.5-1.2,6.2-7,10.8-8.5c1.3-0.6,2.9-0.3,3.9,0.8c1.2,1.2-0.2,1.9-0.8,2.9c-0.6,1-1.5,1.7-0.8,2.9c0.8,1.2,0.2,2.7-0.2,4.1
		c-0.4,1.4-3.3,3.9-2.3,6.8c1,2.9-0.6,1.4-1.4,1.5c-1.6,0.9-3,2.1-4.3,3.5c-1.4,1.4-1.2,1.9-1.9,1.9c-6.4,1.2-10.3,7.7-17.2,7.2
		C507.1,519.4,506.1,521.5,504,521.3z"/>
	<path class="st5" d="M515.8,494.4c-1.2,2.7-4.3,3.7-5.8,6.2l-0.6,0.6c-1.1,0.2-2,0.9-2.5,1.9l-0.6,0.6l-5.2,3.1l-0.8-1
		c4.8-4.3,9.1-9.1,15.7-11.4L515.8,494.4z"/>
	<path class="st10" d="M506.9,503.1c0.5-1,1.4-1.7,2.5-1.9C509.6,503.1,508.4,503.3,506.9,503.1z"/>
	<path class="st5" d="M493.7,511.4c0.8-1.4,1.2-2.7,3.9-2.3L493.7,511.4z"/>
	<path class="st5" d="M516,494.4V494c0.6,0.4,0,0.2-0.2,0.4H516z"/>
	<path class="st10" d="M403.7,265.1c-1.4,0.3-2.9,0-4.1-0.8c-0.9-0.8-2.2-1-3.3-0.6c-0.8,0.2-2.1,1.4-2.5,0
		c-0.4-1.4-1.5-3.1-0.4-4.6c2.5-3.3,4.3-6.9,5.4-10.8c0.4-1.4,0.6-1.7,2.3-1.7c3.2-0.1,6.1,1.7,7.5,4.5c0.5,0.4,1.1,0.7,1.7,0.8
		c2.7,0.6,3.3,1.5,1.7,4.1c-1.5,2.5-1.7,3.1,0,4.6c1.7,1.5,0.8,1.5,0,1.7C409.3,262.7,406.4,263.6,403.7,265.1z"/>
	<path class="st10" d="M375.9,216.5c1,0.2,1.7,0,2.1,0.6c1.2,1,2.7,1.4,4.3,1.4c3.4-0.3,6.8-0.1,10.1,0.6c1,0.2,1.9,0.2,2.1,1.2
		s-0.8,1.5-1.5,1.9c-0.6,0.5-1.2,0.8-1.9,1c-5.2,0-9.3,2.7-13.4,5c-1,0.6-1.5,0-2.1-0.4c-0.6-0.4-2.7-0.6-3.3,1
		c-0.6,1.5-1.4,1.4-2.3,0.6c-1-0.8-1.2-1.7-0.2-2.5c0.8-0.5,1.2-1.4,1-2.3c-1.5-3.9,2.7-4.8,3.9-7.4
		C375.7,214.6,375.7,216.7,375.9,216.5z"/>
	<path class="st10" d="M381.1,235.7c2.7-0.8,5-3.7,8.5-1.7c0.6,0.3,1.3,0.2,1.7-0.2c3.5-2.3,7.4-1.2,11-1.2c1.6,0.2,3.1,1.1,4.1,2.3
		c1.4,1.2,0.6,2.1,0,3.3c-0.6,1.2-1.2,0.6-2.1,0.2c-2.1-0.6-4.2-0.9-6.4-0.8c-3.4-0.5-6.8-0.8-10.3-0.8h-6.4L381.1,235.7z"/>
	<path class="st10" d="M517.3,243c6.7-0.2,13.4,1.6,19.2,5c1,0.6,2.3,1,1.9,2.3c-0.5,1.3-1.8,1.9-3.1,1.5c-3.5-0.8-6.8-1-10.3-1.9
		c-3.5-1-9.3-2.1-13.9-3.1c-1.2-0.2-2.7,0-2.7-1.5c0-1.5,1.7-1.7,2.7-1.9L517.3,243z"/>
</g>
<text transform="matrix(1 0 0 1 50.8018 368.675)" class="st22 st23 st24">Designer</text>
<text transform="matrix(1 0 0 1 669.5245 449.177)" class="st25 st23 st24">Developer</text>
<g>
	<polyline class="st26" points="891.1,460.7 671.4,462.1 631.9,528.5 	"/>
	<polygon class="st25" points="628.8,508.3 643.4,508.3 650.8,520.8 643.4,533.4 628.8,533.4 621.4,520.8 	"/>
</g>
<g>
	<polyline class="st26" points="51.9,378.2 255.6,379.6 292.5,446 	"/>
	<polygon class="st25" points="295.4,428.6 281.7,428.6 274.9,441.1 281.7,453.7 295.4,453.7 302.3,441.1 	"/>
</g>
</svg>
